<svg width="122" height="122" viewBox="0 0 122 122" fill="none" xmlns="http://www.w3.org/2000/svg">
<g clip-path="url(#clip0_406_5356)">
<circle cx="61" cy="61" r="61" fill="#00425B"/>
<path fill-rule="evenodd" clip-rule="evenodd" d="M82.4904 42.4586H88.3225C88.7013 42.4586 89.004 41.9951 89.004 41.6081C89.004 41.2216 88.7013 40.9128 88.3225 40.9128H82.4904C82.2632 40.9128 82.1116 40.7581 82.1116 40.5263V30.109L82.1117 30.0948L82.1116 30.0805V27.7771C82.1116 27.5453 82.2632 27.3906 82.4904 27.3906H88.3225C88.7013 27.3906 89.004 27.0818 89.004 26.6953C89.004 26.3088 88.7013 26 88.3225 26H82.4904C81.5056 26 80.6725 26.8499 80.6725 27.8546V29.3995H76.81C72.4174 29.3995 70.2182 29.9052 67.34 30.567L67.0399 30.6359L66.7372 30.713C66.3843 30.8031 66.0058 30.8668 65.6016 30.9349C65.3116 30.9838 65.0085 31.0348 64.6921 31.0994C62.117 31.5629 59.2388 32.1041 57.7996 33.6494C55.2717 36.4319 54.3213 42.1353 54.1274 43.6917C51.3003 45.281 49.392 48.3488 49.392 51.8852C49.392 57.0629 53.4822 61.2352 58.5568 61.2352L58.5567 61.2351C63.5556 61.2351 67.7215 57.0623 67.722 51.7311C67.722 50.8811 67.5704 49.954 67.3432 49.104C67.1921 48.7176 66.8133 48.5634 66.4345 48.6405C66.0557 48.7947 65.9046 49.1811 65.9801 49.5676C66.2073 50.2629 66.2829 51.0352 66.2829 51.8081C66.2829 56.1351 62.7986 59.6898 58.5573 59.6898C54.316 59.6898 50.8317 56.1351 50.8317 51.8081C50.8317 48.788 52.5291 46.1441 54.9967 44.8226C55.077 44.7988 55.1513 44.7612 55.2177 44.7088C56.2304 44.2079 57.3639 43.9265 58.5573 43.9265C59.1633 43.9265 59.7687 44.0035 60.2991 44.1582C60.678 44.2353 61.0568 44.0035 61.1323 43.6171C61.2079 43.2306 60.9807 42.8442 60.6019 42.7671C59.9198 42.6124 59.2383 42.5353 58.5568 42.5353C57.5495 42.5353 56.5811 42.6997 55.6758 43.0036C56.0012 40.9756 56.909 36.6063 58.8598 34.4989C59.9791 33.2812 62.6406 32.8131 64.8189 32.4301L64.9191 32.4124C65.2467 32.3456 65.5742 32.2932 65.8894 32.2428C66.3032 32.1766 66.6959 32.1138 67.0398 32.026L67.3426 31.9489C70.3719 31.2536 72.4171 30.7901 76.81 30.7901H80.6725V37.8999H77.037C76.9025 37.8999 76.7776 37.9389 76.6724 38.0064C75.4789 38.1667 74.4042 38.9694 73.9313 40.1404C73.4014 41.5316 72.0378 43.5405 69.0085 44.7769C67.7966 45.2404 66.7362 45.781 65.9031 46.3222C65.3727 46.631 64.8428 47.0175 64.2368 47.481C64.0588 47.6105 63.8808 47.7488 63.7029 47.8871C63.3506 48.1609 62.9984 48.4346 62.646 48.6398C61.5096 49.4127 61.2069 49.258 60.8281 48.7945L60.7526 48.7174C60.6009 48.4857 60.5254 48.2534 60.5254 47.9445C60.5254 47.7127 60.677 47.4039 60.9042 47.2492L61.0558 47.0945C61.1077 47.054 61.1603 47.013 61.2137 46.9715C62.4837 45.9822 64.1559 44.6797 65.8275 42.3811C66.2064 41.7628 66.2819 40.9904 65.9792 40.3722C65.6759 39.6769 64.9944 39.2904 64.3129 39.2904C64.0102 39.2129 62.0406 39.2129 60.5259 41.0675C60.2987 41.3769 60.2987 41.8404 60.6015 42.0722C60.9047 42.3039 61.3591 42.3039 61.5862 41.9951C62.6861 40.6494 64.0693 40.6781 64.2259 40.6814C64.2311 40.6815 64.235 40.6816 64.2374 40.6816H64.313C64.5689 40.6816 64.6629 40.7922 64.7314 40.873C64.744 40.8877 64.7556 40.9015 64.7673 40.9134C64.7673 40.9293 64.7706 40.9486 64.7744 40.9713C64.7891 41.0579 64.812 41.1932 64.6918 41.3769C63.1015 43.618 61.4352 44.9315 60.2233 45.8585L60.0716 46.0132C59.5412 46.3996 59.1624 47.0179 59.0868 47.7132C59.0113 48.409 59.1629 49.0266 59.6173 49.5678V49.6449C60.2233 50.3402 60.7532 50.5719 61.3592 50.5719L61.359 50.5721C62.0405 50.5721 62.722 50.1856 63.4036 49.7221C63.7817 49.447 64.1594 49.1717 64.5373 48.8963C64.6897 48.7853 64.842 48.6743 64.9944 48.5633C65.2049 48.4097 65.4274 48.2562 65.6429 48.1075C65.9699 47.8819 66.2807 47.6674 66.509 47.481C67.2666 46.9398 68.2514 46.4762 69.3873 46.0127C72.9472 44.6221 74.4618 42.3039 75.1434 40.6039C75.4447 39.7577 76.1971 39.2945 77.026 39.2905C77.0297 39.2905 77.0333 39.2905 77.037 39.2905H80.6725V40.6044C80.6725 41.6086 81.43 42.4586 82.4904 42.4586ZM49.2086 57.1511H31.7669C31.4822 57.1511 31.2221 57.3073 31.0886 57.5575C30.9556 57.8078 30.9733 58.1107 31.1351 58.3434L31.4722 58.81C33.7935 61.118 34.9807 63.7295 34.906 66.3601C34.8359 68.8359 33.6317 71.18 31.4246 73.1401C31.1881 73.3506 31.1057 73.685 31.2192 73.9803C31.3316 74.2762 31.6175 74.4709 31.9352 74.4709H76.0472L76.0475 74.4708C78.4976 74.4708 80.8467 73.4371 82.495 71.6349C84.1663 69.8077 84.9552 67.4383 84.7187 64.9632C84.2981 60.583 80.339 57.1511 75.7057 57.1511H68.6309C68.2948 57.691 67.915 58.2008 67.4963 58.6755H75.7068C79.5582 58.6755 82.8467 61.5009 83.1926 65.1076C83.3892 67.1501 82.7391 69.1036 81.3613 70.6093C80.0037 72.0951 78.067 72.9471 76.0487 72.9471H33.7635H33.7633C35.4541 70.9894 36.3718 68.7563 36.4388 66.4039C36.517 63.6767 35.4581 60.9981 33.4321 58.6755H50.3433C49.9246 58.2008 49.5447 57.691 49.2086 57.1511ZM79.0247 88.904H48.7604C48.3274 88.904 47.9768 88.5812 47.9768 88.1824C47.9768 87.7836 48.3274 87.4607 48.7604 87.4607H79.0247C79.4577 87.4607 79.8083 87.7836 79.8083 88.1824C79.8083 88.5812 79.4577 88.904 79.0247 88.904ZM43.8088 67.2543H74.0731C74.5061 67.2543 74.8567 66.9315 74.8567 66.5327C74.8567 66.1339 74.5061 65.811 74.0731 65.811H43.8088C43.3758 65.811 43.0252 66.1339 43.0252 66.5327C43.0252 66.9315 43.3758 67.2543 43.8088 67.2543ZM90.3585 96.8422H46.4204C41.7871 96.8422 37.8281 93.2674 37.4075 88.7046C37.171 86.1263 37.9598 83.6583 39.6312 81.7549C41.28 79.8771 43.6291 78.8008 46.0791 78.8008H90.1919C90.5096 78.8008 90.7955 79.0037 90.9078 79.3119C91.0214 79.6195 90.939 79.9679 90.7025 80.1871C88.4954 82.2289 87.2912 84.6707 87.2212 87.2496C87.1465 89.9899 88.3336 92.7096 90.6549 95.1137L90.9932 95.6015C91.1532 95.8452 91.1697 96.1595 91.0379 96.4202C90.9044 96.6796 90.6438 96.8423 90.359 96.8423L90.3585 96.8422ZM46.0785 80.3887C44.0602 80.3887 42.1235 81.2761 40.7659 82.8238C39.3882 84.3923 38.7381 86.4271 38.9347 88.5548C39.2806 92.3117 42.569 95.2548 46.4204 95.2548H88.6944C86.6666 92.8361 85.6083 90.0465 85.6859 87.2044C85.7536 84.754 86.6713 82.4273 88.362 80.3887H46.0785ZM57.8752 57.215C56.5343 56.8975 55.5275 55.6649 55.5275 54.2039C55.5275 53.8174 55.8302 53.5086 56.209 53.5086C56.5878 53.5086 56.8905 53.8174 56.8905 54.2039C56.8905 55.0539 57.5721 55.8268 58.4813 55.8268C59.3145 55.8268 60.0721 55.1315 60.0721 54.2039C60.0721 53.5857 59.7694 53.0451 58.2542 52.5809L58.2295 52.5725C57.5229 52.3325 55.452 51.6292 55.452 49.5674C55.452 48.6403 55.8308 47.7903 56.5879 47.1722C56.8906 46.9404 57.3455 46.9404 57.5727 47.2493C57.7998 47.5581 57.7998 48.0222 57.4971 48.2539C57.1183 48.5628 56.8911 49.0269 56.8911 49.4904C56.8911 49.9539 57.1183 50.5721 58.709 51.1133C59.9965 51.5769 61.5113 52.2722 61.5113 54.1268C61.5108 55.6434 60.518 56.8785 59.2383 57.208V57.9127C59.2388 58.2991 58.9355 58.608 58.5567 58.608C58.1779 58.608 57.8752 58.2991 57.8752 57.9127V57.215Z" fill="url(#paint0_linear_406_5356)"/>
<path fill-rule="evenodd" clip-rule="evenodd" d="M82.4904 42.4586H88.3225C88.7013 42.4586 89.004 41.9951 89.004 41.6081C89.004 41.2216 88.7013 40.9128 88.3225 40.9128H82.4904C82.2632 40.9128 82.1116 40.7581 82.1116 40.5263V30.109L82.1117 30.0948L82.1116 30.0805V27.7771C82.1116 27.5453 82.2632 27.3906 82.4904 27.3906H88.3225C88.7013 27.3906 89.004 27.0818 89.004 26.6953C89.004 26.3088 88.7013 26 88.3225 26H82.4904C81.5056 26 80.6725 26.8499 80.6725 27.8546V29.3995H76.81C72.4174 29.3995 70.2182 29.9052 67.34 30.567L67.0399 30.6359L66.7372 30.713C66.3843 30.8031 66.0058 30.8668 65.6016 30.9349C65.3116 30.9838 65.0085 31.0348 64.6921 31.0994C62.117 31.5629 59.2388 32.1041 57.7996 33.6494C55.2717 36.4319 54.3213 42.1353 54.1274 43.6917C51.3003 45.281 49.392 48.3488 49.392 51.8852C49.392 57.0629 53.4822 61.2352 58.5568 61.2352L58.5567 61.2351C63.5556 61.2351 67.7215 57.0623 67.722 51.7311C67.722 50.8811 67.5704 49.954 67.3432 49.104C67.1921 48.7176 66.8133 48.5634 66.4345 48.6405C66.0557 48.7947 65.9046 49.1811 65.9801 49.5676C66.2073 50.2629 66.2829 51.0352 66.2829 51.8081C66.2829 56.1351 62.7986 59.6898 58.5573 59.6898C54.316 59.6898 50.8317 56.1351 50.8317 51.8081C50.8317 48.788 52.5291 46.1441 54.9967 44.8226C55.077 44.7988 55.1513 44.7612 55.2177 44.7088C56.2304 44.2079 57.3639 43.9265 58.5573 43.9265C59.1633 43.9265 59.7687 44.0035 60.2991 44.1582C60.678 44.2353 61.0568 44.0035 61.1323 43.6171C61.2079 43.2306 60.9807 42.8442 60.6019 42.7671C59.9198 42.6124 59.2383 42.5353 58.5568 42.5353C57.5495 42.5353 56.5811 42.6997 55.6758 43.0036C56.0012 40.9756 56.909 36.6063 58.8598 34.4989C59.9791 33.2812 62.6406 32.8131 64.8189 32.4301L64.9191 32.4124C65.2467 32.3456 65.5742 32.2932 65.8894 32.2428C66.3032 32.1766 66.6959 32.1138 67.0398 32.026L67.3426 31.9489C70.3719 31.2536 72.4171 30.7901 76.81 30.7901H80.6725V37.8999H77.037C76.9025 37.8999 76.7776 37.9389 76.6724 38.0064C75.4789 38.1667 74.4042 38.9694 73.9313 40.1404C73.4014 41.5316 72.0378 43.5405 69.0085 44.7769C67.7966 45.2404 66.7362 45.781 65.9031 46.3222C65.3727 46.631 64.8428 47.0175 64.2368 47.481C64.0588 47.6105 63.8808 47.7488 63.7029 47.8871C63.3506 48.1609 62.9984 48.4346 62.646 48.6398C61.5096 49.4127 61.2069 49.258 60.8281 48.7945L60.7526 48.7174C60.6009 48.4857 60.5254 48.2534 60.5254 47.9445C60.5254 47.7127 60.677 47.4039 60.9042 47.2492L61.0558 47.0945C61.1077 47.054 61.1603 47.013 61.2137 46.9715C62.4837 45.9822 64.1559 44.6797 65.8275 42.3811C66.2064 41.7628 66.2819 40.9904 65.9792 40.3722C65.6759 39.6769 64.9944 39.2904 64.3129 39.2904C64.0102 39.2129 62.0406 39.2129 60.5259 41.0675C60.2987 41.3769 60.2987 41.8404 60.6015 42.0722C60.9047 42.3039 61.3591 42.3039 61.5862 41.9951C62.6861 40.6494 64.0693 40.6781 64.2259 40.6814C64.2311 40.6815 64.235 40.6816 64.2374 40.6816H64.313C64.5689 40.6816 64.6629 40.7922 64.7314 40.873C64.744 40.8877 64.7556 40.9015 64.7673 40.9134C64.7673 40.9293 64.7706 40.9486 64.7744 40.9713C64.7891 41.0579 64.812 41.1932 64.6918 41.3769C63.1015 43.618 61.4352 44.9315 60.2233 45.8585L60.0716 46.0132C59.5412 46.3996 59.1624 47.0179 59.0868 47.7132C59.0113 48.409 59.1629 49.0266 59.6173 49.5678V49.6449C60.2233 50.3402 60.7532 50.5719 61.3592 50.5719L61.359 50.5721C62.0405 50.5721 62.722 50.1856 63.4036 49.7221C63.7817 49.447 64.1594 49.1717 64.5373 48.8963C64.6897 48.7853 64.842 48.6743 64.9944 48.5633C65.2049 48.4097 65.4274 48.2562 65.6429 48.1075C65.9699 47.8819 66.2807 47.6674 66.509 47.481C67.2666 46.9398 68.2514 46.4762 69.3873 46.0127C72.9472 44.6221 74.4618 42.3039 75.1434 40.6039C75.4447 39.7577 76.1971 39.2945 77.026 39.2905C77.0297 39.2905 77.0333 39.2905 77.037 39.2905H80.6725V40.6044C80.6725 41.6086 81.43 42.4586 82.4904 42.4586ZM49.2086 57.1511H31.7669C31.4822 57.1511 31.2221 57.3073 31.0886 57.5575C30.9556 57.8078 30.9733 58.1107 31.1351 58.3434L31.4722 58.81C33.7935 61.118 34.9807 63.7295 34.906 66.3601C34.8359 68.8359 33.6317 71.18 31.4246 73.1401C31.1881 73.3506 31.1057 73.685 31.2192 73.9803C31.3316 74.2762 31.6175 74.4709 31.9352 74.4709H76.0472L76.0475 74.4708C78.4976 74.4708 80.8467 73.4371 82.495 71.6349C84.1663 69.8077 84.9552 67.4383 84.7187 64.9632C84.2981 60.583 80.339 57.1511 75.7057 57.1511H68.6309C68.2948 57.691 67.915 58.2008 67.4963 58.6755H75.7068C79.5582 58.6755 82.8467 61.5009 83.1926 65.1076C83.3892 67.1501 82.7391 69.1036 81.3613 70.6093C80.0037 72.0951 78.067 72.9471 76.0487 72.9471H33.7635H33.7633C35.4541 70.9894 36.3718 68.7563 36.4388 66.4039C36.517 63.6767 35.4581 60.9981 33.4321 58.6755H50.3433C49.9246 58.2008 49.5447 57.691 49.2086 57.1511ZM79.0247 88.904H48.7604C48.3274 88.904 47.9768 88.5812 47.9768 88.1824C47.9768 87.7836 48.3274 87.4607 48.7604 87.4607H79.0247C79.4577 87.4607 79.8083 87.7836 79.8083 88.1824C79.8083 88.5812 79.4577 88.904 79.0247 88.904ZM43.8088 67.2543H74.0731C74.5061 67.2543 74.8567 66.9315 74.8567 66.5327C74.8567 66.1339 74.5061 65.811 74.0731 65.811H43.8088C43.3758 65.811 43.0252 66.1339 43.0252 66.5327C43.0252 66.9315 43.3758 67.2543 43.8088 67.2543ZM90.3585 96.8422H46.4204C41.7871 96.8422 37.8281 93.2674 37.4075 88.7046C37.171 86.1263 37.9598 83.6583 39.6312 81.7549C41.28 79.8771 43.6291 78.8008 46.0791 78.8008H90.1919C90.5096 78.8008 90.7955 79.0037 90.9078 79.3119C91.0214 79.6195 90.939 79.9679 90.7025 80.1871C88.4954 82.2289 87.2912 84.6707 87.2212 87.2496C87.1465 89.9899 88.3336 92.7096 90.6549 95.1137L90.9932 95.6015C91.1532 95.8452 91.1697 96.1595 91.0379 96.4202C90.9044 96.6796 90.6438 96.8423 90.359 96.8423L90.3585 96.8422ZM46.0785 80.3887C44.0602 80.3887 42.1235 81.2761 40.7659 82.8238C39.3882 84.3923 38.7381 86.4271 38.9347 88.5548C39.2806 92.3117 42.569 95.2548 46.4204 95.2548H88.6944C86.6666 92.8361 85.6083 90.0465 85.6859 87.2044C85.7536 84.754 86.6713 82.4273 88.362 80.3887H46.0785ZM57.8752 57.215C56.5343 56.8975 55.5275 55.6649 55.5275 54.2039C55.5275 53.8174 55.8302 53.5086 56.209 53.5086C56.5878 53.5086 56.8905 53.8174 56.8905 54.2039C56.8905 55.0539 57.5721 55.8268 58.4813 55.8268C59.3145 55.8268 60.0721 55.1315 60.0721 54.2039C60.0721 53.5857 59.7694 53.0451 58.2542 52.5809L58.2295 52.5725C57.5229 52.3325 55.452 51.6292 55.452 49.5674C55.452 48.6403 55.8308 47.7903 56.5879 47.1722C56.8906 46.9404 57.3455 46.9404 57.5727 47.2493C57.7998 47.5581 57.7998 48.0222 57.4971 48.2539C57.1183 48.5628 56.8911 49.0269 56.8911 49.4904C56.8911 49.9539 57.1183 50.5721 58.709 51.1133C59.9965 51.5769 61.5113 52.2722 61.5113 54.1268C61.5108 55.6434 60.518 56.8785 59.2383 57.208V57.9127C59.2388 58.2991 58.9355 58.608 58.5567 58.608C58.1779 58.608 57.8752 58.2991 57.8752 57.9127V57.215Z" fill="white"/>
</g>
<defs>
<linearGradient id="paint0_linear_406_5356" x1="98.1998" y1="101.172" x2="20.3352" y2="27.6762" gradientUnits="userSpaceOnUse">
<stop stop-color="#00425B"/>
<stop offset="1" stop-color="#00B9FF"/>
</linearGradient>
<clipPath id="clip0_406_5356">
<rect width="122" height="122" fill="white"/>
</clipPath>
</defs>
</svg>
