<svg width="36" height="36" viewBox="0 0 36 36" fill="none" xmlns="http://www.w3.org/2000/svg">
<path d="M18.0219 35.5C27.7028 35.5 35.5 27.625 35.5 17.9563C35.5 8.2875 27.7028 0.5 18.0219 0.5C8.34105 0.5 0.5 8.33125 0.5 18C0.5 27.6688 8.34105 35.5 18.0219 35.5ZM18.0219 2.64375C26.4762 2.64375 33.3974 9.55625 33.3974 18C33.3974 26.4437 26.4762 33.3563 18.0219 33.3563C9.56758 33.3563 2.64643 26.4437 2.64643 18C2.64643 9.55625 9.56758 2.64375 18.0219 2.64375Z" fill="#E8AC14"/>
<path d="M16.5 7.875H19.5V23.125H16.5V7.875Z" fill="#E8AC14"/>
<path d="M16 26.5C16 25.3954 16.8954 24.5 18 24.5C19.1046 24.5 20 25.3954 20 26.5C20 27.6046 19.1046 28.5 18 28.5C16.8954 28.5 16 27.6046 16 26.5Z" fill="#E8AC14"/>
</svg>
