<svg width="16" height="16" viewBox="0 0 16 16" fill="none" xmlns="http://www.w3.org/2000/svg">
<path d="M13.25 2H12.5V1.25C12.5 0.8 12.2 0.5 11.75 0.5C11.3 0.5 11 0.8 11 1.25V2H5V1.25C5 0.8 4.7 0.5 4.25 0.5C3.8 0.5 3.5 0.8 3.5 1.25V2H2.75C1.475 2 0.5 2.975 0.5 4.25V5H15.5V4.25C15.5 2.975 14.525 2 13.25 2ZM0.5 13.25C0.5 14.525 1.475 15.5 2.75 15.5H13.25C14.525 15.5 15.5 14.525 15.5 13.25V6.5H0.5V13.25ZM11.75 8C12.2 8 12.5 8.3 12.5 8.75C12.5 9.2 12.2 9.5 11.75 9.5C11.3 9.5 11 9.2 11 8.75C11 8.3 11.3 8 11.75 8ZM11.75 11C12.2 11 12.5 11.3 12.5 11.75C12.5 12.2 12.2 12.5 11.75 12.5C11.3 12.5 11 12.2 11 11.75C11 11.3 11.3 11 11.75 11ZM8 8C8.45 8 8.75 8.3 8.75 8.75C8.75 9.2 8.45 9.5 8 9.5C7.55 9.5 7.25 9.2 7.25 8.75C7.25 8.3 7.55 8 8 8ZM8 11C8.45 11 8.75 11.3 8.75 11.75C8.75 12.2 8.45 12.5 8 12.5C7.55 12.5 7.25 12.2 7.25 11.75C7.25 11.3 7.55 11 8 11ZM4.25 8C4.7 8 5 8.3 5 8.75C5 9.2 4.7 9.5 4.25 9.5C3.8 9.5 3.5 9.2 3.5 8.75C3.5 8.3 3.8 8 4.25 8ZM4.25 11C4.7 11 5 11.3 5 11.75C5 12.2 4.7 12.5 4.25 12.5C3.8 12.5 3.5 12.2 3.5 11.75C3.5 11.3 3.8 11 4.25 11Z" fill="#00425B"/>
</svg>
