<svg width="24" height="24" viewBox="0 0 24 24" fill="none" xmlns="http://www.w3.org/2000/svg">
<g clip-path="url(#clip0_584_9126)">
<path fill-rule="evenodd" clip-rule="evenodd" d="M14.82 3H19C20.1 3 21 3.9 21 5V13.083C20.6748 13.0284 20.3407 13 20 13C19.6593 13 19.3252 13.0284 19 13.083V5H5V19H14C14 19.7013 14.1203 20.3744 14.3414 21H5C3.9 21 3 20.1 3 19V5C3 3.9 3.9 3 5 3H9.18C9.6 1.84 10.7 1 12 1C13.3 1 14.4 1.84 14.82 3ZM21 15.3141V19C21 20.1 20.1 21 19 21H16.7469C16.3885 20.4184 16.1818 19.7333 16.1818 19H19V15.3141C19.3187 15.2278 19.654 15.1818 20 15.1818C20.346 15.1818 20.6813 15.2278 21 15.3141ZM16.4844 14.1373C15.1456 13.2811 13.2216 12.89 12 12.89C9.97 12.89 6 13.96 6 16.47V18H14.083C14.2034 17.2821 14.4513 16.6074 14.8027 16H8.31C9 15.44 10.69 14.88 12 14.88C12.9983 14.88 14.223 15.2052 15.0503 15.6078C15.4406 15.0393 15.9264 14.5415 16.4844 14.1373ZM16.3141 18C16.5604 17.0902 17.1345 16.3151 17.9019 15.8095C17.9657 16.0176 18 16.2376 18 16.47V18H16.3141ZM12.55 3C12.41 2.85 12.22 2.75 12 2.75C11.78 2.75 11.59 2.85 11.45 3C11.33 3.13 11.25 3.31 11.25 3.5C11.25 3.91 11.59 4.25 12 4.25C12.41 4.25 12.75 3.91 12.75 3.5C12.75 3.31 12.67 3.13 12.55 3ZM9 9C9 7.35 10.35 6 12 6C13.65 6 15 7.35 15 9C15 10.65 13.65 12 12 12C10.35 12 9 10.65 9 9ZM11 9C11 9.55 11.45 10 12 10C12.55 10 13 9.55 13 9C13 8.45 12.55 8 12 8C11.45 8 11 8.45 11 9Z" fill="#00425B"/>
<path d="M24 19C24 21.2091 22.2091 23 20 23C17.7909 23 16 21.2091 16 19C16 16.7909 17.7909 15 20 15C22.2091 15 24 16.7909 24 19Z" fill="#00425B"/>
</g>
<defs>
<clipPath id="clip0_584_9126">
<rect width="24" height="24" fill="white"/>
</clipPath>
</defs>
</svg>
