<svg width="40" height="40" viewBox="0 0 40 40" fill="none" xmlns="http://www.w3.org/2000/svg">
<rect x="0.5" y="0.5" width="39" height="39" rx="1.5" fill="white"/>
<path d="M12.5 19.6759C12.5049 19.8259 12.566 19.9981 12.6687 20.1064L15.9897 23.6558C16.2146 23.8599 16.645 23.9436 16.8969 23.7074C17.1439 23.4762 17.1366 23.0261 16.8896 22.7949L14.5542 20.3031H26.8764C27.2212 20.3031 27.5 20.0227 27.5 19.6759C27.5 19.3291 27.2212 19.0487 26.8764 19.0487H14.5566L16.892 16.5569C17.1048 16.343 17.1439 15.8781 16.8994 15.6444C16.6548 15.4107 16.2073 15.4845 15.9921 15.696L12.6687 19.2454C12.5538 19.3684 12.5 19.5111 12.5 19.6759Z" fill="#8C8C8C"/>
<rect x="0.5" y="0.5" width="39" height="39" rx="1.5" stroke="white"/>
</svg>
