<?xml version="1.0" encoding="UTF-8" standalone="no"?>
<svg
   xmlns:dc="http://purl.org/dc/elements/1.1/"
   xmlns:cc="http://creativecommons.org/ns#"
   xmlns:rdf="http://www.w3.org/1999/02/22-rdf-syntax-ns#"
   xmlns:svg="http://www.w3.org/2000/svg"
   xmlns="http://www.w3.org/2000/svg"
   xmlns:sodipodi="http://sodipodi.sourceforge.net/DTD/sodipodi-0.dtd"
   xmlns:inkscape="http://www.inkscape.org/namespaces/inkscape"
   version="1.1"
   id="Capa_1"
   x="0px"
   y="0px"
   viewBox="0 0 18 18.000001"
   xml:space="preserve"
   sodipodi:docname="borrar_filtrosNew.svg"
   width="18"
   height="18"
   inkscape:version="1.0.1 (3bc2e813f5, 2020-09-07)"><metadata
   id="metadata38"><rdf:RDF><cc:Work
       rdf:about=""><dc:format>image/svg+xml</dc:format><dc:type
         rdf:resource="http://purl.org/dc/dcmitype/StillImage" /><dc:title></dc:title></cc:Work></rdf:RDF></metadata><defs
   id="defs36" /><sodipodi:namedview
   pagecolor="#ffffff"
   bordercolor="#666666"
   borderopacity="1"
   objecttolerance="10"
   gridtolerance="10"
   guidetolerance="10"
   inkscape:pageopacity="0"
   inkscape:pageshadow="2"
   inkscape:window-width="2277"
   inkscape:window-height="1253"
   id="namedview34"
   showgrid="false"
   inkscape:zoom="13.880071"
   inkscape:cx="28.35"
   inkscape:cy="32.6"
   inkscape:window-x="0"
   inkscape:window-y="0"
   inkscape:window-maximized="0"
   inkscape:current-layer="Capa_1" />
<style
   type="text/css"
   id="style25">
	.st0{fill:#020303;}
	.st1{fill:#E52620;}
</style>
<g
   id="g31"
   transform="matrix(0.27365558,0,0,0.25487654,1.3933933,1.1823311)">
	<path
   class="st0"
   d="m 31.3,37.2 c 3.4,-2.7 7.1,-3.6 11,-3.2 3.9,0.4 6.9,2 9.6,4.8 3,3.4 4.1,7.3 3.7,11.7 -0.2,3 -1.4,5.7 -3.4,8.2 -1.2,1.6 -2.8,2.7 -4.6,3.7 -2.7,1.4 -5.5,1.8 -8.5,1.6 -3.9,-0.4 -7.1,-2 -9.6,-4.8 -0.7,-0.7 -1.2,-1.6 -2,-2.5 -0.2,-0.2 -0.4,-0.4 -0.5,-0.5 -0.5,-0.5 -1.2,-0.9 -2,-1.4 -1.8,-1.8 -3.6,-3.6 -5.3,-5.3 -0.9,-0.9 -1.2,-1.8 -1.1,-2.8 0,-5.9 0,-11.7 0,-17.4 0,-0.2 -0.2,-0.5 -0.2,-0.7 C 12.6,21.1 6.9,13.6 1.1,6.3 0.2,5.3 0,4.2 0.5,3 1,1.8 2.1,1.2 3.5,1.2 c 14.2,0 28.2,0 42.5,0 1.4,0 2.5,0.5 3,1.8 0.5,1.3 0.4,2.3 -0.5,3.6 -5.9,7.4 -11.6,14.7 -17.4,22.1 -0.2,0.2 -0.2,0.4 -0.2,0.5 0.4,2.4 0.4,5 0.4,8 z m 9.4,25.6 c 7.6,0 14,-6.2 14,-13.9 0,-7.7 -6.2,-14 -13.9,-14 -7.7,0 -14,6.2 -14,13.9 0,7.8 6.2,14 13.9,14 z"
   id="path27" />
	<path
   class="st1"
   d="m 40.8,45.6 c 2.3,-2.3 4.4,-4.6 6.6,-6.8 1.2,1.2 2.3,2.3 3.6,3.6 -2.1,2.1 -4.4,4.3 -6.8,6.6 2.3,2.3 4.6,4.6 6.9,6.8 -1.2,1.2 -2.3,2.3 -3.6,3.6 -2.1,-2.1 -4.4,-4.4 -6.8,-6.8 -2.3,2.3 -4.6,4.6 -6.8,6.8 -1.2,-1.2 -2.3,-2.3 -3.4,-3.4 2.1,-2.1 4.4,-4.4 6.8,-6.8 -2.3,-2.3 -4.6,-4.4 -6.8,-6.8 1.2,-1.2 2.3,-2.3 3.6,-3.6 2.1,2.2 4.4,4.5 6.7,6.8 z"
   id="path29" />
</g>
</svg>
