<?xml version="1.0" encoding="utf-8"?>
<!-- Generator: Adobe Illustrator 24.0.2, SVG Export Plug-In . SVG Version: 6.00 Build 0)  -->
<svg version="1.1" id="Capa_1" xmlns="http://www.w3.org/2000/svg" xmlns:xlink="http://www.w3.org/1999/xlink" x="0px" y="0px"
	 viewBox="0 0 56.7 65.2" style="enable-background:new 0 0 56.7 65.2;" xml:space="preserve">
<style type="text/css">
	.st0{fill:#020303;}
	.st1{fill:#E52620;}
</style>
<g>
	<path class="st0" d="M31.3,37.2c3.4-2.7,7.1-3.6,11-3.2s6.9,2,9.6,4.8c3,3.4,4.1,7.3,3.7,11.7c-0.2,3-1.4,5.7-3.4,8.2
		c-1.2,1.6-2.8,2.7-4.6,3.7c-2.7,1.4-5.5,1.8-8.5,1.6c-3.9-0.4-7.1-2-9.6-4.8c-0.7-0.7-1.2-1.6-2-2.5c-0.2-0.2-0.4-0.4-0.5-0.5
		c-0.5-0.5-1.2-0.9-2-1.4c-1.8-1.8-3.6-3.6-5.3-5.3c-0.9-0.9-1.2-1.8-1.1-2.8c0-5.9,0-11.7,0-17.4c0-0.2-0.2-0.5-0.2-0.7
		C12.6,21.1,6.9,13.6,1.1,6.3C0.2,5.3,0,4.2,0.5,3c0.5-1.2,1.6-1.8,3-1.8c14.2,0,28.2,0,42.5,0c1.4,0,2.5,0.5,3,1.8s0.4,2.3-0.5,3.6
		C42.6,14,36.9,21.3,31.1,28.7c-0.2,0.2-0.2,0.4-0.2,0.5C31.3,31.6,31.3,34.2,31.3,37.2z M40.7,62.8c7.6,0,14-6.2,14-13.9
		s-6.2-14-13.9-14s-14,6.2-14,13.9C26.8,56.6,33,62.8,40.7,62.8z"/>
	<path class="st1" d="M40.8,45.6c2.3-2.3,4.4-4.6,6.6-6.8c1.2,1.2,2.3,2.3,3.6,3.6c-2.1,2.1-4.4,4.3-6.8,6.6
		c2.3,2.3,4.6,4.6,6.9,6.8c-1.2,1.2-2.3,2.3-3.6,3.6c-2.1-2.1-4.4-4.4-6.8-6.8c-2.3,2.3-4.6,4.6-6.8,6.8c-1.2-1.2-2.3-2.3-3.4-3.4
		c2.1-2.1,4.4-4.4,6.8-6.8c-2.3-2.3-4.6-4.4-6.8-6.8c1.2-1.2,2.3-2.3,3.6-3.6C36.2,41,38.5,43.3,40.8,45.6z"/>
</g>
</svg>
