<svg xmlns="http://www.w3.org/2000/svg" width="33.828" height="33.828" viewBox="0 0 33.828 33.828"><defs><style>.a{fill:#707070;}</style></defs><g transform="translate(0)"><path class="a" d="M29.6,4.228H28.19V1.409A1.41,1.41,0,0,0,26.78,0H25.371a1.41,1.41,0,0,0-1.409,1.409V4.228H9.866V1.409A1.41,1.41,0,0,0,8.457,0H7.048a1.41,1.41,0,0,0-1.41,1.409V4.228H4.229A4.234,4.234,0,0,0,0,8.457V29.6a4.234,4.234,0,0,0,4.228,4.228H29.6A4.234,4.234,0,0,0,33.828,29.6V8.457A4.234,4.234,0,0,0,29.6,4.228ZM31.009,29.6A1.412,1.412,0,0,1,29.6,31.008H4.229A1.412,1.412,0,0,1,2.819,29.6V14.151H31.009Zm0,0"/></g></svg>