<?xml version="1.0" standalone="no"?>
<!DOCTYPE svg PUBLIC "-//W3C//DTD SVG 20010904//EN"
 "http://www.w3.org/TR/2001/REC-SVG-20010904/DTD/svg10.dtd">
<svg version="1.0" xmlns="http://www.w3.org/2000/svg"
 width="512.000000pt" height="512.000000pt" viewBox="0 0 512.000000 512.000000"
 preserveAspectRatio="xMidYMid meet">

<g transform="translate(0.000000,512.000000) scale(0.100000,-0.100000)"
fill="#00425B" stroke="none">
<path d="M1925 5114 c-174 -38 -286 -120 -351 -258 -41 -85 -53 -169 -54 -353
l0 -133 105 0 105 0 0 166 c0 100 5 183 12 206 17 57 88 133 146 155 44 17 91
18 672 18 613 0 626 0 670 -21 58 -27 108 -77 134 -134 17 -38 21 -71 24 -217
l4 -173 100 0 101 0 -6 188 c-7 232 -20 280 -105 388 -47 60 -131 119 -209
147 -57 21 -73 22 -693 23 -349 1 -644 0 -655 -2z"/>
<path d="M742 4234 c-155 -77 -182 -290 -52 -408 78 -70 -46 -66 1865 -66
1945 0 1791 -6 1876 79 34 33 51 61 63 100 20 67 20 84 1 147 -19 66 -67 121
-129 150 l-51 24 -1761 0 -1760 0 -52 -26z"/>
<path d="M962 1953 l3 -1608 23 -60 c45 -121 131 -212 244 -258 l53 -22 1239
-3 c813 -1 1258 1 1295 8 144 27 262 140 311 298 20 63 20 96 20 1658 l0 1594
-1595 0 -1595 0 2 -1607z m898 1212 c16 -8 34 -24 40 -34 7 -13 10 -422 10
-1241 0 -1353 5 -1257 -65 -1280 -26 -9 -41 -8 -70 4 -69 29 -65 -47 -65 1278
0 1116 1 1195 18 1228 28 56 78 73 132 45z m757 -7 c44 -36 43 -17 43 -1268 0
-1323 4 -1247 -65 -1276 -29 -12 -44 -13 -70 -4 -70 23 -65 -73 -65 1280 0
815 3 1228 10 1240 25 46 107 61 147 28z m752 -13 l26 -25 0 -1229 0 -1229
-24 -26 c-13 -14 -36 -28 -52 -31 -37 -8 -93 18 -108 51 -8 18 -11 353 -11
1242 0 1138 2 1218 18 1238 41 51 106 55 151 9z"/>
</g>
</svg>
