<svg width="24" height="24" viewBox="0 0 24 24" fill="none" xmlns="http://www.w3.org/2000/svg">
<path d="M4.5 21C4.1 21 3.75 20.85 3.45 20.55C3.15 20.25 3 19.9 3 19.5V6.425C3 6.175 3.025 5.9625 3.075 5.7875C3.125 5.6125 3.21667 5.45 3.35 5.3L4.75 3.4C4.88333 3.25 5.0375 3.14583 5.2125 3.0875C5.3875 3.02917 5.59167 3 5.825 3H18.175C18.4083 3 18.6083 3.02917 18.775 3.0875C18.9417 3.14583 19.0917 3.25 19.225 3.4L20.65 5.3C20.7833 5.45 20.875 5.6125 20.925 5.7875C20.975 5.9625 21 6.175 21 6.425V19.5C21 19.9 20.85 20.25 20.55 20.55C20.25 20.85 19.9 21 19.5 21H4.5ZM4.925 5.65H19.05L18.15 4.5H5.825L4.925 5.65ZM11.25 17.25H12.75V12.225L14.9 14.375L15.9 13.375L12 9.475L8.1 13.375L9.1 14.375L11.25 12.225V17.25Z" fill="#00425B"/>
</svg>
