<svg width="18" height="16" viewBox="0 0 18 16" fill="none" xmlns="http://www.w3.org/2000/svg">
<path d="M6.73437 8C6.73437 8.55115 6.96483 9.07973 7.37507 9.46946C7.78531 9.85918 8.3417 10.0781 8.92187 10.0781C9.50203 10.0781 10.0584 9.85918 10.4687 9.46946C10.8789 9.07973 11.1094 8.55115 11.1094 8C11.1094 7.44885 10.8789 6.92027 10.4687 6.53054C10.0584 6.14082 9.50203 5.92188 8.92187 5.92188C8.3417 5.92188 7.78531 6.14082 7.37507 6.53054C6.96483 6.92027 6.73437 7.44885 6.73437 8ZM17.4023 7.52129C15.5508 3.81592 12.7519 1.95117 8.99999 1.95117C5.24608 1.95117 2.44921 3.81592 0.597647 7.52314C0.52338 7.67254 0.484863 7.83571 0.484863 8.00093C0.484863 8.16615 0.52338 8.32931 0.597647 8.47871C2.44921 12.1841 5.24804 14.0488 8.99999 14.0488C12.7539 14.0488 15.5508 12.1841 17.4023 8.47686C17.5527 8.17627 17.5527 7.82744 17.4023 7.52129ZM8.92187 11.2656C7.02343 11.2656 5.48437 9.80352 5.48437 8C5.48437 6.19648 7.02343 4.73438 8.92187 4.73438C10.8203 4.73438 12.3594 6.19648 12.3594 8C12.3594 9.80352 10.8203 11.2656 8.92187 11.2656Z" fill="#00425B"/>
</svg>
