<svg width="180" height="180" viewBox="0 0 180 180" fill="none" xmlns="http://www.w3.org/2000/svg">
<circle cx="90" cy="90" r="90" fill="#EFF0F5"/>
<rect x="38.9048" y="54.8066" width="102.19" height="80.6365" rx="4" fill="#C2C9CF"/>
<path d="M45.3862 48.6274L46.8934 68.5226H132.202L129.941 44.5576L45.3862 48.6274Z" fill="white"/>
<path d="M38.9048 58.3605C38.9048 57.9796 39.2136 57.6708 39.5944 57.6708H68.3754C68.9806 57.6708 69.5415 57.9881 69.8532 58.5068L72.1642 62.3521C72.476 62.8708 73.0368 63.188 73.642 63.188H140.405C140.786 63.188 141.095 63.4968 141.095 63.8777V133.719C141.095 134.672 140.323 135.444 139.371 135.444H40.6289C39.6767 135.444 38.9048 134.672 38.9048 133.719V58.3605Z" fill="#828E95" fill-opacity="0.15"/>
<path d="M38.9048 63.7865C38.9048 63.4056 39.2136 63.0968 39.5944 63.0968L65.6216 63.0967C66.2486 63.0967 66.8263 63.4371 67.13 63.9857L69.0093 67.3801C69.313 67.9287 69.8906 68.2692 70.5177 68.2692L140.405 68.2692C140.786 68.2692 141.095 68.578 141.095 68.9589V133.719C141.095 134.672 140.323 135.443 139.371 135.443H40.6289C39.6767 135.443 38.9048 134.672 38.9048 133.719V63.7865Z" fill="#D3D9DD"/>
</svg>
