<svg width="16" height="21" viewBox="0 0 16 21" fill="none" xmlns="http://www.w3.org/2000/svg">
<path d="M10 0.470703H2C0.9 0.470703 0.0100002 1.3707 0.0100002 2.4707L0 18.4707C0 19.5707 0.89 20.4707 1.99 20.4707H14C15.1 20.4707 16 19.5707 16 18.4707V6.4707L10 0.470703ZM12 16.4707H4V14.4707H12V16.4707ZM12 12.4707H4V10.4707H12V12.4707ZM9 7.4707V1.9707L14.5 7.4707H9Z" fill="#8C8C8C"/>
<path d="M10 0.470703H2C0.9 0.470703 0.0100002 1.3707 0.0100002 2.4707L0 18.4707C0 19.5707 0.89 20.4707 1.99 20.4707H14C15.1 20.4707 16 19.5707 16 18.4707V6.4707L10 0.470703ZM12 16.4707H4V14.4707H12V16.4707ZM12 12.4707H4V10.4707H12V12.4707ZM9 7.4707V1.9707L14.5 7.4707H9Z" fill="black" fill-opacity="0.2"/>
</svg>
