<svg width="15" height="16" viewBox="0 0 15 16" fill="none" xmlns="http://www.w3.org/2000/svg">
<path d="M10.1771 1.43985C10.1771 1.18075 9.96703 0.970703 9.70792 0.970703H5.02122C4.76212 0.970703 4.55207 1.18075 4.55207 1.43985C4.55207 1.69896 4.34202 1.90901 4.08292 1.90901H1.27081C0.753046 1.90901 0.333313 2.32874 0.333313 2.84651C0.333313 3.36427 0.753046 3.78401 1.27081 3.78401H13.4583C13.9761 3.78401 14.3958 3.36427 14.3958 2.84651C14.3958 2.32874 13.9761 1.90901 13.4583 1.90901H10.6462C10.3871 1.90901 10.1771 1.69896 10.1771 1.43985Z" fill="#8C8C8C"/>
<path d="M10.1771 1.43985C10.1771 1.18075 9.96703 0.970703 9.70792 0.970703H5.02122C4.76212 0.970703 4.55207 1.18075 4.55207 1.43985C4.55207 1.69896 4.34202 1.90901 4.08292 1.90901H1.27081C0.753046 1.90901 0.333313 2.32874 0.333313 2.84651C0.333313 3.36427 0.753046 3.78401 1.27081 3.78401H13.4583C13.9761 3.78401 14.3958 3.36427 14.3958 2.84651C14.3958 2.32874 13.9761 1.90901 13.4583 1.90901H10.6462C10.3871 1.90901 10.1771 1.69896 10.1771 1.43985Z" fill="black" fill-opacity="0.2"/>
<path d="M1.73871 14.0957C1.73871 15.1307 2.57868 15.9707 3.61371 15.9707H11.1137C12.1487 15.9707 12.9887 15.1307 12.9887 14.0957V4.7207H1.73871V14.0957Z" fill="#8C8C8C"/>
<path d="M1.73871 14.0957C1.73871 15.1307 2.57868 15.9707 3.61371 15.9707H11.1137C12.1487 15.9707 12.9887 15.1307 12.9887 14.0957V4.7207H1.73871V14.0957Z" fill="black" fill-opacity="0.2"/>
</svg>
