<svg width="24" height="24" viewBox="0 0 24 24" fill="none" xmlns="http://www.w3.org/2000/svg">
<path d="M19.1579 5H9.89474C9.43158 5 9.05263 5.37895 9.05263 5.84211C9.05263 6.30526 9.43158 6.68421 9.89474 6.68421H19.1579C19.6211 6.68421 20 6.30526 20 5.84211C20 5.37895 19.6211 5 19.1579 5Z" fill="black"/>
<path d="M19.1579 10.8947H9.89474C9.43158 10.8947 9.05263 11.2737 9.05263 11.7368C9.05263 12.2 9.43158 12.5789 9.89474 12.5789H19.1579C19.6211 12.5789 20 12.2 20 11.7368C20 11.2737 19.6211 10.8947 19.1579 10.8947Z" fill="black"/>
<path d="M19.1579 16.7895H9.89474C9.43158 16.7895 9.05263 17.1684 9.05263 17.6316C9.05263 18.0947 9.43158 18.4737 9.89474 18.4737H19.1579C19.6211 18.4737 20 18.0947 20 17.6316C20 17.1684 19.6211 16.7895 19.1579 16.7895Z" fill="black"/>
<path d="M5.68421 5H4.84211C4.37895 5 4 5.37895 4 5.84211C4 6.30526 4.37895 6.68421 4.84211 6.68421H5.68421C6.14737 6.68421 6.52632 6.30526 6.52632 5.84211C6.52632 5.37895 6.14737 5 5.68421 5Z" fill="black"/>
<path d="M5.68421 10.8947H4.84211C4.37895 10.8947 4 11.2737 4 11.7368C4 12.2 4.37895 12.5789 4.84211 12.5789H5.68421C6.14737 12.5789 6.52632 12.2 6.52632 11.7368C6.52632 11.2737 6.14737 10.8947 5.68421 10.8947Z" fill="black"/>
<path d="M5.68421 16.7895H4.84211C4.37895 16.7895 4 17.1684 4 17.6316C4 18.0947 4.37895 18.4737 4.84211 18.4737H5.68421C6.14737 18.4737 6.52632 18.0947 6.52632 17.6316C6.52632 17.1684 6.14737 16.7895 5.68421 16.7895Z" fill="black"/>
</svg>
