<svg width="16" height="16" viewBox="0 0 16 16" fill="none" xmlns="http://www.w3.org/2000/svg">
<path d="M1.80763 0.791099C1.52692 0.51039 1.07181 0.510389 0.791099 0.791095C0.51039 1.0718 0.510389 1.52692 0.791095 1.80763L6.41781 7.43439C6.73023 7.7468 6.73023 8.25333 6.41781 8.56575L0.791199 14.1924C0.510494 14.4732 0.510496 14.9283 0.791205 15.209C1.07191 15.4897 1.52703 15.4897 1.80774 15.209L7.43433 9.5823C7.74675 9.26987 8.25328 9.26987 8.56571 9.58229L14.1923 15.209C14.4731 15.4897 14.9282 15.4897 15.2089 15.209C15.4896 14.9283 15.4896 14.4732 15.2089 14.1925L9.58222 8.56574C9.2698 8.25333 9.2698 7.7468 9.58221 7.43438L15.2089 1.80763C15.4896 1.52692 15.4896 1.0718 15.2089 0.791096C14.9282 0.510391 14.4731 0.510394 14.1923 0.791103L8.5657 6.41783C8.25328 6.73026 7.74674 6.73026 7.43432 6.41783L1.80763 0.791099Z" fill="black"/>
</svg>
