<svg width="18" height="18" viewBox="0 0 18 18" fill="none" xmlns="http://www.w3.org/2000/svg">
<path d="M14.75 14.6953H3.25C2.97344 14.6953 2.75 14.9467 2.75 15.2578V15.8906C2.75 15.968 2.80625 16.0312 2.875 16.0312H15.125C15.1938 16.0312 15.25 15.968 15.25 15.8906V15.2578C15.25 14.9467 15.0266 14.6953 14.75 14.6953ZM5.02656 13.2188C5.05781 13.2188 5.08906 13.2152 5.12031 13.21L7.74844 12.6914C7.77969 12.6844 7.80938 12.6686 7.83125 12.6422L14.4547 5.19082C14.4692 5.17456 14.4807 5.15524 14.4885 5.13398C14.4963 5.11271 14.5004 5.08992 14.5004 5.06689C14.5004 5.04387 14.4963 5.02108 14.4885 4.99981C14.4807 4.97855 14.4692 4.95923 14.4547 4.94297L11.8578 2.01973C11.8281 1.98633 11.7891 1.96875 11.7469 1.96875C11.7047 1.96875 11.6656 1.98633 11.6359 2.01973L5.0125 9.47109C4.98906 9.49746 4.975 9.5291 4.96875 9.56426L4.50781 12.5209C4.49261 12.6151 4.49804 12.712 4.52364 12.8033C4.54923 12.8945 4.59421 12.9774 4.65469 13.0447C4.75781 13.1572 4.8875 13.2188 5.02656 13.2188Z" fill="#00425B"/>
</svg>
