<?xml version="1.0" encoding="utf-8"?>
<!-- Generator: Adobe Illustrator 23.1.1, SVG Export Plug-In . SVG Version: 6.00 Build 0)  -->
<svg version="1.1" id="Capa_1" xmlns="http://www.w3.org/2000/svg" xmlns:xlink="http://www.w3.org/1999/xlink" x="0px" y="0px"
	 viewBox="0 0 560 288" style="enable-background:new 0 0 560 288;" xml:space="preserve">
<style type="text/css">
	.st0{opacity:0.6;}
	.st1{fill:#A5A8A9;}
	.st2{fill:url(#Trazado_5_1_);}
	.st3{fill:#BBBDBC;}
	.st4{fill:url(#Trazado_10_1_);}
	.st5{fill:#696D6D;}
</style>
<g id="LogoPreving_1_" transform="translate(-8.226 -2.7)">
	<g id="Grupo_31" transform="translate(51.377 47.525)" class="st0">
		<g id="Grupo_30">
			<path id="Trazado_4" class="st1" d="M259.48,126.12c-21.53,24.15-70.32,19.52-89.07,9.74c-43.58-22.72-30.41-49.21-5.03-62.35
				c-69.54,17.75-52.79,61.29-13.12,77.38C189.05,165.83,245.24,158.8,259.48,126.12"/>
		</g>
	</g>
	
		<linearGradient id="Trazado_5_1_" gradientUnits="userSpaceOnUse" x1="10.0539" y1="288.5366" x2="11.0539" y2="288.5366" gradientTransform="matrix(141.6188 0 0 -84.858 -1247.4987 24638.4141)">
		<stop  offset="0" style="stop-color:#FCB440"/>
		<stop  offset="0.322" style="stop-color:#FAA430"/>
		<stop  offset="0.733" style="stop-color:#F79422"/>
		<stop  offset="1" style="stop-color:#F78E1E"/>
	</linearGradient>
	<path id="Trazado_5" class="st2" d="M317.94,163.97c-21.53,24.15-70.32,19.52-89.07,9.74c-43.58-22.72-30.42-49.21-5.03-62.35
		c-69.54,17.75-52.78,61.29-13.12,77.38C247.51,203.67,303.7,196.65,317.94,163.97"/>
	<path id="Trazado_6" class="st3" d="M372.35,122.95c-2.78,0.14-5.5-0.78-7.62-2.58c-3.81-3.77-3.83-9.91-0.06-13.72
		c0.02-0.02,0.03-0.03,0.05-0.05c1.9-1.67,4.53-2.5,7.89-2.51c2.53-0.12,5.03,0.55,7.16,1.93c1.6,1.09,2.66,2.82,2.9,4.74h-4.88
		c-0.32-0.83-0.88-1.54-1.6-2.05c-1.07-0.67-2.32-1-3.58-0.93c-1.57-0.1-3.11,0.45-4.28,1.51c-2.04,2.45-2.04,6,0,8.45
		c1.16,1.06,2.71,1.61,4.28,1.51c1.26,0.05,2.5-0.28,3.57-0.94c0.74-0.5,1.33-1.19,1.69-2.01h-4.07v-3.57h8.83v9.75h-3.39
		l-0.26-2.02c-0.66,0.68-1.43,1.24-2.28,1.66C375.32,122.71,373.84,122.99,372.35,122.95 M390.34,122.47h-4.14v-13.36h4.14v1.76
		c0.43-0.55,0.92-1.04,1.48-1.46c0.75-0.52,1.65-0.79,2.57-0.78c0.17,0,0.35,0.01,0.53,0.03c0.21,0.02,0.42,0.04,0.63,0.07v3.53
		c-0.19-0.02-0.33-0.03-0.4-0.04c-0.16-0.01-0.46-0.01-0.91-0.01c-1.08-0.06-2.13,0.35-2.87,1.13c-0.73,0.88-1.1,2.01-1.02,3.16
		L390.34,122.47L390.34,122.47z M402.91,122.8c-2.02,0-3.48-0.49-4.36-1.46c-0.9-0.99-1.35-2.61-1.34-4.87v-7.36h4.14v6.48
		c-0.09,1.04,0.14,2.09,0.65,3c0.56,0.64,1.4,0.97,2.26,0.89c1.05,0.07,2.07-0.28,2.86-0.98c0.71-0.75,1.08-1.76,1.01-2.79v-6.6
		h4.14v13.37h-4.14v-2.01c-0.53,0.6-1.14,1.12-1.82,1.55C405.27,122.56,404.1,122.84,402.91,122.8 M423.72,111.99
		c-1.06-0.06-2.1,0.3-2.88,1.01c-0.72,0.75-1.1,1.76-1.04,2.8c-0.06,1.03,0.32,2.04,1.04,2.77c1.69,1.35,4.08,1.36,5.77,0.01
		c0.72-0.75,1.1-1.77,1.03-2.81c0.06-1.04-0.32-2.05-1.04-2.79C425.81,112.28,424.77,111.92,423.72,111.99 M419.79,127.18h-4.11
		v-18.07h4.11v1.34c0.45-0.48,1-0.86,1.6-1.12c2.92-1.09,6.2-0.59,8.66,1.33c2.73,2.88,2.72,7.4-0.02,10.27
		c-1.55,1.33-3.55,2.01-5.58,1.9c-1.06,0.03-2.11-0.16-3.09-0.58c-0.59-0.29-1.12-0.68-1.58-1.16L419.79,127.18z M442.17,111.91
		c-1.07-0.06-2.12,0.31-2.91,1.04c-1.42,1.63-1.42,4.06-0.01,5.69c0.79,0.72,1.85,1.09,2.92,1.03c1.07,0.06,2.11-0.32,2.89-1.04
		c1.4-1.64,1.41-4.05,0.01-5.69C444.29,112.22,443.24,111.85,442.17,111.91 M442.17,122.94c-2.24,0.14-4.45-0.53-6.23-1.89
		c-2.92-2.85-2.98-7.52-0.13-10.44c0.04-0.04,0.08-0.08,0.11-0.12c3.78-2.5,8.68-2.5,12.46,0c2.91,2.86,2.96,7.54,0.1,10.45
		c-0.03,0.03-0.06,0.07-0.1,0.1C446.61,122.4,444.41,123.07,442.17,122.94"/>
	<path id="Trazado_7" class="st3" d="M258.24,124.42c-2.45-2.26-5.92-3.39-10.41-3.39h-22.56v38.08h9.55v-12.17h13.01
		c4.52,0,8-1.12,10.43-3.38c2.43-2.23,3.65-5.42,3.65-9.55C261.92,129.88,260.69,126.69,258.24,124.42z M250.26,138.27
		c-1.33,0.83-3.56,1.24-6.69,1.24h-8.75v-10.67h9.38c2.99,0,5.08,0.4,6.27,1.19c1.19,0.79,1.79,2.17,1.79,4.14
		C252.4,135.8,251.63,137.37,250.26,138.27z"/>
	<path id="Trazado_8" class="st3" d="M275.74,159.12h-8.81V130.7h8.81v3.75c0.91-1.17,1.96-2.22,3.14-3.11
		c1.61-1.11,3.52-1.69,5.47-1.65c0.37,0,0.75,0.02,1.12,0.05c0.45,0.04,0.9,0.1,1.35,0.15v7.5c-0.41-0.03-0.69-0.06-0.85-0.08
		c-0.34-0.02-0.98-0.03-1.93-0.03c-2.29-0.13-4.52,0.74-6.1,2.4c-1.56,1.88-2.34,4.28-2.19,6.72L275.74,159.12z"/>
	<path id="Trazado_9" class="st3" d="M310.26,152.71c-1.41,0.91-3.06,1.36-4.74,1.28c-1.92,0.12-3.8-0.54-5.23-1.83
		c-1.28-1.33-1.98-3.12-1.92-4.97h24.25c0-5.87-1.42-10.25-4.26-13.16c-2.84-2.91-7.12-4.36-12.84-4.35
		c-5.37,0-9.56,1.34-12.56,4.01c-3,2.67-4.51,6.4-4.51,11.19c0,4.77,1.51,8.51,4.54,11.2c3,2.7,7.18,4.04,12.53,4.04
		c4.72,0,8.54-1.05,11.46-3.16c2.41-1.76,4.2-4.23,5.15-7.06h-9.71C311.99,151.03,311.24,152.01,310.26,152.71z M300.61,137.21
		c3.07-2.12,7.14-2.13,10.22-0.02c1.2,1.05,1.92,2.53,2,4.12l-14.21-0.03C298.69,139.71,299.41,138.23,300.61,137.21L300.61,137.21z
		"/>
	
		<linearGradient id="Trazado_10_1_" gradientUnits="userSpaceOnUse" x1="9.3381" y1="289.1234" x2="10.3381" y2="289.1234" gradientTransform="matrix(232.77 0 0 -108.8377 -2047.5396 31598.1445)">
		<stop  offset="0" style="stop-color:#6EA1D6"/>
		<stop  offset="0.022" style="stop-color:#679DD0"/>
		<stop  offset="0.282" style="stop-color:#1882AB"/>
		<stop  offset="0.518" style="stop-color:#006A8C"/>
		<stop  offset="0.725" style="stop-color:#005876"/>
		<stop  offset="0.892" style="stop-color:#004D68"/>
		<stop  offset="1" style="stop-color:#004963"/>
	</linearGradient>
	<path id="Trazado_10" class="st4" d="M192.01,86.67c-66.31,25.41-82.78,69.03-48.58,97.3c-19.91-18.53-24.78-60.49,48.58-78.65
		c109.45-20.69,166.73,46.55,126.76,79.73C425.99,112.79,295.49,50.85,192.01,86.67z M336.63,159.12l-13.28-28.43H333l7.75,18.56
		l8.5-18.56h9.53l-13.85,28.43H336.63L336.63,159.12z"/>
	<rect id="Rectángulo_9" x="361.93" y="130.7" class="st3" width="8.75" height="28.43"/>
	<rect id="Rectángulo_10" x="361.57" y="125.62" class="st3" width="8.83" height="3.44"/>
	<path id="Trazado_11" class="st3" d="M410.46,159.12h-8.81v-13.78c0-3.06-0.47-5.2-1.39-6.45s-2.51-1.87-4.76-1.87
		c-2.23-0.14-4.42,0.62-6.08,2.11c-1.52,1.6-2.3,3.75-2.16,5.95v14.03h-8.81V130.7h8.81v4.28c1.14-1.29,2.46-2.41,3.91-3.33
		c2.2-1.19,4.67-1.77,7.16-1.7c4.29,0,7.39,1.05,9.28,3.14s2.85,5.55,2.84,10.38V159.12L410.46,159.12z"/>
	<path id="Trazado_12" class="st3" d="M441.85,130.7v2.58c-0.97-0.95-2.1-1.72-3.35-2.27c-2.13-0.81-4.39-1.18-6.67-1.11
		c-4.9,0-8.82,1.27-11.75,3.8c-5.65,5.4-5.85,14.35-0.46,20c0.15,0.16,0.3,0.31,0.46,0.46c2.9,2.51,6.87,3.76,11.9,3.76
		c2.24,0.07,4.48-0.31,6.56-1.14c1.23-0.56,2.35-1.34,3.3-2.29v1.91c0,2.35-0.65,4.02-1.94,4.99s-3.49,1.47-6.58,1.47
		c-1.65,0.1-3.29-0.21-4.79-0.89c-1.01-0.5-1.64-1.56-1.6-2.69h-8.81c-0.19,2.97,1.24,5.81,3.73,7.44
		c2.47,1.61,6.28,2.42,11.41,2.42c1.52,0.01,3.03-0.08,4.54-0.26c1.28-0.18,2.55-0.45,3.8-0.8c3.06-0.93,5.23-2.22,6.52-3.9
		c1.68-2.16,2.52-5.54,2.53-10.14V130.7L441.85,130.7L441.85,130.7z M439.63,149.49c-3.62,2.71-8.6,2.72-12.23,0.03
		c-2.95-3.14-2.95-8.03,0-11.17c3.64-2.69,8.6-2.69,12.23,0.01C442.58,141.48,442.58,146.37,439.63,149.49L439.63,149.49z"/>
	<g id="Grupo_32" transform="translate(221.154 98.596)">
		<path id="Trazado_13" class="st5" d="M129.6,78.34c-0.03,0.25-0.02,0.51,0.02,0.76c0.03,0.24,0.13,0.46,0.28,0.65
			c0.18,0.21,0.41,0.37,0.67,0.46c0.38,0.13,0.79,0.19,1.2,0.17c0.45,0.02,0.9-0.05,1.33-0.2c0.26-0.1,0.49-0.28,0.65-0.51
			c0.13-0.21,0.21-0.44,0.22-0.69c0.01-0.25,0.02-0.5,0.02-0.75v-4.72h0.62v4.88c0,0.14,0,0.29-0.01,0.46
			c-0.01,0.18-0.04,0.35-0.09,0.52c-0.05,0.18-0.14,0.35-0.24,0.51c-0.12,0.18-0.29,0.33-0.47,0.44c-0.24,0.14-0.51,0.25-0.79,0.31
			c-0.39,0.09-0.78,0.13-1.18,0.12c-0.54,0.02-1.08-0.06-1.6-0.23c-0.33-0.11-0.63-0.32-0.86-0.59c-0.18-0.23-0.3-0.5-0.34-0.78
			c-0.04-0.27-0.06-0.55-0.06-0.82L129.6,78.34z"/>
		<path id="Trazado_14" class="st5" d="M142.05,80.59h-0.54V79.5h-0.03c-0.1,0.2-0.23,0.37-0.4,0.51c-0.18,0.15-0.39,0.28-0.61,0.38
			c-0.24,0.11-0.5,0.19-0.76,0.24c-0.28,0.05-0.56,0.08-0.84,0.08c-0.36,0.01-0.73-0.03-1.08-0.11c-0.26-0.06-0.5-0.15-0.73-0.29
			c-0.17-0.1-0.32-0.24-0.45-0.4c-0.1-0.14-0.18-0.29-0.23-0.45c-0.05-0.14-0.07-0.29-0.09-0.44c-0.01-0.14-0.02-0.27-0.02-0.37
			V75.5h0.54v3.22c0,0.16,0.02,0.32,0.04,0.48c0.03,0.2,0.12,0.39,0.25,0.54c0.17,0.2,0.38,0.35,0.62,0.45
			c0.37,0.14,0.77,0.21,1.16,0.19c0.37,0.01,0.74-0.05,1.1-0.16c0.3-0.09,0.58-0.24,0.83-0.44c0.22-0.18,0.4-0.41,0.52-0.67
			c0.12-0.27,0.18-0.56,0.18-0.86V75.5h0.54L142.05,80.59L142.05,80.59z"/>
		<path id="Trazado_15" class="st5" d="M143.64,75.5h0.54v1.09h0.03c0.1-0.2,0.23-0.37,0.4-0.51c0.18-0.16,0.39-0.28,0.61-0.38
			c0.24-0.11,0.5-0.19,0.76-0.24c0.28-0.05,0.55-0.08,0.84-0.08c0.36-0.01,0.73,0.03,1.08,0.11c0.26,0.06,0.5,0.15,0.73,0.29
			c0.17,0.1,0.32,0.24,0.45,0.4c0.1,0.14,0.18,0.29,0.23,0.45c0.05,0.14,0.07,0.29,0.09,0.44c0.01,0.14,0.01,0.26,0.01,0.37v3.15
			h-0.54v-3.22c0-0.16-0.02-0.32-0.04-0.48c-0.03-0.2-0.12-0.39-0.25-0.54c-0.17-0.2-0.38-0.35-0.62-0.45
			c-0.37-0.14-0.76-0.21-1.16-0.19c-0.37-0.01-0.74,0.05-1.1,0.16c-0.3,0.09-0.58,0.24-0.83,0.44c-0.22,0.18-0.4,0.41-0.52,0.68
			c-0.12,0.27-0.18,0.56-0.18,0.86v2.76h-0.54L143.64,75.5L143.64,75.5z"/>
		<path id="Trazado_16" class="st5" d="M153.66,75.82h-1.59v3.56c-0.01,0.17,0.03,0.33,0.1,0.49c0.07,0.12,0.17,0.21,0.3,0.27
			c0.16,0.06,0.33,0.1,0.5,0.11c0.22,0.02,0.45,0.02,0.67,0.02v0.33c-0.27,0.02-0.53,0.02-0.8,0c-0.24-0.01-0.47-0.06-0.69-0.15
			c-0.19-0.08-0.35-0.21-0.47-0.37c-0.13-0.2-0.18-0.45-0.15-0.68v-3.56h-1.34V75.5h1.34v-1.59h0.54v1.59h1.58V75.82z"/>
		<path id="Trazado_17" class="st5" d="M154.31,78.04c-0.01-0.72,0.31-1.41,0.86-1.87c0.31-0.26,0.66-0.45,1.05-0.58
			c0.93-0.28,1.93-0.28,2.86,0c0.38,0.12,0.74,0.32,1.05,0.58c0.27,0.23,0.49,0.52,0.65,0.85c0.15,0.32,0.22,0.67,0.22,1.02
			c0,0.36-0.07,0.71-0.22,1.03c-0.15,0.33-0.37,0.62-0.65,0.85c-0.31,0.26-0.66,0.45-1.05,0.57c-0.93,0.28-1.93,0.28-2.86,0
			c-0.38-0.12-0.74-0.32-1.05-0.57c-0.28-0.23-0.5-0.52-0.64-0.85C154.38,78.75,154.3,78.4,154.31,78.04z M154.84,78.04
			c0,0.3,0.06,0.6,0.18,0.88c0.12,0.28,0.31,0.54,0.54,0.75c0.26,0.23,0.55,0.41,0.88,0.52c0.78,0.26,1.62,0.26,2.41,0
			c0.32-0.11,0.62-0.29,0.88-0.52c0.23-0.21,0.41-0.46,0.54-0.75c0.25-0.56,0.25-1.19,0-1.75c-0.13-0.28-0.31-0.54-0.54-0.75
			c-0.26-0.23-0.55-0.41-0.88-0.52c-0.78-0.26-1.62-0.26-2.41,0c-0.32,0.11-0.62,0.29-0.88,0.52c-0.23,0.21-0.41,0.46-0.54,0.75
			C154.91,77.44,154.84,77.74,154.84,78.04L154.84,78.04z"/>
		<path id="Trazado_18" class="st5" d="M162.5,78.89c0.01,0.23,0.09,0.45,0.23,0.63c0.14,0.19,0.31,0.35,0.52,0.46
			c0.23,0.14,0.48,0.24,0.74,0.29c0.3,0.07,0.61,0.1,0.92,0.1c0.25,0,0.51-0.02,0.76-0.04c0.26-0.03,0.51-0.08,0.75-0.16
			c0.21-0.07,0.41-0.18,0.57-0.33c0.15-0.14,0.23-0.34,0.23-0.54c0.01-0.2-0.07-0.39-0.21-0.52c-0.16-0.14-0.36-0.25-0.57-0.32
			c-0.26-0.09-0.53-0.15-0.8-0.19c-0.3-0.05-0.6-0.09-0.91-0.14s-0.62-0.1-0.92-0.16c-0.28-0.05-0.55-0.13-0.81-0.24
			c-0.22-0.09-0.41-0.23-0.57-0.41c-0.15-0.18-0.22-0.41-0.21-0.64c-0.01-0.23,0.08-0.46,0.24-0.63c0.17-0.18,0.38-0.31,0.61-0.4
			c0.27-0.1,0.55-0.18,0.84-0.21c0.31-0.04,0.62-0.06,0.93-0.06c0.36,0,0.72,0.03,1.07,0.09c0.3,0.05,0.58,0.15,0.85,0.29
			c0.23,0.12,0.42,0.29,0.57,0.51c0.14,0.22,0.21,0.48,0.21,0.74H167c0.01-0.21-0.05-0.42-0.17-0.59c-0.12-0.17-0.27-0.3-0.45-0.4
			c-0.21-0.11-0.44-0.19-0.68-0.23c-0.28-0.05-0.56-0.08-0.85-0.07c-0.25,0-0.5,0.02-0.74,0.05c-0.23,0.03-0.46,0.08-0.67,0.17
			c-0.18,0.07-0.35,0.17-0.49,0.31c-0.13,0.12-0.19,0.28-0.19,0.46c-0.01,0.19,0.07,0.37,0.21,0.49c0.16,0.14,0.35,0.24,0.56,0.3
			c0.25,0.08,0.51,0.14,0.78,0.18c0.29,0.05,0.58,0.09,0.87,0.14c0.36,0.05,0.7,0.1,1.01,0.16c0.28,0.05,0.56,0.14,0.82,0.26
			c0.21,0.1,0.4,0.24,0.54,0.42c0.14,0.19,0.21,0.42,0.2,0.65c0.01,0.26-0.09,0.5-0.27,0.68c-0.19,0.19-0.43,0.33-0.68,0.43
			c-0.29,0.11-0.6,0.19-0.91,0.23c-0.33,0.04-0.65,0.07-0.98,0.07c-0.39,0-0.77-0.04-1.15-0.12c-0.33-0.06-0.64-0.18-0.93-0.35
			c-0.25-0.14-0.46-0.33-0.62-0.57c-0.15-0.23-0.24-0.5-0.24-0.78L162.5,78.89L162.5,78.89z"/>
		<path id="Trazado_19" class="st5" d="M173.53,73.51v3.07h0.03c0.1-0.2,0.23-0.37,0.4-0.51c0.18-0.16,0.39-0.28,0.61-0.38
			c0.24-0.11,0.5-0.19,0.76-0.24c0.28-0.05,0.56-0.08,0.84-0.08c0.36-0.01,0.73,0.03,1.08,0.11c0.26,0.06,0.5,0.15,0.73,0.29
			c0.17,0.1,0.32,0.24,0.45,0.4c0.1,0.14,0.18,0.29,0.23,0.45c0.05,0.14,0.07,0.29,0.09,0.44c0.01,0.14,0.01,0.26,0.01,0.37v3.15
			h-0.54v-3.22c0-0.16-0.02-0.32-0.04-0.48c-0.03-0.2-0.12-0.39-0.25-0.54c-0.17-0.2-0.38-0.35-0.62-0.45
			c-0.37-0.14-0.76-0.21-1.15-0.19c-0.37-0.01-0.74,0.05-1.1,0.16c-0.3,0.09-0.58,0.24-0.83,0.44c-0.22,0.18-0.4,0.41-0.52,0.68
			c-0.12,0.27-0.18,0.56-0.18,0.86v2.76h-0.54v-7.07L173.53,73.51L173.53,73.51z"/>
		<path id="Trazado_20" class="st5" d="M185.7,79.64c0,0.07,0,0.15,0.01,0.22c0,0.07,0.02,0.14,0.05,0.2
			c0.03,0.06,0.08,0.11,0.14,0.14c0.09,0.04,0.18,0.06,0.28,0.05c0.13,0,0.27-0.01,0.4-0.03v0.33c-0.08,0.01-0.15,0.02-0.22,0.03
			c-0.07,0.01-0.15,0.01-0.22,0.01c-0.17,0.01-0.35-0.01-0.52-0.06c-0.11-0.03-0.21-0.08-0.29-0.16c-0.07-0.06-0.11-0.14-0.14-0.23
			c-0.02-0.1-0.04-0.19-0.04-0.29v-0.27h-0.03c-0.1,0.16-0.22,0.31-0.37,0.43c-0.18,0.15-0.38,0.27-0.59,0.36
			c-0.25,0.11-0.51,0.2-0.78,0.25c-0.32,0.06-0.64,0.09-0.96,0.09c-0.32,0-0.64-0.02-0.95-0.07c-0.27-0.04-0.53-0.12-0.78-0.24
			c-0.21-0.1-0.39-0.25-0.52-0.44c-0.13-0.2-0.19-0.44-0.18-0.68c-0.01-0.27,0.08-0.53,0.25-0.73c0.18-0.2,0.39-0.35,0.64-0.45
			c0.28-0.11,0.57-0.19,0.86-0.23c0.32-0.05,0.63-0.08,0.93-0.1c0.6-0.03,1.07-0.06,1.41-0.09c0.25-0.02,0.51-0.07,0.74-0.17
			c0.14-0.05,0.25-0.16,0.3-0.3c0.04-0.16,0.06-0.33,0.06-0.5c-0.01-0.09-0.04-0.18-0.09-0.25c-0.08-0.13-0.18-0.24-0.3-0.33
			c-0.19-0.13-0.4-0.23-0.62-0.29c-0.33-0.09-0.68-0.13-1.02-0.12c-0.55-0.02-1.09,0.1-1.58,0.35c-0.38,0.2-0.63,0.58-0.66,1.01
			h-0.55c0.02-0.53,0.31-1.01,0.77-1.26c0.62-0.31,1.31-0.46,2-0.42c0.31,0,0.62,0.02,0.93,0.06c0.28,0.03,0.55,0.1,0.81,0.21
			c0.22,0.09,0.42,0.23,0.58,0.41c0.15,0.18,0.23,0.42,0.22,0.65L185.7,79.64L185.7,79.64z M185.16,77.69
			c-0.13,0.1-0.28,0.16-0.44,0.19c-0.21,0.05-0.43,0.08-0.65,0.09c-0.24,0.02-0.49,0.04-0.76,0.05c-0.26,0.01-0.53,0.03-0.79,0.06
			c-0.51,0.02-1.01,0.14-1.48,0.34c-0.33,0.15-0.53,0.48-0.52,0.84c0.01,0.33,0.19,0.63,0.47,0.79c0.44,0.24,0.94,0.36,1.44,0.32
			c0.5,0.02,0.99-0.06,1.46-0.23c0.31-0.12,0.59-0.3,0.82-0.53c0.17-0.16,0.29-0.36,0.36-0.58c0.04-0.12,0.06-0.25,0.08-0.38
			L185.16,77.69L185.16,77.69z"/>
		<path id="Trazado_21" class="st5" d="M192.89,77.07c-0.03-0.22-0.11-0.42-0.25-0.59c-0.15-0.18-0.33-0.32-0.53-0.43
			c-0.24-0.12-0.49-0.21-0.76-0.26c-0.31-0.06-0.62-0.09-0.93-0.09c-0.41-0.01-0.81,0.06-1.2,0.19c-0.32,0.11-0.62,0.29-0.88,0.52
			c-0.23,0.2-0.41,0.45-0.54,0.73c-0.12,0.27-0.18,0.55-0.18,0.85c0,0.32,0.05,0.65,0.17,0.95c0.11,0.29,0.29,0.55,0.52,0.76
			c0.25,0.23,0.55,0.4,0.88,0.5c0.4,0.13,0.81,0.19,1.23,0.18c0.32,0,0.63-0.04,0.94-0.12c0.27-0.07,0.53-0.18,0.76-0.33
			c0.21-0.13,0.4-0.3,0.54-0.5c0.14-0.19,0.24-0.41,0.28-0.64h0.54c-0.05,0.3-0.18,0.57-0.36,0.81c-0.19,0.24-0.42,0.44-0.68,0.6
			c-0.29,0.17-0.6,0.29-0.92,0.37c-0.87,0.2-1.78,0.17-2.63-0.09c-0.38-0.13-0.73-0.33-1.03-0.6c-0.26-0.24-0.47-0.54-0.6-0.87
			c-0.13-0.33-0.19-0.67-0.19-1.02c0-0.71,0.31-1.39,0.86-1.84c0.31-0.25,0.67-0.44,1.05-0.56c0.46-0.15,0.94-0.22,1.43-0.21
			c0.37,0,0.74,0.03,1.11,0.1c0.32,0.06,0.63,0.17,0.92,0.31c0.25,0.13,0.48,0.31,0.66,0.52c0.17,0.22,0.28,0.48,0.31,0.75
			L192.89,77.07L192.89,77.07z"/>
		<path id="Trazado_22" class="st5" d="M194.88,74.53v-1.02h0.54v1.02H194.88z M194.88,80.59V75.5h0.54v5.09H194.88z"/>
		<path id="Trazado_23" class="st5" d="M202.5,79.64c0,0.07,0,0.15,0.01,0.22c0,0.07,0.02,0.14,0.05,0.2
			c0.03,0.06,0.08,0.11,0.14,0.14c0.09,0.04,0.19,0.06,0.28,0.05c0.13,0,0.27-0.01,0.4-0.03v0.33c-0.07,0.01-0.15,0.02-0.22,0.03
			c-0.07,0.01-0.15,0.01-0.22,0.01c-0.17,0.01-0.35-0.01-0.52-0.06c-0.11-0.03-0.21-0.08-0.29-0.16c-0.07-0.06-0.11-0.14-0.13-0.23
			c-0.02-0.1-0.04-0.19-0.04-0.29v-0.27h-0.03c-0.1,0.16-0.22,0.31-0.37,0.43c-0.18,0.15-0.38,0.27-0.59,0.36
			c-0.25,0.11-0.52,0.2-0.79,0.25c-0.32,0.06-0.64,0.09-0.96,0.09c-0.32,0-0.64-0.02-0.96-0.07c-0.27-0.04-0.53-0.12-0.78-0.24
			c-0.21-0.1-0.38-0.25-0.52-0.44c-0.13-0.2-0.19-0.44-0.18-0.68c-0.01-0.27,0.08-0.53,0.25-0.73c0.18-0.2,0.39-0.35,0.64-0.45
			c0.28-0.11,0.57-0.19,0.86-0.23c0.32-0.05,0.62-0.08,0.93-0.1c0.6-0.03,1.07-0.06,1.41-0.09c0.25-0.02,0.5-0.07,0.74-0.17
			c0.14-0.05,0.25-0.16,0.3-0.3c0.04-0.16,0.06-0.33,0.06-0.5c-0.01-0.09-0.04-0.18-0.09-0.25c-0.08-0.13-0.18-0.24-0.3-0.33
			c-0.19-0.13-0.4-0.23-0.62-0.29c-0.33-0.09-0.68-0.13-1.02-0.12c-0.55-0.02-1.09,0.1-1.58,0.35c-0.38,0.2-0.63,0.58-0.66,1.01
			h-0.54c0.02-0.53,0.31-1.01,0.77-1.26c0.62-0.31,1.31-0.46,2-0.42c0.31,0,0.62,0.02,0.93,0.06c0.28,0.03,0.55,0.1,0.82,0.21
			c0.22,0.09,0.42,0.23,0.58,0.41c0.15,0.18,0.23,0.42,0.22,0.65v2.94L202.5,79.64z M201.96,77.69c-0.13,0.1-0.28,0.16-0.44,0.19
			c-0.21,0.05-0.43,0.08-0.64,0.09c-0.24,0.02-0.49,0.04-0.76,0.05c-0.26,0.01-0.53,0.03-0.79,0.06c-0.51,0.02-1.01,0.14-1.48,0.34
			c-0.33,0.15-0.53,0.48-0.52,0.84c0.01,0.33,0.19,0.62,0.47,0.79c0.44,0.24,0.94,0.36,1.44,0.32c0.5,0.02,0.99-0.06,1.46-0.23
			c0.31-0.12,0.59-0.3,0.82-0.53c0.16-0.16,0.29-0.36,0.36-0.58c0.04-0.12,0.07-0.25,0.08-0.38V77.69L201.96,77.69z"/>
		<path id="Trazado_24" class="st5" d="M213.9,80.59h-0.54V79.5h-0.03c-0.1,0.2-0.23,0.37-0.4,0.51c-0.18,0.15-0.39,0.28-0.61,0.38
			c-0.24,0.11-0.5,0.19-0.76,0.24c-0.28,0.05-0.56,0.08-0.84,0.08c-0.36,0.01-0.73-0.03-1.08-0.11c-0.26-0.06-0.5-0.15-0.73-0.29
			c-0.17-0.1-0.32-0.24-0.45-0.4c-0.1-0.14-0.18-0.29-0.23-0.45c-0.05-0.14-0.07-0.29-0.08-0.44c-0.01-0.14-0.02-0.27-0.02-0.37
			V75.5h0.54v3.22c0,0.16,0.02,0.32,0.04,0.48c0.03,0.2,0.12,0.39,0.25,0.54c0.17,0.2,0.38,0.35,0.61,0.45
			c0.37,0.14,0.77,0.21,1.16,0.19c0.37,0.01,0.74-0.05,1.1-0.16c0.3-0.09,0.58-0.24,0.83-0.44c0.22-0.18,0.4-0.41,0.52-0.67
			c0.12-0.27,0.18-0.56,0.18-0.86V75.5h0.54L213.9,80.59L213.9,80.59z"/>
		<path id="Trazado_25" class="st5" d="M215.49,75.5h0.54v1.09h0.03c0.1-0.2,0.23-0.37,0.4-0.51c0.18-0.16,0.39-0.28,0.61-0.38
			c0.24-0.11,0.5-0.19,0.76-0.24c0.28-0.05,0.55-0.08,0.84-0.08c0.36-0.01,0.73,0.03,1.08,0.11c0.26,0.06,0.5,0.15,0.73,0.29
			c0.17,0.1,0.32,0.24,0.45,0.4c0.1,0.14,0.18,0.29,0.23,0.45c0.05,0.14,0.07,0.29,0.08,0.44c0.01,0.14,0.01,0.26,0.01,0.37v3.15
			h-0.54v-3.22c0-0.16-0.02-0.32-0.04-0.48c-0.03-0.2-0.12-0.39-0.25-0.54c-0.17-0.2-0.38-0.35-0.62-0.45
			c-0.37-0.14-0.76-0.21-1.16-0.19c-0.37-0.01-0.74,0.05-1.1,0.16c-0.3,0.09-0.58,0.24-0.83,0.44c-0.22,0.18-0.4,0.41-0.52,0.68
			c-0.12,0.27-0.18,0.56-0.18,0.86v2.76h-0.54L215.49,75.5L215.49,75.5z"/>
		<path id="Trazado_26" class="st5" d="M228.2,79.64c0,0.07,0,0.15,0.01,0.22c0,0.07,0.02,0.14,0.05,0.2
			c0.03,0.06,0.08,0.11,0.14,0.14c0.09,0.04,0.19,0.06,0.28,0.05c0.13,0,0.27-0.01,0.4-0.03v0.33c-0.14,0.03-0.29,0.04-0.44,0.04
			c-0.17,0.01-0.35-0.01-0.52-0.06c-0.11-0.03-0.21-0.08-0.29-0.16c-0.07-0.06-0.11-0.14-0.13-0.23c-0.02-0.1-0.04-0.19-0.04-0.29
			v-0.27h-0.03c-0.1,0.16-0.22,0.31-0.37,0.43c-0.18,0.15-0.38,0.27-0.59,0.36c-0.25,0.11-0.51,0.2-0.78,0.25
			c-0.32,0.06-0.64,0.09-0.96,0.09c-0.32,0-0.64-0.02-0.96-0.07c-0.27-0.04-0.53-0.12-0.78-0.24c-0.21-0.1-0.38-0.25-0.52-0.44
			c-0.13-0.2-0.19-0.44-0.18-0.68c-0.01-0.27,0.08-0.53,0.25-0.73c0.18-0.2,0.39-0.35,0.64-0.45c0.28-0.11,0.57-0.19,0.86-0.23
			c0.32-0.05,0.62-0.08,0.93-0.1c0.6-0.03,1.07-0.06,1.41-0.09c0.25-0.02,0.5-0.07,0.74-0.17c0.14-0.05,0.25-0.16,0.3-0.3
			c0.04-0.16,0.06-0.33,0.06-0.5c-0.01-0.09-0.04-0.18-0.09-0.25c-0.08-0.13-0.18-0.24-0.3-0.33c-0.19-0.13-0.4-0.23-0.62-0.29
			c-0.33-0.09-0.68-0.13-1.02-0.12c-0.55-0.02-1.09,0.1-1.58,0.35c-0.38,0.2-0.63,0.58-0.66,1.01h-0.54
			c0.02-0.53,0.31-1.01,0.77-1.26c0.62-0.31,1.31-0.46,2-0.42c0.31,0,0.62,0.02,0.93,0.06c0.28,0.03,0.55,0.1,0.81,0.21
			c0.22,0.09,0.42,0.23,0.58,0.41c0.15,0.18,0.23,0.42,0.22,0.65v2.94L228.2,79.64z M227.66,77.69c-0.13,0.1-0.28,0.16-0.44,0.19
			c-0.21,0.05-0.43,0.08-0.64,0.09c-0.24,0.02-0.49,0.04-0.76,0.05c-0.26,0.01-0.53,0.03-0.79,0.06c-0.51,0.02-1.01,0.14-1.48,0.34
			c-0.33,0.15-0.53,0.48-0.52,0.84c0.01,0.33,0.19,0.62,0.47,0.79c0.44,0.24,0.94,0.36,1.44,0.32c0.5,0.02,0.99-0.06,1.46-0.23
			c0.31-0.12,0.59-0.3,0.82-0.53c0.17-0.16,0.29-0.36,0.36-0.58c0.04-0.12,0.07-0.25,0.08-0.38L227.66,77.69L227.66,77.69z"/>
		<path id="Trazado_27" class="st5" d="M118.4,89.1c-0.01,0.29,0.04,0.59,0.15,0.86c0.11,0.28,0.28,0.53,0.5,0.73
			c0.25,0.22,0.53,0.39,0.84,0.5c0.96,0.31,2,0.23,2.9-0.21c0.43-0.24,0.75-0.64,0.89-1.11h0.54c-0.13,0.58-0.5,1.08-1.03,1.37
			c-0.65,0.34-1.38,0.5-2.11,0.47c-0.47,0.01-0.95-0.06-1.4-0.2c-0.37-0.12-0.71-0.31-1.01-0.55c-0.53-0.45-0.82-1.12-0.8-1.82
			c-0.01-0.35,0.05-0.7,0.18-1.02c0.13-0.33,0.33-0.64,0.59-0.88c0.29-0.27,0.64-0.48,1.01-0.62c0.46-0.16,0.94-0.24,1.43-0.23
			c0.5-0.01,1,0.06,1.47,0.22c0.38,0.12,0.72,0.32,1.02,0.59c0.26,0.24,0.45,0.54,0.57,0.87c0.12,0.33,0.16,0.69,0.14,1.04
			L118.4,89.1L118.4,89.1z M123.74,88.77c-0.01-0.27-0.08-0.53-0.2-0.77c-0.13-0.25-0.3-0.48-0.52-0.66
			c-0.25-0.2-0.53-0.35-0.83-0.45c-0.36-0.12-0.73-0.18-1.11-0.17c-0.37-0.01-0.74,0.05-1.08,0.18c-0.3,0.11-0.57,0.27-0.82,0.47
			c-0.22,0.19-0.4,0.41-0.54,0.66c-0.13,0.23-0.21,0.49-0.24,0.75L123.74,88.77L123.74,88.77z"/>
		<path id="Trazado_28" class="st5" d="M125.55,86.5h0.54v1.04h0.03c0.06-0.17,0.17-0.32,0.3-0.45c0.15-0.15,0.33-0.28,0.52-0.37
			c0.22-0.11,0.44-0.19,0.68-0.25c0.26-0.06,0.52-0.09,0.79-0.09c0.3,0,0.61,0.03,0.91,0.09c0.23,0.05,0.45,0.14,0.65,0.25
			c0.16,0.09,0.31,0.21,0.42,0.35c0.1,0.11,0.17,0.25,0.21,0.39h0.03c0.21-0.34,0.51-0.62,0.87-0.8c0.45-0.2,0.94-0.3,1.44-0.28
			c0.31,0,0.61,0.03,0.91,0.1c0.26,0.06,0.5,0.17,0.72,0.32c0.2,0.14,0.36,0.32,0.47,0.54c0.12,0.24,0.18,0.51,0.17,0.77v3.48h-0.54
			V88.1c0.01-0.27-0.06-0.54-0.21-0.76c-0.13-0.18-0.3-0.32-0.5-0.42c-0.18-0.09-0.38-0.15-0.58-0.18c-0.15-0.02-0.3-0.03-0.45-0.03
			c-0.31,0-0.62,0.04-0.91,0.12c-0.26,0.07-0.51,0.19-0.72,0.36c-0.2,0.16-0.36,0.36-0.47,0.59c-0.12,0.25-0.18,0.53-0.17,0.81v3.01
			h-0.54V88.1c0.01-0.27-0.06-0.53-0.21-0.76c-0.12-0.18-0.29-0.32-0.48-0.42c-0.18-0.09-0.37-0.15-0.57-0.18
			c-0.15-0.02-0.31-0.04-0.46-0.04c-0.27,0-0.53,0.04-0.79,0.11c-0.27,0.07-0.52,0.18-0.75,0.34c-0.23,0.15-0.41,0.35-0.55,0.58
			c-0.15,0.26-0.22,0.55-0.21,0.84v3.01h-0.54V86.5L125.55,86.5z"/>
		<path id="Trazado_29" class="st5" d="M137.45,87.67h0.04c0.07-0.15,0.17-0.29,0.28-0.42c0.15-0.17,0.33-0.31,0.52-0.42
			c0.25-0.14,0.51-0.25,0.78-0.32c0.34-0.09,0.7-0.13,1.05-0.13c0.49-0.01,0.98,0.06,1.45,0.22c0.38,0.13,0.72,0.32,1.02,0.58
			c0.26,0.23,0.47,0.53,0.6,0.85c0.13,0.32,0.2,0.67,0.2,1.02c0,0.37-0.06,0.73-0.2,1.07c-0.13,0.32-0.34,0.61-0.6,0.84
			c-0.3,0.25-0.65,0.44-1.02,0.55c-0.47,0.14-0.96,0.21-1.45,0.2c-0.55,0.01-1.1-0.09-1.62-0.28c-0.45-0.16-0.81-0.48-1.04-0.9
			h-0.03v2.88h-0.52v-6.92h0.52L137.45,87.67L137.45,87.67z M140.13,91.39c0.42,0.01,0.83-0.05,1.23-0.19
			c0.32-0.11,0.61-0.28,0.85-0.5c0.22-0.21,0.39-0.46,0.5-0.74c0.22-0.56,0.22-1.19,0.01-1.75c-0.11-0.28-0.27-0.54-0.48-0.75
			c-0.24-0.24-0.53-0.42-0.84-0.54c-0.81-0.27-1.68-0.27-2.49-0.01c-0.31,0.11-0.6,0.29-0.83,0.52c-0.21,0.21-0.36,0.47-0.46,0.75
			c-0.1,0.28-0.14,0.58-0.14,0.88c0,0.3,0.04,0.59,0.13,0.88c0.08,0.28,0.23,0.53,0.43,0.74c0.23,0.23,0.51,0.41,0.82,0.52
			C139.27,91.34,139.7,91.4,140.13,91.39L140.13,91.39z"/>
		<path id="Trazado_30" class="st5" d="M145.21,87.63h0.04c0.08-0.18,0.21-0.35,0.37-0.47c0.19-0.15,0.41-0.28,0.64-0.38
			c0.27-0.11,0.54-0.19,0.83-0.24c0.32-0.06,0.64-0.08,0.96-0.08v0.38c-0.32-0.02-0.65,0-0.97,0.06c-0.37,0.07-0.73,0.22-1.04,0.44
			c-0.12,0.09-0.24,0.19-0.35,0.29c-0.1,0.09-0.18,0.19-0.25,0.31c-0.07,0.12-0.12,0.25-0.16,0.38c-0.04,0.16-0.06,0.33-0.07,0.5
			v2.78h-0.54v-5.09h0.54L145.21,87.63L145.21,87.63z"/>
		<path id="Trazado_31" class="st5" d="M148.81,89.1c-0.01,0.29,0.04,0.59,0.15,0.86c0.11,0.28,0.28,0.53,0.5,0.73
			c0.25,0.22,0.53,0.39,0.84,0.5c0.96,0.31,2,0.23,2.9-0.21c0.43-0.24,0.75-0.64,0.89-1.11h0.54c-0.13,0.58-0.5,1.08-1.03,1.37
			c-0.65,0.34-1.38,0.5-2.11,0.47c-0.47,0.01-0.95-0.06-1.4-0.2c-0.37-0.12-0.71-0.3-1.01-0.55c-0.53-0.45-0.82-1.12-0.8-1.82
			c-0.01-0.35,0.05-0.7,0.18-1.02c0.13-0.33,0.33-0.64,0.59-0.88c0.29-0.27,0.64-0.48,1.01-0.62c0.46-0.16,0.94-0.24,1.43-0.23
			c0.5-0.01,1,0.06,1.47,0.22c0.38,0.12,0.72,0.32,1.02,0.59c0.26,0.24,0.45,0.54,0.57,0.87c0.12,0.33,0.16,0.69,0.13,1.04
			L148.81,89.1L148.81,89.1z M154.15,88.77c-0.01-0.27-0.08-0.53-0.2-0.77c-0.13-0.25-0.31-0.48-0.53-0.66
			c-0.25-0.2-0.53-0.35-0.83-0.45c-0.36-0.12-0.73-0.18-1.11-0.17c-0.37-0.01-0.74,0.05-1.08,0.18c-0.3,0.11-0.57,0.27-0.81,0.47
			c-0.22,0.19-0.4,0.41-0.54,0.66c-0.13,0.23-0.21,0.49-0.24,0.75L154.15,88.77L154.15,88.77z"/>
		<path id="Trazado_32" class="st5" d="M156.2,89.9c0.01,0.23,0.09,0.44,0.23,0.63c0.14,0.19,0.32,0.35,0.52,0.46
			c0.23,0.14,0.48,0.24,0.74,0.29c0.3,0.07,0.61,0.1,0.92,0.1c0.25,0,0.51-0.02,0.76-0.04c0.26-0.03,0.51-0.08,0.75-0.16
			c0.21-0.07,0.41-0.18,0.57-0.33c0.15-0.14,0.23-0.34,0.23-0.54c0.01-0.2-0.07-0.39-0.21-0.53c-0.16-0.14-0.36-0.25-0.57-0.32
			c-0.26-0.09-0.53-0.15-0.8-0.19l-0.91-0.14c-0.31-0.05-0.62-0.1-0.92-0.16c-0.28-0.05-0.55-0.13-0.81-0.24
			c-0.22-0.09-0.41-0.23-0.57-0.41c-0.15-0.18-0.22-0.41-0.21-0.64c-0.01-0.23,0.08-0.46,0.24-0.63c0.17-0.18,0.38-0.31,0.62-0.4
			c0.27-0.11,0.55-0.18,0.84-0.21c0.31-0.04,0.62-0.06,0.94-0.06c0.36,0,0.71,0.03,1.07,0.09c0.3,0.05,0.58,0.15,0.85,0.29
			c0.23,0.12,0.42,0.29,0.57,0.5c0.14,0.22,0.21,0.48,0.2,0.74h-0.54c0.01-0.21-0.05-0.42-0.17-0.59c-0.12-0.17-0.27-0.3-0.45-0.4
			c-0.21-0.11-0.44-0.19-0.68-0.23c-0.28-0.05-0.56-0.08-0.85-0.07c-0.25,0-0.5,0.02-0.74,0.05c-0.23,0.03-0.46,0.08-0.67,0.17
			c-0.18,0.07-0.35,0.17-0.49,0.31c-0.12,0.12-0.19,0.28-0.19,0.46c-0.01,0.19,0.07,0.37,0.21,0.49c0.16,0.14,0.35,0.24,0.56,0.3
			c0.25,0.08,0.51,0.14,0.78,0.18l0.87,0.14c0.36,0.05,0.7,0.1,1.01,0.16c0.28,0.05,0.56,0.14,0.82,0.26
			c0.21,0.09,0.4,0.24,0.55,0.42c0.14,0.19,0.21,0.42,0.2,0.65c0.01,0.26-0.09,0.5-0.27,0.68c-0.19,0.19-0.43,0.34-0.68,0.43
			c-0.29,0.11-0.6,0.19-0.91,0.23c-0.33,0.04-0.66,0.06-0.98,0.07c-0.39,0-0.77-0.04-1.15-0.11c-0.33-0.07-0.64-0.18-0.93-0.35
			c-0.25-0.14-0.46-0.34-0.62-0.57c-0.15-0.23-0.24-0.5-0.24-0.78L156.2,89.9L156.2,89.9z"/>
		<path id="Trazado_33" class="st5" d="M168.12,90.65c0,0.07,0,0.14,0.01,0.22c0,0.07,0.02,0.14,0.05,0.2
			c0.03,0.06,0.08,0.11,0.14,0.14c0.09,0.04,0.19,0.06,0.28,0.05c0.13,0,0.27-0.01,0.4-0.03v0.33c-0.08,0.01-0.15,0.02-0.22,0.03
			c-0.07,0.01-0.15,0.01-0.22,0.01c-0.17,0.01-0.35-0.01-0.52-0.06c-0.11-0.03-0.21-0.08-0.29-0.16c-0.07-0.06-0.11-0.14-0.14-0.23
			c-0.03-0.1-0.04-0.19-0.04-0.29v-0.27h-0.03c-0.1,0.16-0.22,0.31-0.37,0.43c-0.18,0.15-0.38,0.27-0.59,0.36
			c-0.25,0.11-0.51,0.19-0.78,0.25c-0.32,0.06-0.64,0.09-0.96,0.09c-0.32,0-0.64-0.02-0.96-0.08c-0.27-0.04-0.53-0.12-0.78-0.24
			c-0.21-0.1-0.38-0.25-0.52-0.44c-0.13-0.2-0.19-0.44-0.18-0.68c-0.01-0.27,0.08-0.53,0.25-0.73c0.17-0.2,0.39-0.35,0.64-0.45
			c0.28-0.11,0.57-0.19,0.86-0.23c0.31-0.05,0.62-0.08,0.93-0.1c0.6-0.03,1.07-0.06,1.41-0.09c0.25-0.02,0.5-0.08,0.74-0.17
			c0.14-0.05,0.25-0.16,0.3-0.3c0.04-0.16,0.06-0.33,0.06-0.5c-0.01-0.09-0.04-0.18-0.09-0.25c-0.07-0.13-0.18-0.24-0.3-0.33
			c-0.19-0.13-0.4-0.23-0.62-0.29c-0.33-0.09-0.67-0.13-1.02-0.12c-0.55-0.02-1.09,0.1-1.58,0.35c-0.38,0.2-0.63,0.58-0.66,1.01
			h-0.55c0.02-0.53,0.31-1.01,0.77-1.26c0.62-0.31,1.31-0.46,2-0.42c0.31,0,0.62,0.02,0.93,0.06c0.28,0.03,0.55,0.1,0.81,0.21
			c0.22,0.09,0.42,0.23,0.58,0.4c0.15,0.18,0.23,0.42,0.22,0.65L168.12,90.65L168.12,90.65z M167.58,88.71
			c-0.13,0.1-0.28,0.16-0.44,0.19c-0.21,0.05-0.43,0.08-0.64,0.09c-0.24,0.02-0.49,0.04-0.76,0.05c-0.26,0.01-0.53,0.03-0.79,0.06
			c-0.51,0.02-1.01,0.14-1.48,0.34c-0.33,0.15-0.53,0.48-0.52,0.84c0.01,0.33,0.19,0.63,0.47,0.79c0.44,0.25,0.94,0.36,1.44,0.32
			c0.5,0.02,0.99-0.06,1.46-0.23c0.31-0.12,0.59-0.3,0.82-0.54c0.17-0.16,0.29-0.36,0.36-0.58c0.04-0.12,0.06-0.25,0.08-0.38
			L167.58,88.71L167.58,88.71z"/>
		<path id="Trazado_34" class="st5" d="M174.02,89.9c0.02,0.23,0.09,0.44,0.23,0.63c0.14,0.19,0.31,0.35,0.52,0.46
			c0.23,0.14,0.48,0.24,0.74,0.29c0.3,0.07,0.61,0.1,0.92,0.1c0.25,0,0.51-0.02,0.76-0.04c0.26-0.03,0.51-0.08,0.75-0.16
			c0.21-0.07,0.41-0.18,0.57-0.33c0.15-0.14,0.23-0.34,0.23-0.54c0.01-0.2-0.07-0.39-0.21-0.53c-0.16-0.14-0.36-0.25-0.57-0.32
			c-0.26-0.09-0.53-0.15-0.8-0.19l-0.91-0.14c-0.31-0.05-0.62-0.1-0.92-0.16c-0.28-0.05-0.55-0.13-0.81-0.24
			c-0.22-0.09-0.41-0.23-0.57-0.41c-0.15-0.18-0.22-0.41-0.21-0.64c-0.01-0.23,0.08-0.46,0.24-0.63c0.17-0.18,0.38-0.31,0.62-0.4
			c0.27-0.11,0.55-0.18,0.84-0.21c0.31-0.04,0.62-0.06,0.93-0.06c0.36,0,0.72,0.03,1.07,0.09c0.3,0.05,0.58,0.15,0.85,0.29
			c0.23,0.12,0.42,0.29,0.57,0.5c0.14,0.22,0.21,0.48,0.2,0.74h-0.54c0.01-0.21-0.05-0.42-0.17-0.59c-0.12-0.17-0.27-0.3-0.45-0.4
			c-0.21-0.11-0.44-0.19-0.68-0.23c-0.28-0.05-0.56-0.08-0.85-0.07c-0.25,0-0.5,0.02-0.74,0.05c-0.23,0.03-0.46,0.09-0.67,0.17
			c-0.18,0.07-0.35,0.17-0.49,0.31c-0.12,0.12-0.19,0.29-0.19,0.46c-0.01,0.19,0.07,0.37,0.21,0.49c0.16,0.14,0.35,0.24,0.56,0.3
			c0.25,0.08,0.51,0.14,0.78,0.18l0.87,0.14c0.36,0.05,0.7,0.1,1.01,0.16c0.28,0.05,0.56,0.14,0.82,0.26
			c0.21,0.09,0.4,0.24,0.55,0.42c0.14,0.19,0.21,0.42,0.2,0.65c0.01,0.26-0.09,0.5-0.27,0.68c-0.19,0.19-0.43,0.34-0.68,0.43
			c-0.29,0.11-0.6,0.19-0.91,0.23c-0.33,0.04-0.65,0.06-0.98,0.07c-0.39,0-0.77-0.04-1.15-0.11c-0.33-0.07-0.64-0.18-0.93-0.35
			c-0.25-0.14-0.46-0.33-0.62-0.57c-0.15-0.23-0.24-0.5-0.24-0.78L174.02,89.9L174.02,89.9z"/>
		<path id="Trazado_35" class="st5" d="M185.94,90.65c0,0.07,0,0.14,0.01,0.22c0,0.07,0.02,0.14,0.05,0.2
			c0.03,0.06,0.08,0.11,0.14,0.14c0.09,0.04,0.18,0.06,0.28,0.05c0.13,0,0.27-0.01,0.4-0.03v0.33c-0.08,0.01-0.15,0.02-0.22,0.03
			c-0.07,0.01-0.15,0.01-0.22,0.01c-0.17,0.01-0.35-0.01-0.52-0.06c-0.11-0.03-0.21-0.08-0.29-0.16c-0.06-0.06-0.11-0.14-0.14-0.23
			c-0.02-0.1-0.04-0.19-0.04-0.29v-0.27h-0.03c-0.1,0.16-0.22,0.31-0.37,0.43c-0.18,0.15-0.38,0.27-0.59,0.36
			c-0.25,0.11-0.52,0.19-0.78,0.25c-0.32,0.06-0.64,0.09-0.96,0.09c-0.32,0-0.64-0.02-0.96-0.08c-0.27-0.04-0.53-0.12-0.78-0.24
			c-0.21-0.1-0.38-0.25-0.52-0.44c-0.13-0.2-0.19-0.44-0.18-0.68c-0.01-0.27,0.08-0.53,0.25-0.73c0.17-0.2,0.39-0.35,0.64-0.45
			c0.28-0.11,0.57-0.19,0.86-0.23c0.32-0.05,0.62-0.08,0.93-0.1c0.6-0.03,1.07-0.06,1.41-0.09c0.25-0.02,0.51-0.07,0.74-0.17
			c0.14-0.05,0.25-0.16,0.3-0.3c0.04-0.16,0.06-0.33,0.06-0.5c-0.01-0.09-0.04-0.18-0.09-0.25c-0.07-0.13-0.18-0.24-0.3-0.33
			c-0.19-0.13-0.4-0.23-0.62-0.29c-0.33-0.09-0.68-0.13-1.02-0.12c-0.55-0.02-1.09,0.1-1.58,0.35c-0.38,0.2-0.63,0.58-0.66,1.01
			h-0.54c0.02-0.53,0.31-1.01,0.77-1.26c0.62-0.31,1.31-0.46,2-0.42c0.31,0,0.63,0.02,0.94,0.06c0.28,0.03,0.55,0.1,0.81,0.21
			c0.22,0.09,0.42,0.23,0.58,0.4c0.15,0.18,0.23,0.42,0.22,0.65v2.93H185.94z M185.4,88.71c-0.13,0.1-0.28,0.16-0.44,0.19
			c-0.21,0.05-0.43,0.08-0.64,0.09c-0.24,0.02-0.49,0.04-0.76,0.05c-0.27,0.02-0.53,0.04-0.79,0.06c-0.51,0.02-1.01,0.14-1.48,0.34
			c-0.33,0.15-0.53,0.48-0.52,0.84c0.01,0.33,0.19,0.63,0.47,0.79c0.44,0.25,0.94,0.36,1.44,0.32c0.5,0.02,0.99-0.06,1.46-0.23
			c0.31-0.12,0.59-0.3,0.82-0.54c0.17-0.16,0.29-0.36,0.36-0.58c0.04-0.12,0.07-0.25,0.08-0.38L185.4,88.71L185.4,88.71z"/>
		<path id="Trazado_36" class="st5" d="M188.31,84.52v7.07h-0.54v-7.07H188.31z"/>
		<path id="Trazado_37" class="st5" d="M195.79,91.6h-0.54V90.5h-0.03c-0.1,0.2-0.23,0.37-0.4,0.51c-0.18,0.15-0.39,0.28-0.61,0.38
			c-0.24,0.11-0.5,0.19-0.76,0.24c-0.28,0.05-0.55,0.08-0.84,0.08c-0.36,0.01-0.73-0.03-1.08-0.11c-0.26-0.06-0.5-0.15-0.73-0.29
			c-0.17-0.1-0.32-0.24-0.45-0.4c-0.1-0.14-0.18-0.29-0.23-0.45c-0.05-0.14-0.07-0.29-0.09-0.44c-0.01-0.14-0.02-0.27-0.02-0.37
			V86.5h0.54v3.22c0,0.16,0.02,0.32,0.04,0.48c0.03,0.2,0.12,0.39,0.25,0.55c0.17,0.2,0.38,0.35,0.61,0.45
			c0.37,0.14,0.77,0.21,1.16,0.19c0.37,0.01,0.74-0.05,1.1-0.16c0.3-0.09,0.58-0.24,0.83-0.44c0.22-0.18,0.4-0.41,0.52-0.67
			c0.12-0.27,0.18-0.56,0.18-0.86V86.5h0.54L195.79,91.6L195.79,91.6z"/>
		<path id="Trazado_38" class="st5" d="M202.99,90.51h-0.03c-0.29,0.4-0.68,0.71-1.13,0.91c-0.52,0.21-1.09,0.32-1.66,0.3
			c-0.48,0.01-0.96-0.06-1.42-0.22c-0.36-0.12-0.7-0.32-0.98-0.58c-0.25-0.24-0.44-0.53-0.57-0.85c-0.12-0.32-0.19-0.66-0.18-1.01
			c0-0.36,0.07-0.72,0.2-1.05c0.13-0.33,0.34-0.62,0.6-0.85c0.3-0.25,0.64-0.45,1.01-0.57c0.46-0.15,0.95-0.22,1.43-0.21
			c0.29,0,0.58,0.03,0.86,0.08c0.27,0.05,0.53,0.13,0.78,0.24c0.23,0.1,0.44,0.23,0.63,0.4c0.17,0.15,0.31,0.33,0.41,0.54h0.03
			v-3.12h0.54v7.07h-0.54L202.99,90.51L202.99,90.51z M200.29,91.39c0.41,0.01,0.82-0.06,1.2-0.2c0.31-0.12,0.6-0.3,0.84-0.52
			c0.22-0.21,0.39-0.47,0.5-0.75c0.11-0.27,0.16-0.56,0.16-0.86c0-0.3-0.06-0.59-0.16-0.87c-0.11-0.28-0.28-0.54-0.49-0.75
			c-0.24-0.24-0.53-0.42-0.84-0.53c-0.39-0.14-0.8-0.21-1.21-0.2c-0.42-0.01-0.84,0.05-1.23,0.19c-0.31,0.11-0.6,0.29-0.84,0.52
			c-0.22,0.21-0.38,0.47-0.48,0.75c-0.1,0.28-0.15,0.58-0.15,0.88c0,0.3,0.05,0.59,0.16,0.87c0.11,0.28,0.28,0.54,0.5,0.75
			c0.24,0.23,0.53,0.41,0.84,0.52C199.47,91.32,199.88,91.39,200.29,91.39L200.29,91.39z"/>
		<path id="Trazado_39" class="st5" d="M210.61,90.65c0,0.07,0,0.14,0.01,0.22c0,0.07,0.02,0.14,0.05,0.2
			c0.03,0.06,0.08,0.11,0.14,0.14c0.09,0.04,0.18,0.06,0.28,0.05c0.13,0,0.27-0.01,0.4-0.03v0.33c-0.08,0.01-0.15,0.02-0.22,0.03
			c-0.07,0.01-0.15,0.01-0.22,0.01c-0.17,0.01-0.35-0.01-0.52-0.06c-0.11-0.03-0.21-0.08-0.29-0.16c-0.06-0.06-0.11-0.15-0.13-0.23
			c-0.02-0.1-0.04-0.19-0.04-0.29v-0.27h-0.03c-0.1,0.16-0.22,0.31-0.37,0.43c-0.18,0.15-0.38,0.27-0.59,0.36
			c-0.25,0.11-0.51,0.19-0.78,0.25c-0.32,0.06-0.64,0.09-0.96,0.09c-0.32,0-0.64-0.02-0.96-0.08c-0.27-0.04-0.53-0.12-0.78-0.24
			c-0.21-0.1-0.38-0.25-0.52-0.44c-0.13-0.2-0.19-0.44-0.18-0.68c-0.01-0.27,0.08-0.53,0.25-0.73c0.18-0.2,0.39-0.35,0.64-0.45
			c0.28-0.11,0.57-0.19,0.86-0.23c0.32-0.05,0.62-0.08,0.93-0.1c0.6-0.03,1.07-0.06,1.41-0.09c0.26-0.02,0.51-0.07,0.74-0.17
			c0.14-0.05,0.25-0.16,0.3-0.3c0.04-0.16,0.06-0.33,0.06-0.5c-0.01-0.09-0.04-0.18-0.09-0.25c-0.07-0.13-0.18-0.24-0.3-0.33
			c-0.19-0.13-0.4-0.23-0.62-0.29c-0.33-0.09-0.68-0.13-1.02-0.12c-0.55-0.02-1.09,0.1-1.58,0.35c-0.38,0.2-0.63,0.58-0.66,1.01
			h-0.55c0.02-0.53,0.31-1.01,0.77-1.26c0.62-0.31,1.31-0.46,2-0.42c0.31,0,0.62,0.02,0.93,0.06c0.28,0.03,0.55,0.1,0.81,0.21
			c0.22,0.09,0.42,0.23,0.58,0.4c0.15,0.18,0.23,0.42,0.22,0.65L210.61,90.65L210.61,90.65z M210.07,88.71
			c-0.13,0.1-0.28,0.16-0.44,0.19c-0.21,0.05-0.43,0.08-0.64,0.09c-0.24,0.02-0.49,0.04-0.76,0.05c-0.26,0.01-0.53,0.03-0.79,0.06
			c-0.51,0.02-1.01,0.14-1.48,0.34c-0.33,0.15-0.53,0.48-0.52,0.84c0.01,0.33,0.19,0.63,0.47,0.79c0.44,0.24,0.94,0.36,1.44,0.32
			c0.5,0.02,0.99-0.06,1.46-0.23c0.31-0.12,0.59-0.3,0.82-0.54c0.17-0.16,0.29-0.36,0.36-0.58c0.04-0.12,0.06-0.25,0.08-0.38
			L210.07,88.71L210.07,88.71z"/>
		<path id="Trazado_40" class="st5" d="M212.45,84.52h0.52v3.06H213c0.11-0.2,0.26-0.38,0.44-0.52c0.2-0.15,0.42-0.28,0.65-0.38
			c0.26-0.11,0.53-0.18,0.8-0.23c0.29-0.05,0.58-0.07,0.87-0.08c0.47-0.01,0.95,0.06,1.4,0.2c0.36,0.12,0.7,0.3,0.99,0.55
			c0.26,0.22,0.46,0.49,0.59,0.81c0.13,0.32,0.2,0.66,0.19,1c0.02,0.51-0.1,1.02-0.36,1.46c-0.21,0.34-0.5,0.63-0.85,0.84
			c-0.32,0.19-0.67,0.32-1.04,0.39c-0.3,0.06-0.61,0.09-0.92,0.1c-0.41,0.01-0.83-0.04-1.23-0.16c-0.29-0.09-0.57-0.21-0.83-0.37
			c-0.19-0.11-0.36-0.26-0.5-0.42c-0.08-0.09-0.15-0.2-0.21-0.31h-0.03v1.14h-0.52v-7.07L212.45,84.52z M215.76,91.39
			c0.42,0.01,0.83-0.06,1.22-0.22c0.31-0.13,0.58-0.32,0.81-0.57c0.21-0.23,0.36-0.5,0.45-0.79c0.09-0.28,0.14-0.58,0.14-0.88
			c0-0.28-0.06-0.56-0.16-0.82c-0.11-0.27-0.28-0.51-0.5-0.71c-0.24-0.22-0.52-0.39-0.82-0.5c-0.37-0.13-0.75-0.2-1.14-0.19
			c-0.42-0.01-0.83,0.05-1.23,0.17c-0.32,0.09-0.61,0.25-0.86,0.47c-0.22,0.19-0.4,0.43-0.51,0.7c-0.11,0.28-0.17,0.58-0.17,0.88
			c0,0.31,0.05,0.62,0.16,0.91c0.1,0.3,0.27,0.57,0.49,0.79c0.24,0.24,0.54,0.43,0.86,0.55C214.89,91.33,215.33,91.4,215.76,91.39
			L215.76,91.39z"/>
		<path id="Trazado_41" class="st5" d="M220.85,84.52v7.07h-0.54v-7.07H220.85z"/>
		<path id="Trazado_42" class="st5" d="M222.78,89.1c-0.01,0.29,0.04,0.59,0.15,0.86c0.11,0.28,0.28,0.53,0.5,0.73
			c0.25,0.22,0.53,0.39,0.84,0.5c0.96,0.31,2,0.23,2.9-0.21c0.43-0.24,0.75-0.64,0.88-1.11h0.54c-0.13,0.58-0.5,1.08-1.03,1.37
			c-0.65,0.34-1.38,0.5-2.11,0.47c-0.47,0.01-0.95-0.06-1.4-0.2c-0.37-0.12-0.71-0.3-1.01-0.55c-0.53-0.45-0.82-1.12-0.8-1.82
			c-0.01-0.35,0.05-0.7,0.18-1.02c0.13-0.33,0.34-0.64,0.6-0.88c0.29-0.27,0.64-0.48,1.01-0.62c0.46-0.16,0.94-0.24,1.43-0.23
			c0.5-0.01,1,0.06,1.47,0.22c0.38,0.12,0.72,0.32,1.02,0.59c0.26,0.24,0.45,0.54,0.57,0.87c0.12,0.33,0.17,0.69,0.14,1.04
			L222.78,89.1L222.78,89.1z M228.11,88.77c-0.01-0.27-0.08-0.53-0.2-0.77c-0.13-0.25-0.3-0.48-0.52-0.66
			c-0.25-0.2-0.53-0.35-0.83-0.45c-0.36-0.12-0.73-0.18-1.11-0.17c-0.37-0.01-0.74,0.05-1.09,0.18c-0.3,0.11-0.57,0.27-0.81,0.47
			c-0.22,0.19-0.4,0.41-0.54,0.66c-0.13,0.23-0.21,0.49-0.24,0.75L228.11,88.77L228.11,88.77z"/>
	</g>
</g>
</svg>
