<svg xmlns="http://www.w3.org/2000/svg" width="259.636" height="103.739" viewBox="0 0 259.636 103.739">
  <g id="LogoPreving" transform="translate(-8.226 -2.699)">
    <g id="Grupo_11" data-name="Grupo 11" transform="translate(42.744 38.558)" opacity="0.6">
      <g id="Grupo_10" data-name="Grupo 10">
        <path id="Trazado_18" data-name="Trazado 18" d="M228.048,155.455c-17.225,19.321-56.254,15.613-71.251,7.793-34.863-18.177-24.331-39.368-4.02-49.877-55.631,14.2-42.225,49.027-10.5,61.9,29.428,11.942,74.377,6.325,85.768-19.818" transform="translate(-114.76 -113.37)" fill="#fff"/>
      </g>
    </g>
    <path id="Trazado_19" data-name="Trazado 19" d="M245.528,131.563c-17.224,19.32-56.254,15.611-71.25,7.791-34.862-18.177-24.331-39.368-4.021-49.878-55.63,14.2-42.224,49.028-10.5,61.9,29.428,11.941,74.378,6.326,85.768-19.816" transform="translate(-83.832 -58.661)" fill="#fff"/>
    <path id="Trazado_20" data-name="Trazado 20" d="M598.7,86.615a8.755,8.755,0,0,1-6.1-2.064,7.763,7.763,0,0,1-.009-11.015,9.233,9.233,0,0,1,6.309-2,9.656,9.656,0,0,1,5.726,1.542,5.393,5.393,0,0,1,2.323,3.8h-3.9a3.593,3.593,0,0,0-1.283-1.643,4.92,4.92,0,0,0-2.865-.748,4.655,4.655,0,0,0-3.422,1.207,5.288,5.288,0,0,0,0,6.762,4.639,4.639,0,0,0,3.422,1.21,5.022,5.022,0,0,0,2.856-.754,3.781,3.781,0,0,0,1.351-1.608H599.85V78.44h7.062v7.8H604.2l-.2-1.609a6.776,6.776,0,0,1-1.823,1.329,8.129,8.129,0,0,1-3.476.658m14.4-.378h-3.312v-10.7H613.1v1.411a6.388,6.388,0,0,1,1.181-1.17,3.514,3.514,0,0,1,2.057-.621c.14,0,.281.006.422.02.17.016.34.036.506.057v2.82c-.155-.013-.26-.023-.32-.029-.13-.008-.367-.011-.726-.011a2.944,2.944,0,0,0-2.3.9,3.614,3.614,0,0,0-.822,2.527v4.788Zm10.054.26a4.511,4.511,0,0,1-3.486-1.169,5.718,5.718,0,0,1-1.075-3.9V75.544h3.314v5.181a4.143,4.143,0,0,0,.52,2.4,2.11,2.11,0,0,0,1.8.708,3.141,3.141,0,0,0,2.287-.783,2.95,2.95,0,0,0,.806-2.23V75.544h3.313V86.238h-3.313v-1.61a6.514,6.514,0,0,1-1.454,1.239,5.414,5.414,0,0,1-2.716.63m16.636-8.649a3.17,3.17,0,0,0-2.306.81,2.98,2.98,0,0,0-.833,2.243,2.938,2.938,0,0,0,.833,2.218,3.7,3.7,0,0,0,4.619.009,2.975,2.975,0,0,0,.825-2.249,2.937,2.937,0,0,0-.836-2.232,3.184,3.184,0,0,0-2.3-.8m-3.139,12.16h-3.292V75.544h3.292v1.074a4.033,4.033,0,0,1,1.278-.9,7.171,7.171,0,0,1,6.93,1.064A5.961,5.961,0,0,1,644.843,85a6.32,6.32,0,0,1-4.464,1.521,5.754,5.754,0,0,1-2.469-.468,4.365,4.365,0,0,1-1.26-.929Zm17.9-12.218a3.166,3.166,0,0,0-2.326.832,3.482,3.482,0,0,0-.011,4.555A3.186,3.186,0,0,0,654.55,84a3.126,3.126,0,0,0,2.311-.834,3.509,3.509,0,0,0,.01-4.554,3.179,3.179,0,0,0-2.321-.822m0,8.826a7.434,7.434,0,0,1-4.981-1.512,5.905,5.905,0,0,1-.011-8.442,9.029,9.029,0,0,1,9.964,0,5.913,5.913,0,0,1,0,8.44,7.44,7.44,0,0,1-4.969,1.512" transform="translate(-393.479 -46.53)" fill="#fff"/>
    <path id="Trazado_21" data-name="Trazado 21" d="M279.464,116.078q-2.944-2.713-8.325-2.707H253.091v30.466h7.642V134.1h10.406q5.421,0,8.347-2.7,2.919-2.68,2.923-7.643T279.464,116.078Zm-6.377,11.073c-1.068.662-2.847.992-5.351.992h-7v-8.53h7.5q3.584,0,5.013.95a3.67,3.67,0,0,1,1.434,3.311,3.555,3.555,0,0,1-1.6,3.277Z" transform="translate(-165.526 -74.813)" fill="#fff"/>
    <path id="Trazado_22" data-name="Trazado 22" d="M362.994,158.27h-7.046V135.531h7.046v3a13.509,13.509,0,0,1,2.51-2.489,7.47,7.47,0,0,1,4.374-1.322c.293,0,.6.014.9.042.36.034.717.078,1.076.119v6c-.33-.027-.555-.049-.682-.061-.274-.015-.788-.022-1.546-.022a6.246,6.246,0,0,0-4.88,1.919A7.669,7.669,0,0,0,363,148.09Z" transform="translate(-235.056 -89.246)" fill="#fff"/>
    <path id="Trazado_23" data-name="Trazado 23" d="M426.536,153.143a6.391,6.391,0,0,1-3.79,1.027,5.736,5.736,0,0,1-4.182-1.462,5.5,5.5,0,0,1-1.539-3.972h19.4q0-7.043-3.406-10.532t-10.271-3.481q-6.445,0-10.047,3.206t-3.607,8.951q0,5.726,3.628,8.957,3.6,3.236,10.026,3.233a15.294,15.294,0,0,0,9.168-2.53,11.544,11.544,0,0,0,4.119-5.648h-7.767a5,5,0,0,1-1.732,2.251Zm-7.721-12.4a7.221,7.221,0,0,1,8.178-.019,4.7,4.7,0,0,1,1.6,3.3L417.225,144a4.544,4.544,0,0,1,1.59-3.259Z" transform="translate(-270.981 -89.247)" fill="#fff"/>
    <path id="Trazado_24" data-name="Trazado 24" d="M60.963,11.068C7.918,31.4-5.256,66.289,22.1,88.9,6.171,74.083,2.28,40.513,60.963,25.986c87.552-16.55,133.372,37.24,101.4,63.778C248.133,31.956,143.736-17.586,60.963,11.068ZM176.65,69.024,166.024,46.285h7.721l6.2,14.85,6.8-14.85h7.621l-11.08,22.739Z" fill="#fff"/>
    <rect id="Rect치ngulo_11" data-name="Rect치ngulo 11" width="7.002" height="22.739" transform="translate(196.884 46.285)" fill="#fff"/>
    <rect id="Rect치ngulo_12" data-name="Rect치ngulo 12" width="7.061" height="2.75" transform="translate(196.603 42.219)" fill="#fff"/>
    <path id="Trazado_25" data-name="Trazado 25" d="M656.886,158.71h-7.044V147.691c0-2.447-.374-4.162-1.112-5.16a4.46,4.46,0,0,0-3.81-1.492,6.633,6.633,0,0,0-4.865,1.688,6.344,6.344,0,0,0-1.73,4.758V158.71H631.28V135.971h7.045V139.4a14.631,14.631,0,0,1,3.129-2.666,11.326,11.326,0,0,1,5.729-1.357q5.149,0,7.427,2.511t2.276,8.3V158.71Z" transform="translate(-421.178 -89.686)" fill="#fff"/>
    <path id="Trazado_26" data-name="Trazado 26" d="M744.176,135.883v2.061a8.994,8.994,0,0,0-2.679-1.815,13.725,13.725,0,0,0-5.335-.886q-5.885,0-9.4,3.038a11.318,11.318,0,0,0,0,16.368q3.484,3.008,9.523,3.01a13.141,13.141,0,0,0,5.251-.909,9.072,9.072,0,0,0,2.636-1.836v1.528c0,1.877-.518,3.214-1.553,3.992s-2.79,1.175-5.266,1.175a8.13,8.13,0,0,1-3.833-.711,2.311,2.311,0,0,1-1.278-2.149H725.2a6.612,6.612,0,0,0,2.986,5.953q2.967,1.931,9.127,1.933a29.39,29.39,0,0,0,3.63-.2,22.41,22.41,0,0,0,3.044-.639,10.074,10.074,0,0,0,5.215-3.116q2.016-2.593,2.02-8.113V135.882h-7.047ZM742.4,150.915a8.2,8.2,0,0,1-9.787.022,6.52,6.52,0,0,1,0-8.936,8.224,8.224,0,0,1,9.787,0,6.485,6.485,0,0,1,0,8.909Z" transform="translate(-483.36 -89.598)" fill="#fff"/>
    <g id="Grupo_12" data-name="Grupo 12" transform="translate(178.557 79.412)">
      <path id="Trazado_27" data-name="Trazado 27" d="M561.852,243.32a2.3,2.3,0,0,0,.012.609,1.075,1.075,0,0,0,.226.52,1.248,1.248,0,0,0,.538.365,2.7,2.7,0,0,0,.956.138,2.788,2.788,0,0,0,1.065-.157,1.145,1.145,0,0,0,.521-.4,1.112,1.112,0,0,0,.175-.551q.018-.3.017-.6V239.46h.5v3.9c0,.111,0,.236-.005.372a1.653,1.653,0,0,1-.069.416,1.536,1.536,0,0,1-.192.408,1.208,1.208,0,0,1-.38.353,2.218,2.218,0,0,1-.629.25,3.968,3.968,0,0,1-.945.1,3.6,3.6,0,0,1-1.279-.182,1.567,1.567,0,0,1-.686-.468,1.343,1.343,0,0,1-.272-.627,4.484,4.484,0,0,1-.051-.657Z" transform="translate(-552.465 -239.459)" fill="#fff"/>
      <path id="Trazado_28" data-name="Trazado 28" d="M584.026,248.424h-.43v-.872h-.023a1.271,1.271,0,0,1-.322.409,2.123,2.123,0,0,1-.487.3,2.727,2.727,0,0,1-.606.19,3.509,3.509,0,0,1-.668.064,3.727,3.727,0,0,1-.866-.087,1.986,1.986,0,0,1-.583-.23,1.293,1.293,0,0,1-.357-.321,1.231,1.231,0,0,1-.186-.361,1.512,1.512,0,0,1-.068-.353c-.008-.114-.012-.213-.012-.3v-2.52h.431v2.576a2.637,2.637,0,0,0,.034.384.928.928,0,0,0,.2.435,1.293,1.293,0,0,0,.493.361,2.284,2.284,0,0,0,.929.15,2.836,2.836,0,0,0,.877-.126,1.952,1.952,0,0,0,.663-.354,1.482,1.482,0,0,0,.413-.538,1.637,1.637,0,0,0,.142-.686v-2.2h.43v4.073Z" transform="translate(-564.677 -242.766)" fill="#fff"/>
      <path id="Trazado_29" data-name="Trazado 29" d="M597.554,244.153h.431v.871h.022a1.256,1.256,0,0,1,.323-.407,2.061,2.061,0,0,1,.486-.306,2.693,2.693,0,0,1,.606-.191,3.546,3.546,0,0,1,.668-.063,3.693,3.693,0,0,1,.866.087,1.974,1.974,0,0,1,.584.23,1.288,1.288,0,0,1,.356.321,1.216,1.216,0,0,1,.186.361,1.532,1.532,0,0,1,.068.353c.008.113.011.212.011.3v2.52h-.43V245.65a2.654,2.654,0,0,0-.034-.384.952.952,0,0,0-.2-.436,1.3,1.3,0,0,0-.5-.36,2.3,2.3,0,0,0-.924-.151,2.839,2.839,0,0,0-.876.127,2,2,0,0,0-.663.353,1.489,1.489,0,0,0-.412.54,1.645,1.645,0,0,0-.142.685v2.2h-.431v-4.073Z" transform="translate(-576.937 -242.568)" fill="#fff"/>
      <path id="Trazado_30" data-name="Trazado 30" d="M616.506,241.966h-1.268v2.845a.8.8,0,0,0,.079.388.493.493,0,0,0,.244.215,1.255,1.255,0,0,0,.4.09,4.738,4.738,0,0,0,.538.013v.261a5.664,5.664,0,0,1-.64,0,1.711,1.711,0,0,1-.549-.119.87.87,0,0,1-.379-.3.828.828,0,0,1-.119-.547v-2.845h-1.076V241.7h1.076v-1.268h.43V241.7h1.268Z" transform="translate(-587.873 -240.119)" fill="#fff"/>
      <path id="Trazado_31" data-name="Trazado 31" d="M623.9,246.189a1.937,1.937,0,0,1,.69-1.5,2.508,2.508,0,0,1,.838-.463,3.927,3.927,0,0,1,2.287,0,2.517,2.517,0,0,1,.838.463,1.991,1.991,0,0,1,.515.678,1.959,1.959,0,0,1,.175.82,1.984,1.984,0,0,1-.175.825,1.936,1.936,0,0,1-.515.677,2.557,2.557,0,0,1-.838.46,3.913,3.913,0,0,1-2.287,0,2.549,2.549,0,0,1-.838-.46,1.917,1.917,0,0,1-.515-.677,1.985,1.985,0,0,1-.175-.823Zm.43,0a1.721,1.721,0,0,0,.147.7,1.78,1.78,0,0,0,.43.6,2.092,2.092,0,0,0,.7.416,3.084,3.084,0,0,0,1.924,0,2.081,2.081,0,0,0,.7-.416,1.782,1.782,0,0,0,.43-.6,1.737,1.737,0,0,0,0-1.4,1.781,1.781,0,0,0-.43-.6,2.062,2.062,0,0,0-.7-.416,3.071,3.071,0,0,0-1.924,0,2.071,2.071,0,0,0-.7.416,1.771,1.771,0,0,0-.43.6,1.732,1.732,0,0,0-.146.7Z" transform="translate(-594.747 -242.568)" fill="#fff"/>
      <path id="Trazado_32" data-name="Trazado 32" d="M643.234,246.872a.959.959,0,0,0,.181.5,1.389,1.389,0,0,0,.413.372,2.008,2.008,0,0,0,.595.234,3.22,3.22,0,0,0,.735.079,5.651,5.651,0,0,0,.606-.035,2.788,2.788,0,0,0,.6-.13,1.257,1.257,0,0,0,.459-.266A.569.569,0,0,0,647,247.2a.55.55,0,0,0-.17-.42,1.227,1.227,0,0,0-.452-.254,3.809,3.809,0,0,0-.64-.15l-.731-.111q-.374-.056-.736-.127a3.112,3.112,0,0,1-.646-.194,1.2,1.2,0,0,1-.453-.325.766.766,0,0,1-.169-.511.7.7,0,0,1,.193-.5,1.344,1.344,0,0,1,.492-.321,2.932,2.932,0,0,1,.673-.17,5.518,5.518,0,0,1,.747-.051,4.822,4.822,0,0,1,.855.071,2.222,2.222,0,0,1,.679.23,1.228,1.228,0,0,1,.453.4,1.041,1.041,0,0,1,.165.594h-.431a.824.824,0,0,0-.136-.475,1.019,1.019,0,0,0-.362-.321,1.875,1.875,0,0,0-.543-.182,3.676,3.676,0,0,0-.68-.06,4.617,4.617,0,0,0-.594.04,2.238,2.238,0,0,0-.538.135,1.133,1.133,0,0,0-.39.246.488.488,0,0,0-.154.364.5.5,0,0,0,.171.4,1.243,1.243,0,0,0,.447.243,4.077,4.077,0,0,0,.622.145l.7.111c.288.037.557.08.81.13a2.875,2.875,0,0,1,.657.206,1.166,1.166,0,0,1,.435.337.836.836,0,0,1,.159.523.739.739,0,0,1-.216.547,1.6,1.6,0,0,1-.543.345,2.974,2.974,0,0,1-.731.182,6.132,6.132,0,0,1-.787.052,4.408,4.408,0,0,1-.922-.092,2.45,2.45,0,0,1-.741-.278,1.493,1.493,0,0,1-.5-.455,1.161,1.161,0,0,1-.193-.627h.43Z" transform="translate(-607.525 -242.568)" fill="#fff"/>
      <path id="Trazado_33" data-name="Trazado 33" d="M670.453,239.458v2.457h.023a1.238,1.238,0,0,1,.323-.407,2.056,2.056,0,0,1,.487-.306,2.677,2.677,0,0,1,.606-.191,3.555,3.555,0,0,1,.668-.063,3.69,3.69,0,0,1,.865.087,1.973,1.973,0,0,1,.584.23,1.291,1.291,0,0,1,.356.321,1.219,1.219,0,0,1,.187.361,1.61,1.61,0,0,1,.068.353c.007.113.011.212.011.3v2.52h-.43v-2.576a2.716,2.716,0,0,0-.034-.384.94.94,0,0,0-.2-.436,1.29,1.29,0,0,0-.5-.36,2.291,2.291,0,0,0-.923-.151,2.847,2.847,0,0,0-.877.127,2.007,2.007,0,0,0-.661.353,1.472,1.472,0,0,0-.413.54,1.642,1.642,0,0,0-.142.685v2.2h-.43v-5.659Z" transform="translate(-625.925 -239.458)" fill="#fff"/>
      <path id="Trazado_34" data-name="Trazado 34" d="M691.881,247.467a1.418,1.418,0,0,0,.007.173.413.413,0,0,0,.039.158.255.255,0,0,0,.114.115.47.47,0,0,0,.225.044,2.942,2.942,0,0,0,.317-.024v.261a1.65,1.65,0,0,1-.175.023,1.723,1.723,0,0,1-.175.008,1.462,1.462,0,0,1-.413-.047.57.57,0,0,1-.232-.128.4.4,0,0,1-.108-.186.917.917,0,0,1-.029-.234v-.214h-.022a1.273,1.273,0,0,1-.295.345,2.013,2.013,0,0,1-.47.289,2.861,2.861,0,0,1-.627.2,3.848,3.848,0,0,1-.77.072,4.6,4.6,0,0,1-.763-.06,2.139,2.139,0,0,1-.623-.194,1.062,1.062,0,0,1-.413-.353.945.945,0,0,1-.148-.543.847.847,0,0,1,.2-.583,1.378,1.378,0,0,1,.509-.357,2.858,2.858,0,0,1,.691-.186q.38-.055.742-.079c.482-.021.859-.046,1.126-.075a1.977,1.977,0,0,0,.595-.135.407.407,0,0,0,.238-.238,1.4,1.4,0,0,0,.046-.4.483.483,0,0,0-.068-.2.846.846,0,0,0-.244-.265,1.588,1.588,0,0,0-.493-.235,2.8,2.8,0,0,0-.815-.1,2.515,2.515,0,0,0-1.262.277.987.987,0,0,0-.526.808h-.43a1.2,1.2,0,0,1,.618-1.01,3.175,3.175,0,0,1,1.6-.337,5.781,5.781,0,0,1,.747.047,2.587,2.587,0,0,1,.651.166,1.191,1.191,0,0,1,.465.325.775.775,0,0,1,.175.522v2.35Zm-.43-1.555a.818.818,0,0,1-.35.155,3.545,3.545,0,0,1-.516.075q-.289.025-.606.041t-.633.048a3.261,3.261,0,0,0-1.183.273.7.7,0,0,0-.414.67.746.746,0,0,0,.38.629,2.059,2.059,0,0,0,1.149.258,3,3,0,0,0,1.167-.186,1.97,1.97,0,0,0,.656-.427,1.167,1.167,0,0,0,.289-.468,1.5,1.5,0,0,0,.061-.306v-.761Z" transform="translate(-637.618 -242.567)" fill="#fff"/>
      <path id="Trazado_35" data-name="Trazado 35" d="M709.465,245.412a.943.943,0,0,0-.2-.475,1.311,1.311,0,0,0-.425-.341,2.313,2.313,0,0,0-.606-.206,3.686,3.686,0,0,0-.742-.072,2.769,2.769,0,0,0-.963.155,2.12,2.12,0,0,0-.7.412,1.759,1.759,0,0,0-.43.586,1.634,1.634,0,0,0-.147.678,2.088,2.088,0,0,0,.135.761,1.6,1.6,0,0,0,.419.606,1.966,1.966,0,0,0,.7.4,3.064,3.064,0,0,0,.985.142,2.839,2.839,0,0,0,.753-.094,2.28,2.28,0,0,0,.611-.263,1.519,1.519,0,0,0,.435-.4,1.3,1.3,0,0,0,.228-.511h.429a1.487,1.487,0,0,1-.289.649,1.941,1.941,0,0,1-.543.48,2.681,2.681,0,0,1-.736.3,4.071,4.071,0,0,1-2.106-.075,2.346,2.346,0,0,1-.826-.48,1.867,1.867,0,0,1-.476-.694,2.235,2.235,0,0,1-.153-.82,1.892,1.892,0,0,1,.69-1.475,2.555,2.555,0,0,1,.838-.451,3.588,3.588,0,0,1,1.143-.167,4.479,4.479,0,0,1,.889.084,2.819,2.819,0,0,1,.736.249,1.61,1.61,0,0,1,.526.42,1.182,1.182,0,0,1,.249.6h-.429Z" transform="translate(-649.45 -242.567)" fill="#fff"/>
      <path id="Trazado_36" data-name="Trazado 36" d="M724.076,240.274v-.816h.43v.816Zm0,4.842v-4.073h.43v4.073Z" transform="translate(-662.464 -239.458)" fill="#fff"/>
      <path id="Trazado_37" data-name="Trazado 37" d="M733.359,247.467a1.663,1.663,0,0,0,.006.173.4.4,0,0,0,.039.158.258.258,0,0,0,.113.115.475.475,0,0,0,.227.044,2.923,2.923,0,0,0,.317-.024v.261a1.754,1.754,0,0,1-.176.023,1.71,1.71,0,0,1-.175.008,1.454,1.454,0,0,1-.413-.047.572.572,0,0,1-.233-.128.4.4,0,0,1-.107-.186.892.892,0,0,1-.029-.234v-.214h-.022a1.285,1.285,0,0,1-.294.345,2.053,2.053,0,0,1-.47.289,2.848,2.848,0,0,1-.629.2,3.832,3.832,0,0,1-.769.072,4.628,4.628,0,0,1-.764-.06,2.148,2.148,0,0,1-.623-.194,1.069,1.069,0,0,1-.412-.353.945.945,0,0,1-.147-.543.849.849,0,0,1,.2-.583,1.383,1.383,0,0,1,.509-.357,2.847,2.847,0,0,1,.691-.186c.252-.037.5-.063.741-.079q.724-.031,1.127-.075a1.975,1.975,0,0,0,.594-.135.406.406,0,0,0,.237-.238,1.407,1.407,0,0,0,.045-.4.488.488,0,0,0-.068-.2.839.839,0,0,0-.244-.265,1.583,1.583,0,0,0-.493-.235,2.8,2.8,0,0,0-.815-.1,2.519,2.519,0,0,0-1.263.277.986.986,0,0,0-.526.808h-.43a1.2,1.2,0,0,1,.616-1.01,3.181,3.181,0,0,1,1.6-.337,5.792,5.792,0,0,1,.747.047,2.612,2.612,0,0,1,.652.166,1.192,1.192,0,0,1,.464.325.774.774,0,0,1,.176.522v2.35Zm-.431-1.555a.821.821,0,0,1-.35.155,3.575,3.575,0,0,1-.515.075q-.29.025-.606.041t-.634.048a3.261,3.261,0,0,0-1.182.273.7.7,0,0,0-.414.67.748.748,0,0,0,.379.629,2.064,2.064,0,0,0,1.149.258,3,3,0,0,0,1.167-.186,1.967,1.967,0,0,0,.657-.427,1.164,1.164,0,0,0,.288-.468,1.426,1.426,0,0,0,.062-.306v-.761Z" transform="translate(-665.656 -242.567)" fill="#fff"/>
      <path id="Trazado_38" data-name="Trazado 38" d="M761.425,248.424h-.43v-.872h-.022a1.279,1.279,0,0,1-.323.409,2.128,2.128,0,0,1-.487.3,2.721,2.721,0,0,1-.606.19,3.506,3.506,0,0,1-.669.064,3.716,3.716,0,0,1-.865-.087,1.971,1.971,0,0,1-.583-.23,1.272,1.272,0,0,1-.357-.321,1.209,1.209,0,0,1-.187-.361,1.508,1.508,0,0,1-.067-.353c-.007-.114-.012-.213-.012-.3v-2.52h.43v2.576a2.587,2.587,0,0,0,.034.384.931.931,0,0,0,.2.435,1.274,1.274,0,0,0,.492.361,2.286,2.286,0,0,0,.929.15,2.845,2.845,0,0,0,.877-.126,1.947,1.947,0,0,0,.662-.354,1.477,1.477,0,0,0,.414-.538,1.647,1.647,0,0,0,.142-.686v-2.2h.43v4.073Z" transform="translate(-684.597 -242.766)" fill="#fff"/>
      <path id="Trazado_39" data-name="Trazado 39" d="M774.951,244.153h.431v.871h.023a1.249,1.249,0,0,1,.322-.407,2.078,2.078,0,0,1,.487-.306,2.675,2.675,0,0,1,.606-.191,3.543,3.543,0,0,1,.668-.063,3.692,3.692,0,0,1,.866.087,1.978,1.978,0,0,1,.583.23,1.289,1.289,0,0,1,.356.321,1.242,1.242,0,0,1,.187.361,1.485,1.485,0,0,1,.067.353c.008.113.012.212.012.3v2.52h-.43V245.65a2.663,2.663,0,0,0-.034-.384.945.945,0,0,0-.2-.436,1.287,1.287,0,0,0-.5-.36,2.294,2.294,0,0,0-.924-.151,2.839,2.839,0,0,0-.876.127,2.012,2.012,0,0,0-.663.353,1.48,1.48,0,0,0-.412.54,1.629,1.629,0,0,0-.142.685v2.2h-.431v-4.073Z" transform="translate(-696.855 -242.568)" fill="#fff"/>
      <path id="Trazado_40" data-name="Trazado 40" d="M796.813,247.467a1.663,1.663,0,0,0,.006.173.4.4,0,0,0,.039.158.264.264,0,0,0,.113.115.475.475,0,0,0,.227.044,2.913,2.913,0,0,0,.316-.024v.261a2.033,2.033,0,0,1-.35.031,1.464,1.464,0,0,1-.413-.047.576.576,0,0,1-.232-.128.4.4,0,0,1-.107-.186.888.888,0,0,1-.029-.234v-.214h-.022a1.282,1.282,0,0,1-.294.345,2.035,2.035,0,0,1-.471.289,2.848,2.848,0,0,1-.628.2,3.834,3.834,0,0,1-.77.072,4.621,4.621,0,0,1-.764-.06,2.137,2.137,0,0,1-.623-.194,1.071,1.071,0,0,1-.413-.353.952.952,0,0,1-.147-.543.849.849,0,0,1,.2-.583,1.387,1.387,0,0,1,.509-.357,2.831,2.831,0,0,1,.692-.186c.252-.037.5-.063.741-.079q.724-.031,1.127-.075a1.972,1.972,0,0,0,.594-.135.406.406,0,0,0,.238-.238,1.408,1.408,0,0,0,.046-.4.493.493,0,0,0-.068-.2.84.84,0,0,0-.244-.265,1.59,1.59,0,0,0-.493-.235,2.8,2.8,0,0,0-.815-.1,2.518,2.518,0,0,0-1.263.277.986.986,0,0,0-.526.808h-.43a1.2,1.2,0,0,1,.616-1.01,3.184,3.184,0,0,1,1.6-.337,5.789,5.789,0,0,1,.747.047,2.594,2.594,0,0,1,.652.166,1.194,1.194,0,0,1,.464.325.777.777,0,0,1,.176.522v2.35Zm-.431-1.555a.826.826,0,0,1-.35.155,3.552,3.552,0,0,1-.515.075q-.29.025-.606.041t-.633.048a3.263,3.263,0,0,0-1.183.273.7.7,0,0,0-.413.67.747.747,0,0,0,.378.629,2.063,2.063,0,0,0,1.149.258,3,3,0,0,0,1.167-.186,1.964,1.964,0,0,0,.656-.427,1.163,1.163,0,0,0,.289-.468,1.437,1.437,0,0,0,.062-.306v-.761Z" transform="translate(-708.551 -242.567)" fill="#fff"/>
      <path id="Trazado_41" data-name="Trazado 41" d="M534.353,273.406a1.748,1.748,0,0,0,.119.689,1.6,1.6,0,0,0,.4.587,2.015,2.015,0,0,0,.674.4,3.08,3.08,0,0,0,2.32-.17,1.459,1.459,0,0,0,.708-.892h.431a1.665,1.665,0,0,1-.821,1.1,3.357,3.357,0,0,1-1.692.377,3.565,3.565,0,0,1-1.122-.163,2.351,2.351,0,0,1-.809-.444,1.834,1.834,0,0,1-.64-1.454,2.086,2.086,0,0,1,.141-.817,1.936,1.936,0,0,1,.475-.706,2.383,2.383,0,0,1,.81-.5,3.2,3.2,0,0,1,1.144-.186,3.568,3.568,0,0,1,1.177.174,2.283,2.283,0,0,1,.815.472,1.747,1.747,0,0,1,.458.693,2,2,0,0,1,.108.833h-4.7Zm4.269-.262a1.528,1.528,0,0,0-.158-.618,1.614,1.614,0,0,0-.419-.527,2.108,2.108,0,0,0-.663-.363,2.612,2.612,0,0,0-.888-.139,2.462,2.462,0,0,0-.867.142,2.161,2.161,0,0,0-.652.377,1.829,1.829,0,0,0-.43.531,1.661,1.661,0,0,0-.193.6h4.269Z" transform="translate(-533.922 -260.939)" fill="#fff"/>
      <path id="Trazado_42" data-name="Trazado 42" d="M552.9,271.328h.43v.832h.022a.972.972,0,0,1,.237-.36,1.658,1.658,0,0,1,.413-.3,2.34,2.34,0,0,1,.543-.2,2.723,2.723,0,0,1,.629-.071,3.067,3.067,0,0,1,.724.075,2.08,2.08,0,0,1,.521.2,1.207,1.207,0,0,1,.339.278.887.887,0,0,1,.17.312h.022a1.721,1.721,0,0,1,.7-.641,2.521,2.521,0,0,1,1.148-.223,3,3,0,0,1,.73.084,1.74,1.74,0,0,1,.578.253,1.211,1.211,0,0,1,.379.432,1.32,1.32,0,0,1,.136.618V275.4h-.43v-2.79a.985.985,0,0,0-.171-.61,1.145,1.145,0,0,0-.4-.337,1.441,1.441,0,0,0-.464-.142,3.079,3.079,0,0,0-.358-.027,2.615,2.615,0,0,0-.73.1,1.625,1.625,0,0,0-.577.285,1.312,1.312,0,0,0-.379.471,1.467,1.467,0,0,0-.136.646v2.41h-.431v-2.79a1.013,1.013,0,0,0-.164-.607,1.076,1.076,0,0,0-.385-.337,1.439,1.439,0,0,0-.452-.142,3.011,3.011,0,0,0-.368-.031,2.427,2.427,0,0,0-.634.087,1.94,1.94,0,0,0-.6.27,1.416,1.416,0,0,0-.44.467,1.281,1.281,0,0,0-.171.673v2.41h-.43v-4.074Z" transform="translate(-546.748 -260.937)" fill="#fff"/>
      <path id="Trazado_43" data-name="Trazado 43" d="M581.41,272.266h.034a1.383,1.383,0,0,1,.226-.333,1.706,1.706,0,0,1,.419-.338,2.677,2.677,0,0,1,.628-.258,3.152,3.152,0,0,1,.843-.1,3.483,3.483,0,0,1,1.161.174,2.379,2.379,0,0,1,.816.468,1.865,1.865,0,0,1,.48.68,2.154,2.154,0,0,1,.159.816,2.242,2.242,0,0,1-.159.856,1.756,1.756,0,0,1-.482.67,2.313,2.313,0,0,1-.817.439,3.777,3.777,0,0,1-1.163.159,3.516,3.516,0,0,1-1.293-.223,1.52,1.52,0,0,1-.829-.722h-.021v2.307h-.419V271.33h.419v.936Zm2.145,2.971a2.888,2.888,0,0,0,.982-.151,1.927,1.927,0,0,0,.681-.4,1.62,1.62,0,0,0,.4-.59,1.989,1.989,0,0,0,.005-1.4,1.7,1.7,0,0,0-.386-.6,1.9,1.9,0,0,0-.675-.428,3.186,3.186,0,0,0-1.992,0,1.845,1.845,0,0,0-.665.42,1.575,1.575,0,0,0-.368.6,2.178,2.178,0,0,0-.113.7,2.414,2.414,0,0,0,.1.7,1.479,1.479,0,0,0,.346.594,1.707,1.707,0,0,0,.659.412,2.944,2.944,0,0,0,1.026.142Z" transform="translate(-565.74 -260.939)" fill="#fff"/>
      <path id="Trazado_44" data-name="Trazado 44" d="M600.533,272.379h.034a.93.93,0,0,1,.294-.373,2.142,2.142,0,0,1,.509-.3,3.053,3.053,0,0,1,.662-.194,3.838,3.838,0,0,1,.765-.06v.3a2.888,2.888,0,0,0-.775.047,2.166,2.166,0,0,0-.833.349,3.146,3.146,0,0,0-.277.23,1.064,1.064,0,0,0-.2.245,1.238,1.238,0,0,0-.125.3,1.859,1.859,0,0,0-.056.4v2.227H600.1v-4.074h.431v.9Z" transform="translate(-578.659 -261.084)" fill="#fff"/>
      <path id="Trazado_45" data-name="Trazado 45" d="M609.441,273.406a1.739,1.739,0,0,0,.119.689,1.6,1.6,0,0,0,.4.587,2.019,2.019,0,0,0,.673.4,3.082,3.082,0,0,0,2.321-.17,1.464,1.464,0,0,0,.708-.892h.43a1.661,1.661,0,0,1-.82,1.1,3.357,3.357,0,0,1-1.692.377,3.558,3.558,0,0,1-1.121-.163,2.344,2.344,0,0,1-.809-.444,1.832,1.832,0,0,1-.641-1.454,2.1,2.1,0,0,1,.142-.817,1.928,1.928,0,0,1,.476-.706,2.379,2.379,0,0,1,.809-.5,3.205,3.205,0,0,1,1.144-.186,3.563,3.563,0,0,1,1.176.174,2.279,2.279,0,0,1,.816.472,1.761,1.761,0,0,1,.459.693,2.008,2.008,0,0,1,.107.833h-4.7Zm4.269-.262a1.532,1.532,0,0,0-.158-.618,1.6,1.6,0,0,0-.42-.527,2.089,2.089,0,0,0-.662-.363,2.613,2.613,0,0,0-.888-.139,2.462,2.462,0,0,0-.867.142,2.131,2.131,0,0,0-.651.377,1.819,1.819,0,0,0-.43.531,1.675,1.675,0,0,0-.193.6h4.269Z" transform="translate(-584.681 -260.939)" fill="#fff"/>
      <path id="Trazado_46" data-name="Trazado 46" d="M627.685,274.047a.963.963,0,0,0,.181.5,1.4,1.4,0,0,0,.413.372,2.035,2.035,0,0,0,.595.234,3.252,3.252,0,0,0,.735.079,5.787,5.787,0,0,0,.606-.035,2.819,2.819,0,0,0,.6-.132,1.242,1.242,0,0,0,.459-.265.57.57,0,0,0,.181-.432.548.548,0,0,0-.169-.421,1.214,1.214,0,0,0-.452-.253,3.849,3.849,0,0,0-.64-.151l-.731-.111c-.249-.037-.494-.08-.736-.127a3.113,3.113,0,0,1-.645-.2,1.177,1.177,0,0,1-.452-.325.764.764,0,0,1-.17-.51.7.7,0,0,1,.193-.5,1.351,1.351,0,0,1,.493-.32,2.852,2.852,0,0,1,.672-.171,5.59,5.59,0,0,1,.749-.051,4.749,4.749,0,0,1,.854.071,2.247,2.247,0,0,1,.679.23,1.263,1.263,0,0,1,.453.4,1.045,1.045,0,0,1,.164.594h-.43a.815.815,0,0,0-.137-.475,1.017,1.017,0,0,0-.361-.321,1.89,1.89,0,0,0-.544-.182,3.668,3.668,0,0,0-.679-.059,4.506,4.506,0,0,0-.6.039,2.284,2.284,0,0,0-.538.134,1.178,1.178,0,0,0-.391.246.494.494,0,0,0-.152.365.5.5,0,0,0,.169.4,1.232,1.232,0,0,0,.447.242,4.014,4.014,0,0,0,.622.147l.7.111c.287.036.556.08.809.13a2.844,2.844,0,0,1,.656.207,1.147,1.147,0,0,1,.437.337.836.836,0,0,1,.158.523.74.74,0,0,1-.215.546,1.58,1.58,0,0,1-.544.345,3.023,3.023,0,0,1-.73.182,6.248,6.248,0,0,1-.788.052,4.407,4.407,0,0,1-.922-.092,2.5,2.5,0,0,1-.741-.277,1.52,1.52,0,0,1-.5-.456,1.167,1.167,0,0,1-.192-.626h.43Z" transform="translate(-597.014 -260.938)" fill="#fff"/>
      <path id="Trazado_47" data-name="Trazado 47" d="M648.484,274.644a1.692,1.692,0,0,0,.006.174.415.415,0,0,0,.04.158.25.25,0,0,0,.113.114.476.476,0,0,0,.226.044,3.085,3.085,0,0,0,.317-.023v.261c-.061.011-.119.019-.176.024a1.71,1.71,0,0,1-.175.008,1.449,1.449,0,0,1-.413-.047.566.566,0,0,1-.231-.127.4.4,0,0,1-.108-.187.893.893,0,0,1-.029-.234V274.6h-.023a1.265,1.265,0,0,1-.294.344,2.074,2.074,0,0,1-.47.289,2.982,2.982,0,0,1-.628.2,3.933,3.933,0,0,1-.771.071,4.649,4.649,0,0,1-.764-.06,2.122,2.122,0,0,1-.623-.194,1.086,1.086,0,0,1-.413-.352.946.946,0,0,1-.147-.543.847.847,0,0,1,.2-.583,1.372,1.372,0,0,1,.508-.356,2.824,2.824,0,0,1,.692-.186q.378-.056.741-.08c.483-.021.859-.047,1.127-.075a2.031,2.031,0,0,0,.593-.134.41.41,0,0,0,.238-.238,1.417,1.417,0,0,0,.045-.4.484.484,0,0,0-.068-.2.831.831,0,0,0-.244-.264,1.575,1.575,0,0,0-.493-.236,2.8,2.8,0,0,0-.815-.1,2.521,2.521,0,0,0-1.262.277.989.989,0,0,0-.526.809h-.43a1.2,1.2,0,0,1,.616-1.011,3.18,3.18,0,0,1,1.6-.337,5.793,5.793,0,0,1,.748.047,2.611,2.611,0,0,1,.651.167,1.186,1.186,0,0,1,.464.324.774.774,0,0,1,.176.521v2.349Zm-.43-1.554a.835.835,0,0,1-.351.155,3.717,3.717,0,0,1-.514.074q-.289.024-.606.039c-.211.01-.423.028-.634.049a3.265,3.265,0,0,0-1.183.273.7.7,0,0,0-.413.67.749.749,0,0,0,.378.63,2.058,2.058,0,0,0,1.15.258,2.983,2.983,0,0,0,1.166-.186,1.936,1.936,0,0,0,.656-.428,1.169,1.169,0,0,0,.289-.467,1.476,1.476,0,0,0,.062-.3V273.1Z" transform="translate(-608.281 -260.939)" fill="#fff"/>
      <path id="Trazado_48" data-name="Trazado 48" d="M671.675,274.047a.973.973,0,0,0,.181.5,1.381,1.381,0,0,0,.413.372,2.024,2.024,0,0,0,.594.234,3.258,3.258,0,0,0,.736.079,5.783,5.783,0,0,0,.605-.035,2.812,2.812,0,0,0,.6-.132,1.247,1.247,0,0,0,.458-.265.569.569,0,0,0,.182-.432.551.551,0,0,0-.17-.421,1.216,1.216,0,0,0-.452-.253,3.828,3.828,0,0,0-.64-.151l-.731-.111c-.249-.037-.494-.08-.736-.127a3.091,3.091,0,0,1-.645-.2,1.177,1.177,0,0,1-.453-.325.762.762,0,0,1-.17-.51.7.7,0,0,1,.193-.5,1.351,1.351,0,0,1,.493-.32,2.868,2.868,0,0,1,.672-.171,5.578,5.578,0,0,1,.748-.051,4.757,4.757,0,0,1,.854.071,2.251,2.251,0,0,1,.68.23,1.267,1.267,0,0,1,.452.4,1.041,1.041,0,0,1,.164.594h-.43a.826.826,0,0,0-.136-.475,1.019,1.019,0,0,0-.362-.321,1.874,1.874,0,0,0-.543-.182,3.673,3.673,0,0,0-.679-.059,4.526,4.526,0,0,0-.595.039,2.293,2.293,0,0,0-.538.134,1.184,1.184,0,0,0-.391.246.538.538,0,0,0,.018.765,1.245,1.245,0,0,0,.447.242,4.009,4.009,0,0,0,.623.147l.7.111c.287.036.557.08.809.13a2.831,2.831,0,0,1,.656.207,1.152,1.152,0,0,1,.437.337.835.835,0,0,1,.157.523.736.736,0,0,1-.215.546,1.581,1.581,0,0,1-.544.345,3.023,3.023,0,0,1-.731.182,6.18,6.18,0,0,1-.787.052,4.413,4.413,0,0,1-.923-.092,2.49,2.49,0,0,1-.741-.277,1.51,1.51,0,0,1-.5-.456,1.153,1.153,0,0,1-.192-.626h.43Z" transform="translate(-626.751 -260.938)" fill="#fff"/>
      <path id="Trazado_49" data-name="Trazado 49" d="M692.473,274.644a1.692,1.692,0,0,0,.006.174.457.457,0,0,0,.039.158.255.255,0,0,0,.114.114.475.475,0,0,0,.226.044,3.076,3.076,0,0,0,.318-.023v.261c-.061.011-.12.019-.176.024a1.674,1.674,0,0,1-.175.008,1.446,1.446,0,0,1-.413-.047.571.571,0,0,1-.232-.127.41.41,0,0,1-.108-.187.94.94,0,0,1-.029-.234V274.6h-.022a1.256,1.256,0,0,1-.294.344,2.077,2.077,0,0,1-.469.289,3,3,0,0,1-.628.2,3.92,3.92,0,0,1-.77.071,4.66,4.66,0,0,1-.764-.06,2.116,2.116,0,0,1-.623-.194,1.069,1.069,0,0,1-.413-.352.944.944,0,0,1-.148-.543.849.849,0,0,1,.2-.583,1.374,1.374,0,0,1,.508-.356,2.828,2.828,0,0,1,.691-.186q.38-.056.742-.08c.484-.021.859-.047,1.127-.075a2.028,2.028,0,0,0,.594-.134.409.409,0,0,0,.238-.238,1.428,1.428,0,0,0,.045-.4.486.486,0,0,0-.068-.2.833.833,0,0,0-.243-.264,1.588,1.588,0,0,0-.493-.236,2.806,2.806,0,0,0-.816-.1,2.522,2.522,0,0,0-1.262.277.987.987,0,0,0-.526.809h-.43a1.2,1.2,0,0,1,.617-1.011,3.177,3.177,0,0,1,1.6-.337,5.8,5.8,0,0,1,.748.047,2.6,2.6,0,0,1,.65.167,1.182,1.182,0,0,1,.464.324.774.774,0,0,1,.176.521v2.349Zm-.431-1.554a.834.834,0,0,1-.351.155,3.728,3.728,0,0,1-.515.074c-.193.016-.394.029-.6.039s-.423.028-.634.049a3.267,3.267,0,0,0-1.183.273.7.7,0,0,0-.413.67.75.75,0,0,0,.379.63,2.058,2.058,0,0,0,1.15.258,2.979,2.979,0,0,0,1.166-.186,1.944,1.944,0,0,0,.656-.428,1.16,1.16,0,0,0,.289-.467,1.43,1.43,0,0,0,.062-.3V273.1Z" transform="translate(-638.017 -260.939)" fill="#fff"/>
      <path id="Trazado_50" data-name="Trazado 50" d="M706.964,266.636v5.659h-.43v-5.659Z" transform="translate(-650.606 -257.83)" fill="#fff"/>
      <path id="Trazado_51" data-name="Trazado 51" d="M716.7,275.6h-.429v-.873h-.023a1.262,1.262,0,0,1-.322.409,2.085,2.085,0,0,1-.487.3,2.709,2.709,0,0,1-.606.191,3.55,3.55,0,0,1-.668.063,3.684,3.684,0,0,1-.866-.087,1.986,1.986,0,0,1-.583-.23,1.281,1.281,0,0,1-.357-.319,1.221,1.221,0,0,1-.187-.362,1.487,1.487,0,0,1-.068-.352q-.012-.171-.012-.3v-2.521h.43V274.1a2.515,2.515,0,0,0,.035.384.919.919,0,0,0,.2.436,1.275,1.275,0,0,0,.492.361,2.3,2.3,0,0,0,.929.151,2.843,2.843,0,0,0,.877-.127,1.971,1.971,0,0,0,.663-.353,1.485,1.485,0,0,0,.412-.539,1.63,1.63,0,0,0,.142-.685v-2.2h.429V275.6Z" transform="translate(-654.361 -261.136)" fill="#fff"/>
      <path id="Trazado_52" data-name="Trazado 52" d="M734.154,271.423h-.023a2.272,2.272,0,0,1-.906.725,3.242,3.242,0,0,1-1.324.242,3.3,3.3,0,0,1-1.132-.175,2.214,2.214,0,0,1-.781-.468,1.822,1.822,0,0,1-.452-.678,2.208,2.208,0,0,1-.148-.8,2.242,2.242,0,0,1,.158-.843,1.787,1.787,0,0,1,.481-.677,2.362,2.362,0,0,1,.809-.453,3.836,3.836,0,0,1,1.835-.1,3.027,3.027,0,0,1,.628.194,1.934,1.934,0,0,1,.5.317,1.35,1.35,0,0,1,.328.428h.023v-2.5h.43V272.3h-.43v-.873Zm-2.163.7a2.616,2.616,0,0,0,.956-.158,1.968,1.968,0,0,0,.668-.42,1.7,1.7,0,0,0,.4-.6,1.893,1.893,0,0,0,.13-.687,1.919,1.919,0,0,0-.13-.692,1.753,1.753,0,0,0-.391-.6,1.844,1.844,0,0,0-.674-.425,2.708,2.708,0,0,0-.967-.157,2.751,2.751,0,0,0-.985.155,1.9,1.9,0,0,0-.674.415,1.551,1.551,0,0,0-.385.6,2.129,2.129,0,0,0-.119.7,1.923,1.923,0,0,0,.13.694,1.732,1.732,0,0,0,.4.6,1.918,1.918,0,0,0,.673.415,2.738,2.738,0,0,0,.968.16Z" transform="translate(-666.054 -257.831)" fill="#fff"/>
      <path id="Trazado_53" data-name="Trazado 53" d="M753.378,274.644a1.692,1.692,0,0,0,.006.174.409.409,0,0,0,.039.158.255.255,0,0,0,.114.114.472.472,0,0,0,.226.044,3.1,3.1,0,0,0,.317-.023v.261c-.061.011-.119.019-.176.024a1.7,1.7,0,0,1-.175.008,1.452,1.452,0,0,1-.413-.047.576.576,0,0,1-.232-.127.419.419,0,0,1-.108-.187.933.933,0,0,1-.029-.234V274.6h-.022a1.26,1.26,0,0,1-.294.344,2.041,2.041,0,0,1-.47.289,2.97,2.97,0,0,1-.628.2,3.919,3.919,0,0,1-.769.071,4.663,4.663,0,0,1-.764-.06,2.133,2.133,0,0,1-.623-.194,1.088,1.088,0,0,1-.413-.352.946.946,0,0,1-.147-.543.85.85,0,0,1,.2-.583,1.375,1.375,0,0,1,.509-.356,2.8,2.8,0,0,1,.691-.186q.379-.056.741-.08c.483-.021.859-.047,1.127-.075a2.03,2.03,0,0,0,.595-.134.413.413,0,0,0,.238-.238,1.441,1.441,0,0,0,.045-.4.481.481,0,0,0-.068-.2.837.837,0,0,0-.243-.264,1.585,1.585,0,0,0-.493-.236,2.808,2.808,0,0,0-.816-.1,2.521,2.521,0,0,0-1.262.277.988.988,0,0,0-.526.809h-.43a1.2,1.2,0,0,1,.617-1.011,3.175,3.175,0,0,1,1.6-.337,5.815,5.815,0,0,1,.748.047,2.614,2.614,0,0,1,.651.167,1.2,1.2,0,0,1,.464.324.775.775,0,0,1,.176.521v2.349Zm-.432-1.554a.822.822,0,0,1-.35.155,3.751,3.751,0,0,1-.516.074q-.288.024-.606.039t-.634.049a3.267,3.267,0,0,0-1.183.273.7.7,0,0,0-.413.67.75.75,0,0,0,.379.63,2.059,2.059,0,0,0,1.149.258,2.98,2.98,0,0,0,1.166-.186,1.944,1.944,0,0,0,.657-.428,1.166,1.166,0,0,0,.289-.467,1.4,1.4,0,0,0,.061-.3V273.1Z" transform="translate(-679.188 -260.939)" fill="#fff"/>
      <path id="Trazado_54" data-name="Trazado 54" d="M767.438,266.636h.419v2.449h.022a1.312,1.312,0,0,1,.352-.416,2.209,2.209,0,0,1,.523-.3,2.967,2.967,0,0,1,.641-.182,4.167,4.167,0,0,1,.7-.06,3.515,3.515,0,0,1,1.118.158,2.3,2.3,0,0,1,.789.437,1.725,1.725,0,0,1,.471.645,2.051,2.051,0,0,1,.154.8,2.129,2.129,0,0,1-.285,1.169,2.045,2.045,0,0,1-.681.673,2.447,2.447,0,0,1-.828.309,4.435,4.435,0,0,1-.738.076,3.282,3.282,0,0,1-.981-.127,2.7,2.7,0,0,1-.664-.3,1.715,1.715,0,0,1-.4-.337,1.24,1.24,0,0,1-.17-.246h-.022v.912h-.419v-5.658Zm2.655,5.492a2.441,2.441,0,0,0,.976-.173,1.824,1.824,0,0,0,.647-.457,1.762,1.762,0,0,0,.363-.634,2.266,2.266,0,0,0,.114-.7,1.714,1.714,0,0,0-.131-.657,1.62,1.62,0,0,0-.4-.566,2,2,0,0,0-.658-.4,2.547,2.547,0,0,0-.914-.15,3.267,3.267,0,0,0-.988.134,1.938,1.938,0,0,0-.692.373,1.516,1.516,0,0,0-.41.562,1.817,1.817,0,0,0-.135.706,2.161,2.161,0,0,0,.125.729,1.67,1.67,0,0,0,.391.63,1.956,1.956,0,0,0,.687.44,2.771,2.771,0,0,0,1.024.163Z" transform="translate(-691.776 -257.83)" fill="#fff"/>
      <path id="Trazado_55" data-name="Trazado 55" d="M787.295,266.636v5.659h-.431v-5.659Z" transform="translate(-704.908 -257.83)" fill="#fff"/>
      <path id="Trazado_56" data-name="Trazado 56" d="M792.044,273.406a1.726,1.726,0,0,0,.12.689,1.592,1.592,0,0,0,.4.587,2.007,2.007,0,0,0,.674.4,3.081,3.081,0,0,0,2.321-.17,1.463,1.463,0,0,0,.707-.892h.431a1.665,1.665,0,0,1-.82,1.1,3.356,3.356,0,0,1-1.692.377,3.562,3.562,0,0,1-1.122-.163,2.34,2.34,0,0,1-.808-.444,1.835,1.835,0,0,1-.64-1.454,2.1,2.1,0,0,1,.141-.817,1.941,1.941,0,0,1,.477-.706,2.37,2.37,0,0,1,.809-.5,3.2,3.2,0,0,1,1.144-.186,3.562,3.562,0,0,1,1.176.174,2.28,2.28,0,0,1,.816.472,1.732,1.732,0,0,1,.457.693,1.977,1.977,0,0,1,.108.833h-4.7Zm4.268-.262a1.535,1.535,0,0,0-.158-.618,1.6,1.6,0,0,0-.419-.527,2.1,2.1,0,0,0-.662-.363,2.615,2.615,0,0,0-.888-.139,2.466,2.466,0,0,0-.868.142,2.146,2.146,0,0,0-.651.377,1.819,1.819,0,0,0-.43.531,1.658,1.658,0,0,0-.193.6h4.268Z" transform="translate(-708.119 -260.939)" fill="#fff"/>
    </g>
  </g>
</svg>
