<svg width="16" height="16" viewBox="0 0 16 16" fill="none" xmlns="http://www.w3.org/2000/svg">
<path fill-rule="evenodd" clip-rule="evenodd" d="M13.25 2H12.5V1.25C12.5 0.8 12.2 0.5 11.75 0.5C11.3 0.5 11 0.8 11 1.25V2H5V1.25C5 0.8 4.7 0.5 4.25 0.5C3.8 0.5 3.5 0.8 3.5 1.25V2H2.75C1.475 2 0.5 2.975 0.5 4.25V5V13.25C0.5 14.525 1.475 15.5 2.75 15.5H13.25C14.525 15.5 15.5 14.525 15.5 13.25V5V4.25C15.5 2.975 14.525 2 13.25 2ZM7.24365 5.725C7.24365 5.38233 7.47156 5.0929 7.78406 5C7.85245 4.97967 7.9249 4.96875 7.9999 4.96875C8.0749 4.96875 8.14735 4.97967 8.21575 5C8.52825 5.0929 8.75615 5.38233 8.75615 5.725V7.99365H11.025C11.4427 7.99365 11.7812 8.33224 11.7812 8.7499C11.7812 9.16757 11.4427 9.50615 11.025 9.50615H8.75615V11.775C8.75615 12.1927 8.41757 12.5312 7.9999 12.5312C7.58224 12.5312 7.24365 12.1927 7.24365 11.775V9.50615H4.975C4.55733 9.50615 4.21875 9.16757 4.21875 8.7499C4.21875 8.33224 4.55733 7.99365 4.975 7.99365H7.24365V5.725Z" fill="#00425B"/>
</svg>
