<svg width="16" height="16" viewBox="0 0 16 16" fill="none" xmlns="http://www.w3.org/2000/svg">
<path fill-rule="evenodd" clip-rule="evenodd" d="M15.5 0H0.5V16H15.5V0ZM9.5625 6.33333C9.5625 8.17433 8.16344 9.66667 6.4375 9.66667C4.71156 9.66667 3.3125 8.17433 3.3125 6.33333C3.3125 4.49233 4.71156 3 6.4375 3C8.16344 3 9.5625 4.49233 9.5625 6.33333ZM9.0575 9.64533C8.32527 10.3063 7.39672 10.6682 6.4375 10.6667C4.19375 10.6667 2.375 8.72667 2.375 6.33333C2.375 3.94 4.19375 2 6.4375 2C8.68125 2 10.5 3.94 10.5 6.33333C10.5 7.39833 10.14 8.37333 9.5425 9.128L10.2325 9L12.5806 11.5047L11.2856 12.886L8.9375 10.3813L9.0575 9.64533ZM6.35875 4.272C5.815 4.29433 5.32344 4.50133 5.06063 4.782C5.00199 4.8445 4.92247 4.8796 4.83958 4.87957C4.75668 4.87954 4.67719 4.84438 4.61859 4.78183C4.56 4.71929 4.52709 4.63447 4.52712 4.54605C4.52715 4.45763 4.56011 4.37284 4.61875 4.31033C5.02406 3.878 5.68406 3.63267 6.33437 3.60567C6.98906 3.57867 7.70375 3.76967 8.20437 4.30367C8.23339 4.33464 8.2564 4.3714 8.27209 4.41186C8.28779 4.45231 8.29586 4.49567 8.29584 4.53945C8.29583 4.58323 8.28773 4.62659 8.27201 4.66703C8.25629 4.70747 8.23325 4.74422 8.20422 4.77517C8.17518 4.80612 8.14072 4.83066 8.10279 4.8474C8.06486 4.86414 8.02422 4.87275 7.98317 4.87273C7.94212 4.87272 7.90148 4.86408 7.86357 4.84731C7.82565 4.83054 7.7912 4.80597 7.76219 4.775C7.42156 4.41167 6.89844 4.24933 6.35875 4.27167V4.272ZM11.7275 13.3573L13.0225 11.976L13.4463 12.428C13.6847 12.6823 13.6847 13.0947 13.4463 13.3487L13.0144 13.8093C12.7759 14.0637 12.3894 14.0637 12.1512 13.8093L11.7275 13.3573Z" fill="#00425B"/>
</svg>
