<svg xmlns="http://www.w3.org/2000/svg" width="40.594" height="40.594" viewBox="0 0 40.594 40.594"><defs><style>.a{fill:#fff;}</style></defs><path class="a" d="M223.521,210.4a13.162,13.162,0,0,0-7.218-11.72A17.9,17.9,0,0,1,198.68,216.3a13.126,13.126,0,0,0,18.4,5.394l6.388,1.767-1.767-6.388a13.075,13.075,0,0,0,1.824-6.677Zm0,0" transform="translate(-182.928 -182.928)"/><path class="a" d="M31,15.5A15.5,15.5,0,1,0,2.149,23.379L.057,30.943l7.565-2.092A15.5,15.5,0,0,0,31,15.5ZM13.122,11.893H10.743A4.757,4.757,0,1,1,18.71,15.4l-2.021,1.85v1.855H14.311v-2.9L17.1,13.648a2.354,2.354,0,0,0,.774-1.756,2.379,2.379,0,1,0-4.757,0Zm1.189,9.593h2.379v2.379H14.311Zm0,0"/></svg>