<svg xmlns="http://www.w3.org/2000/svg" width="18.401" height="18.401" viewBox="0 0 18.401 18.401"><defs><style>.a{fill:#fff;}</style></defs><g transform="translate(1 -1)"><g transform="translate(-1 1)"><path class="a" d="M18.288,17.746l-5.6-5.6a7.311,7.311,0,1,0-.542.542l5.6,5.6a.383.383,0,1,0,.542-.542Zm-11-3.946A6.517,6.517,0,1,1,13.8,7.284,6.524,6.524,0,0,1,7.284,13.8Z" transform="translate(0 0)"/></g><g transform="translate(-1 1)"><path class="a" d="M18.288,17.746l-5.6-5.6a7.311,7.311,0,1,0-.542.542l5.6,5.6a.383.383,0,1,0,.542-.542Zm-11-3.946A6.517,6.517,0,1,1,13.8,7.284,6.524,6.524,0,0,1,7.284,13.8Z" transform="translate(0 0)"/></g></g></svg>