<svg width="16" height="9" viewBox="0 0 16 9" fill="none" xmlns="http://www.w3.org/2000/svg">
<path d="M0.5 4.6759C0.504891 4.82595 0.566027 4.99813 0.668737 5.10636L3.98967 8.65577C4.21465 8.85993 4.64505 8.94356 4.89693 8.70742C5.14392 8.4762 5.13659 8.02607 4.8896 7.79486L2.55418 5.30314L14.8764 5.30314C15.2212 5.30314 15.5 5.02273 15.5 4.6759C15.5 4.32908 15.2212 4.04867 14.8764 4.04867L2.55663 4.04867L4.89204 1.55695C5.10479 1.34295 5.14392 0.87806 4.89938 0.644385C4.65483 0.410709 4.20731 0.484501 3.99211 0.696039L0.668737 4.24545C0.5538 4.36843 0.5 4.5111 0.5 4.6759Z" fill="#8C8C8C"/>
</svg>
