<?xml version="1.0" encoding="utf-8"?>
<!-- Generator: Adobe Illustrator 24.0.2, SVG Export Plug-In . SVG Version: 6.00 Build 0)  -->
<svg version="1.1" id="Capa_1" xmlns="http://www.w3.org/2000/svg" xmlns:xlink="http://www.w3.org/1999/xlink" x="0px" y="0px"
	 viewBox="0 0 30.4 29.1" style="enable-background:new 0 0 30.4 29.1;" xml:space="preserve">
<style type="text/css">
	.st0{fill:#00425B;}
	.st1{fill:#FFFFFF;}
</style>
<path class="st0" d="M6.8,29.1c-0.9,0-1.6-0.7-1.6-1.6c0-0.1,0-0.2,0-0.4l2-8.6l-6.6-5.8c-0.7-0.6-0.7-1.6-0.2-2.3
	c0.3-0.3,0.7-0.5,1.1-0.5l8.8-0.8L13.7,1C14,0.2,15-0.2,15.8,0.1c0.4,0.2,0.7,0.5,0.9,0.9l3.5,8.1l8.8,0.8c0.9,0.1,1.5,0.9,1.5,1.8
	c0,0.4-0.2,0.8-0.5,1.1l-6.6,5.8l2,8.6c0.2,0.9-0.3,1.7-1.2,1.9c-0.4,0.1-0.8,0-1.2-0.2l-7.6-4.5l-7.6,4.5C7.4,29,7.1,29.1,6.8,29.1
	z M15.2,22.4c0.3,0,0.6,0.1,0.8,0.2l7.1,4.3l-1.8-8.1c-0.1-0.6,0.1-1.2,0.5-1.6l6.3-5.5L19.8,11c-0.6-0.1-1.1-0.4-1.3-1l-3.3-7.7
	L11.9,10c-0.2,0.5-0.7,0.9-1.3,1l-8.3,0.8l6.3,5.5c0.4,0.4,0.6,1,0.5,1.6l-1.8,8.1l7.1-4.3C14.6,22.5,14.9,22.4,15.2,22.4L15.2,22.4
	z M10.2,9.3L10.2,9.3z M20.2,9.3L20.2,9.3C20.2,9.3,20.2,9.2,20.2,9.3L20.2,9.3z"/>
<path class="st1" d="M15.2,22.4c0.3,0,0.6,0.1,0.8,0.2l7.1,4.3l-1.8-8.1c-0.1-0.6,0.1-1.2,0.5-1.6l6.3-5.5L19.8,11
	c-0.6-0.1-1.1-0.4-1.3-1l-3.3-7.7L11.9,10c-0.2,0.5-0.7,0.9-1.3,1l-8.3,0.8l6.3,5.5c0.4,0.4,0.6,1,0.5,1.6l-1.8,8.1l7.1-4.3
	C14.6,22.5,14.9,22.4,15.2,22.4L15.2,22.4z"/>
</svg>
