<svg xmlns="http://www.w3.org/2000/svg" width="30" height="31" viewBox="0 0 30 31"><defs><style>.a{fill:#eceff1;}.b{fill:#455a64;}</style></defs><g transform="translate(0.12)"><ellipse class="a" cx="15" cy="15.5" rx="15" ry="15.5" transform="translate(-0.12)"/><path class="b" d="M86.17,84.288a5.641,5.641,0,0,0-2.341-1.081l-4.167-.836a.94.94,0,0,1-.752-.931v-.956a11.416,11.416,0,0,0,.785-1.4,7.677,7.677,0,0,1,.669-1.172,6.212,6.212,0,0,0,1.911-3.027,2.919,2.919,0,0,0-.268-2.242,16.83,16.83,0,0,0-.325-3.84,4.192,4.192,0,0,0-.99-3.076,2.938,2.938,0,0,0-1.765-.741,3.085,3.085,0,0,1-.648-.152A6.7,6.7,0,0,0,75.071,64a7.5,7.5,0,0,0-6.608,4.533,10.784,10.784,0,0,0-.26,3.424l-.025.686a3.043,3.043,0,0,0-.249,2.242,6.2,6.2,0,0,0,1.925,3.042,8.339,8.339,0,0,1,.667,1.167,11.81,11.81,0,0,0,.79,1.393v.956a.944.944,0,0,1-.756.931l-4.17.836a5.654,5.654,0,0,0-2.333,1.079.952.952,0,0,0-.112,1.383,15.126,15.126,0,0,0,22.343,0,.952.952,0,0,0-.112-1.383Z" transform="translate(-60.293 -59.955)"/></g></svg>