<svg xmlns="http://www.w3.org/2000/svg" width="38.061" height="38.061" viewBox="0 0 38.061 38.061">
  <g id="Grupo_3895" data-name="Grupo 3895" transform="translate(8378.5 -4132)">
    <path id="Trazado_774" data-name="Trazado 774" d="M221.156,166.566h0a19.03,19.03,0,0,1-19.03-19.03h0a19.03,19.03,0,0,1,19.03-19.031h0a19.03,19.03,0,0,1,19.031,19.031h0A19.03,19.03,0,0,1,221.156,166.566Z" transform="translate(-8580.626 4003.495)" fill="#4480a2"/>
    <g id="Grupo_1693" data-name="Grupo 1693" transform="translate(-8466.187 3844.017)">
      <path id="Trazado_772" data-name="Trazado 772" d="M118.187,301.214a3.008,3.008,0,0,0-2.116-2.13c-1.867-.5-9.353-.5-9.353-.5s-7.487,0-9.353.5a3.008,3.008,0,0,0-2.117,2.13,33.9,33.9,0,0,0,0,11.6,3.011,3.011,0,0,0,2.117,2.131c1.867.5,9.353.5,9.353.5s7.486,0,9.353-.5a3.011,3.011,0,0,0,2.116-2.131,33.9,33.9,0,0,0,0-11.6Z" fill="#fff"/>
      <path id="Trazado_773" data-name="Trazado 773" d="M106.862,311.9v-7.119l6.257,3.56Z" transform="translate(-2.594 -1.328)" fill="#4480a2"/>
    </g>
  </g>
</svg>
