<svg xmlns="http://www.w3.org/2000/svg" width="38.061" height="38.061" viewBox="0 0 38.061 38.061">
  <g id="Grupo_3893" data-name="Grupo 3893" transform="translate(8501.5 -4132)">
    <path id="Trazado_775" data-name="Trazado 775" d="M221.156,166.566h0a19.03,19.03,0,0,1-19.03-19.03h0a19.03,19.03,0,0,1,19.03-19.031h0a19.03,19.03,0,0,1,19.031,19.031h0A19.03,19.03,0,0,1,221.156,166.566Z" transform="translate(-8703.626 4003.495)" fill="#4480a2"/>
    <path id="Trazado_767" data-name="Trazado 767" d="M162.522,159.039h4.632v-11.6h3.233l.344-3.884h-3.577v-2.212c0-.916.184-1.278,1.07-1.278h2.507v-4.031h-3.208c-3.447,0-5,1.518-5,4.424v3.1h-2.41v3.933h2.41Z" transform="translate(-8647.891 4003.494)" fill="#fff"/>
  </g>
</svg>
