<svg width="20" height="19" viewBox="0 0 20 19" fill="none" xmlns="http://www.w3.org/2000/svg">
<path d="M10.1344 18.0864H1.43676C0.995191 18.0864 0.783992 17.8561 0.822289 17.472C0.84144 17.2799 0.937468 17.1264 1.11023 17.0687C1.32144 17.0111 1.34059 16.8766 1.34059 16.6847V3.11032C1.34059 1.90069 2.24299 0.998253 3.45266 0.998253C5.44939 0.998253 7.46546 1.0174 9.46226 0.979101C10.595 0.95995 11.7087 1.74703 11.7087 3.2255V4.85757C11.7087 5.06878 11.7854 5.12636 11.9966 5.12636H16.7582C18.0446 5.12636 18.9278 6.00963 18.9278 7.31516V16.6848C18.9278 16.8768 18.947 16.992 19.1582 17.0687C19.3886 17.1455 19.4846 17.4143 19.427 17.6639C19.3886 17.8943 19.2158 18.0479 18.9854 18.0672H18.7358C15.8559 18.0863 12.9952 18.0864 10.1344 18.0864ZM2.41596 9.86882V16.704C2.41596 16.9344 2.4927 17.0113 2.72319 17.0113H10.3456C10.5952 17.0113 10.6335 16.9345 10.6335 16.704C10.6144 15.4944 10.6335 14.2849 10.6335 13.0752V3.22562C10.6335 2.49599 10.2303 2.09286 9.51993 2.09286C7.5232 2.09286 5.50713 2.11201 3.51033 2.09286C2.91517 2.09286 2.41586 2.53442 2.41586 3.18733C2.43515 5.41456 2.41596 7.64163 2.41596 9.86882ZM11.7088 11.6161V16.7041C11.7088 16.9153 11.7472 17.0113 11.9967 17.0113H17.5647C17.7759 17.0113 17.8526 16.9537 17.8526 16.7233V7.29614C17.8526 6.62408 17.4494 6.22098 16.7775 6.22098H12.0351C11.7087 6.22098 11.7087 6.22098 11.7087 6.54736C11.7088 8.23686 11.7088 9.92642 11.7088 11.6161Z" fill="black"/>
<path d="M6.52476 5.14562H8.52149C8.88632 5.14562 9.09752 5.33768 9.11665 5.64479C9.13581 5.95202 8.9246 6.16322 8.55992 6.20152C8.38715 6.22067 8.21439 6.22067 8.02232 6.22067H4.70076C4.58558 6.22067 4.45112 6.22067 4.33592 6.18224C4.04798 6.12465 3.87509 5.875 3.89436 5.6062C3.93279 5.33741 4.12472 5.14537 4.43196 5.1262C5.14232 5.14562 5.83356 5.14562 6.52476 5.14562Z" fill="black"/>
<path d="M6.50556 14.4768H4.50883C4.16329 14.4768 3.93279 14.2656 3.91366 13.9584C3.89451 13.6896 4.12487 13.44 4.45126 13.4017C4.60488 13.3825 4.73921 13.3825 4.89283 13.3825H8.32963C8.44481 13.3825 8.55998 13.3825 8.67516 13.4209C8.9631 13.4785 9.13599 13.7282 9.11672 13.9777C9.09757 14.2656 8.88636 14.4577 8.57912 14.4577C7.88806 14.4768 7.19679 14.4768 6.50556 14.4768Z" fill="black"/>
<path d="M6.50556 10.3296H4.43196C4.22075 10.3296 4.06712 10.2336 3.95196 10.0417C3.85593 9.84962 3.85593 9.67684 3.97111 9.48495C4.06714 9.33133 4.22075 9.27374 4.41267 9.27374H8.54067C8.86706 9.27374 9.07827 9.5041 9.07827 9.81134C9.07827 10.1186 8.86707 10.3105 8.52154 10.3298C7.86891 10.3296 7.19676 10.3296 6.50556 10.3296Z" fill="black"/>
<path d="M14.7616 14.4768H14.0128C13.7055 14.4768 13.4752 14.2465 13.456 13.9584C13.4369 13.7087 13.6481 13.44 13.936 13.4208C14.4928 13.3632 15.0496 13.3632 15.6064 13.4208C15.9136 13.4592 16.1056 13.7087 16.0864 13.9775C16.0672 14.2848 15.856 14.4767 15.5297 14.4767C15.28 14.4768 15.0112 14.4768 14.7616 14.4768Z" fill="black"/>
<path d="M14.7808 10.3296H14.032C13.7056 10.3296 13.4752 10.1184 13.4752 9.81119C13.4752 9.48481 13.6864 9.29276 14.0128 9.29276H15.5296C15.8751 9.29276 16.1056 9.52311 16.0863 9.83036C16.0863 10.1376 15.8751 10.3295 15.5103 10.3295C15.2799 10.3297 15.0303 10.3296 14.7808 10.3296Z" fill="black"/>
</svg>
