<svg width="18" height="18" viewBox="0 0 18 18" fill="none" xmlns="http://www.w3.org/2000/svg">
<path d="M9 18C13.9625 18 18 13.9625 18 8.99997C18 4.03748 13.9625 -3.05176e-05 9 -3.05176e-05C4.03751 -3.05176e-05 0 4.03748 0 8.99997C0 13.9625 4.03751 18 9 18ZM9 1.28568C13.2539 1.28568 16.7143 4.74635 16.7143 8.99997C16.7143 13.2536 13.2539 16.7143 9 16.7143C4.74609 16.7143 1.28571 13.2536 1.28571 8.99997C1.28571 4.74635 4.74609 1.28568 9 1.28568Z" fill="black"/>
<path d="M6.73567 7.40715C7.09097 7.40715 7.37853 7.1193 7.37853 6.7643C7.37853 6.26808 7.60267 5.80534 7.99255 5.49467C8.38804 5.18013 8.88337 5.07064 9.39064 5.18802C9.96763 5.32075 10.444 5.79789 10.5765 6.37488C10.7327 7.05418 10.4647 7.73781 9.89342 8.11662C8.93171 8.75474 8.35733 9.86023 8.35733 11.0738C8.35733 11.4288 8.64489 11.7166 9.00018 11.7166C9.35548 11.7166 9.64304 11.4288 9.64304 11.0738C9.64304 10.2922 10.0022 9.58715 10.6042 9.18781C11.6256 8.51009 12.1071 7.29281 11.8296 6.08644C11.5854 5.02415 10.7416 4.17984 9.67948 3.93474C8.79612 3.7317 7.89024 3.93288 7.19214 4.48848C6.49344 5.04468 6.09281 5.87408 6.09281 6.76416C6.09281 7.11931 6.38038 7.40715 6.73567 7.40715Z" fill="black"/>
<path d="M9.01249 12.8571H9.00618C8.65146 12.8571 8.36648 13.145 8.36648 13.5C8.36648 13.855 8.65777 14.1428 9.0125 14.1428C9.36779 14.1428 9.65535 13.855 9.65535 13.5C9.65535 13.145 9.36793 12.8571 9.01249 12.8571Z" fill="black"/>
</svg>
