<svg width="18" height="17" viewBox="0 0 18 17" fill="none" xmlns="http://www.w3.org/2000/svg">
<path d="M5.1533 15.9361C4.56509 16.2453 3.83756 16.0192 3.52832 15.431C3.40518 15.1967 3.36268 14.9285 3.40742 14.6676L4.14206 10.3843L1.03006 7.35089C0.554188 6.88703 0.544451 6.12522 1.00831 5.64935C1.19302 5.45985 1.43505 5.33653 1.69693 5.29848L5.99761 4.67356L7.92093 0.77648C8.21503 0.180557 8.93655 -0.0641142 9.53247 0.229991C9.76977 0.347106 9.96184 0.53918 10.079 0.77648L12.0023 4.67356L16.303 5.29848C16.9606 5.39404 17.4163 6.00463 17.3207 6.66227C17.2826 6.92415 17.1593 7.16617 16.9698 7.35089L13.8578 10.3843L14.5925 14.6676C14.7048 15.3226 14.2649 15.9447 13.6099 16.057C13.3491 16.1017 13.0808 16.0592 12.8466 15.9361L8.99994 13.9138L5.1533 15.9361Z" fill="#FFB700"/>
</svg>
