<svg width="14" height="18" viewBox="0 0 14 18" fill="none" xmlns="http://www.w3.org/2000/svg">
<path d="M-0.00012207 6.42636C0.0492527 2.83001 3.00329 -0.0461442 6.59967 0.000560861C10.1961 -0.0461442 13.1501 2.83001 13.1995 6.42636C13.1979 7.82286 12.7338 9.17951 11.8795 10.2842L6.59967 18L1.31984 10.2842C0.465566 9.17951 0.00139464 7.82286 -0.00012207 6.42636ZM11.9997 6.42638C11.9438 3.49557 9.53092 1.1604 6.59986 1.20055C3.66879 1.1604 1.25587 3.49557 1.20003 6.42638C1.19916 7.57965 1.59058 8.69891 2.30999 9.60028L6.59986 15.8761L10.9257 9.55229C11.622 8.6591 12 7.55891 11.9997 6.42638Z" fill="black"/>
<path d="M3.7196 6.60037C3.7196 4.94357 5.06271 3.60046 6.71951 3.60046C8.37631 3.60046 9.71942 4.94357 9.71942 6.60037C9.71942 8.25717 8.37631 9.60028 6.71951 9.60028C5.06271 9.60028 3.7196 8.25717 3.7196 6.60037ZM8.51969 6.60036C8.51969 5.60628 7.71383 4.80042 6.71974 4.80042C5.72566 4.80042 4.9198 5.60628 4.9198 6.60036C4.9198 7.59444 5.72566 8.4003 6.71974 8.4003C7.71383 8.4003 8.51969 7.59444 8.51969 6.60036Z" fill="black"/>
</svg>
