<svg width="11" height="17" viewBox="0 0 11 17" fill="none" xmlns="http://www.w3.org/2000/svg">
<path d="M1.75 5.60275V11.3332C1.75 12.4603 2.14509 13.5413 2.84835 14.3384C3.55161 15.1354 4.50544 15.5832 5.5 15.5832C6.49456 15.5832 7.44839 15.1354 8.15165 14.3384C8.85491 13.5413 9.25 12.4603 9.25 11.3332V4.24984C9.25 3.49839 8.98661 2.77772 8.51777 2.24637C8.04893 1.71502 7.41304 1.4165 6.75 1.4165C6.08696 1.4165 5.45107 1.71502 4.98223 2.24637C4.51339 2.77772 4.25 3.49839 4.25 4.24984V10.7538C4.25 10.9398 4.28233 11.124 4.34515 11.2959C4.40797 11.4678 4.50004 11.6239 4.61612 11.7555C4.73219 11.887 4.86999 11.9914 5.02165 12.0626C5.1733 12.1338 5.33585 12.1704 5.5 12.1704V12.1704C5.83152 12.1704 6.14946 12.0212 6.38388 11.7555C6.6183 11.4898 6.75 11.1295 6.75 10.7538V5.6665" stroke="#1F2775" stroke-width="2" stroke-linecap="round" stroke-linejoin="round"/>
</svg>
