<svg width="20" height="20" viewBox="0 0 20 20" fill="none" xmlns="http://www.w3.org/2000/svg">
<path d="M10.0472 0C12.3098 0 14.1591 1.84917 14.1591 4.11189C14.1591 6.37447 12.3099 8.22377 10.0472 8.22377C7.78463 8.22377 5.93533 6.37461 5.93533 4.11189C5.93533 1.8493 7.78449 0 10.0472 0ZM10.0472 1.37037C8.525 1.37037 7.30583 2.58953 7.30583 4.11175C7.30583 5.63397 8.525 6.85313 10.0472 6.85313C11.5694 6.85313 12.7886 5.63397 12.7886 4.11175C12.7886 2.58953 11.5694 1.37037 10.0472 1.37037ZM14.1183 10.9649C17.0912 10.9649 19.6006 13.0552 19.6006 15.7618V18.5854V18.595C19.6006 18.9737 19.2934 19.2802 18.9154 19.2802C18.5375 19.2802 18.2303 18.9736 18.2303 18.595V18.5849V15.7618C18.2303 13.9126 16.4608 12.3352 14.1184 12.3352H5.93574H5.9261C5.54748 12.3352 5.24093 12.0287 5.24093 11.6501C5.24093 11.2715 5.54749 10.9649 5.9261 10.9649H5.93627L14.1183 10.9649ZM3.8895 12.3263C4.26397 12.3323 4.56503 12.6364 4.56503 13.0114V13.0216V15.0773H6.62125H6.63089C7.00951 15.0773 7.31606 15.3839 7.31606 15.7625C7.31606 16.1411 7.00949 16.4476 6.63089 16.4476H6.62071H4.56569V18.5038V18.5135C4.56569 18.8921 4.25913 19.1986 3.88053 19.1986C3.50192 19.1986 3.19536 18.8921 3.19536 18.5135V18.5033V16.4476H1.13914H1.1295C0.750885 16.4476 0.444336 16.1411 0.444336 15.7625C0.444336 15.3838 0.750898 15.0773 1.1295 15.0773H1.13968H3.1947V13.0211V13.0121C3.1947 12.6335 3.50126 12.3269 3.87986 12.3269H3.89071L3.8895 12.3263Z" fill="black"/>
</svg>
