<svg width="20" height="12" viewBox="0 0 20 12" fill="none" xmlns="http://www.w3.org/2000/svg">
<path d="M0 5.56787C0.00652122 5.76793 0.0880366 5.99751 0.224982 6.14181L4.65289 10.8744C4.95287 11.1466 5.52673 11.2581 5.86257 10.9432C6.1919 10.6349 6.18212 10.0348 5.85279 9.72648L2.73891 6.40418L19.1685 6.40418C19.6283 6.40418 20 6.0303 20 5.56787C20 5.10544 19.6283 4.73156 19.1685 4.73156L2.74217 4.73156L5.85605 1.40927C6.13973 1.12394 6.1919 0.50408 5.86584 0.192513C5.53978 -0.119055 4.94308 -0.0206653 4.65615 0.261385L0.224982 4.99393C0.0717336 5.15791 0 5.34813 0 5.56787Z" fill="black"/>
</svg>
