<svg width="16" height="16" viewBox="0 0 16 16" fill="none" xmlns="http://www.w3.org/2000/svg">
<path d="M1.80714 0.791099C1.52643 0.51039 1.07132 0.510389 0.79061 0.791095C0.509902 1.0718 0.509901 1.52692 0.790607 1.80763L6.41733 7.43439C6.72974 7.7468 6.72974 8.25333 6.41733 8.56575L0.79071 14.1924C0.510005 14.4732 0.510007 14.9283 0.790717 15.209C1.07143 15.4897 1.52654 15.4897 1.80725 15.209L7.43384 9.5823C7.74626 9.26987 8.2528 9.26987 8.56522 9.58229L14.1919 15.209C14.4726 15.4897 14.9277 15.4897 15.2084 15.209C15.4891 14.9283 15.4891 14.4732 15.2084 14.1925L9.58173 8.56574C9.26931 8.25333 9.26931 7.7468 9.58173 7.43438L15.2084 1.80763C15.4891 1.52692 15.4891 1.0718 15.2084 0.791096C14.9277 0.510391 14.4726 0.510394 14.1919 0.791103L8.56521 6.41783C8.25279 6.73026 7.74625 6.73026 7.43383 6.41783L1.80714 0.791099Z" fill="black"/>
</svg>
