<svg width="20" height="20" viewBox="0 0 20 20" fill="none" xmlns="http://www.w3.org/2000/svg">
<path d="M9.31423 0.684715C9.31423 0.29893 9.614 -7.62939e-06 10 -7.62939e-06C10.386 -7.62939e-06 10.6858 0.29893 10.6858 0.684715V13.7409L14.8799 9.55433C15.1482 9.28657 15.5932 9.28657 15.8615 9.55433C16.1298 9.82219 16.1298 10.2668 15.8615 10.5346L10.4656 15.9207C10.1914 16.1248 9.79297 16.117 9.53448 15.8957L4.11367 10.5098C3.84532 10.242 3.84514 9.7972 4.11349 9.52933C4.38173 9.26158 4.82678 9.26158 5.09502 9.52933L9.31423 13.7409V0.684715Z" fill="#0D0D0D"/>
<path d="M0 15.2305C0 14.8447 0.299771 14.5457 0.68577 14.5457C1.07177 14.5457 1.37154 14.8447 1.37154 15.2305V16.2552C1.37154 17.144 2.09834 17.8698 2.98929 17.8698H17.0107C17.9017 17.8698 18.6285 17.144 18.6285 16.2552V15.2305C18.6285 14.8447 18.9282 14.5457 19.3142 14.5457C19.7033 14.5457 20 14.8728 20 15.2305V16.2552C20 17.89 18.6743 19.2392 17.0107 19.2392H2.98929C1.352 19.2392 0 17.9162 0 16.2552V15.2305Z" fill="#0D0D0D"/>
</svg>
