<svg width="22" height="18" viewBox="0 0 22 18" fill="none" xmlns="http://www.w3.org/2000/svg">
<path d="M15.3771 2.9249L18.8222 6.096C18.9674 6.22959 18.9674 6.44756 18.8222 6.58115L10.4806 14.2593L6.93611 14.6214C6.4625 14.6706 6.06146 14.3015 6.11493 13.8655L6.50833 10.603L14.85 2.9249C14.9951 2.79131 15.2319 2.79131 15.3771 2.9249ZM21.5646 2.11982L19.7007 0.404199C19.1201 -0.130176 18.1767 -0.130176 17.5924 0.404199L16.2403 1.64873C16.0951 1.78232 16.0951 2.00029 16.2403 2.13389L19.6854 5.30498C19.8306 5.43857 20.0674 5.43857 20.2125 5.30498L21.5646 4.06045C22.1451 3.52256 22.1451 2.6542 21.5646 2.11982ZM14.6667 12.171V15.7499H2.44444V4.4999H11.2215C11.3437 4.4999 11.4583 4.4542 11.5462 4.37686L13.074 2.97061C13.3642 2.70342 13.158 2.2499 12.7493 2.2499H1.83333C0.821181 2.2499 0 3.00576 0 3.9374V16.3124C0 17.244 0.821181 17.9999 1.83333 17.9999H15.2778C16.2899 17.9999 17.1111 17.244 17.1111 16.3124V10.7647C17.1111 10.3886 16.6184 10.2022 16.3281 10.4659L14.8003 11.8722C14.7163 11.953 14.6667 12.0585 14.6667 12.171Z" fill="#1F2775"/>
</svg>
