<svg width="22" height="16" viewBox="0 0 22 16" fill="none" xmlns="http://www.w3.org/2000/svg">
<path d="M18.8187 0.466049H3.1901C1.98117 0.466049 1 1.44721 1 2.65615V13.3438C1 14.5528 1.98117 15.5339 3.1901 15.5339H18.8099C20.0188 15.5339 21 14.5528 21 13.3438V2.65615C21 1.44721 20.0188 0.466049 18.8187 0.466049ZM12.5024 8.86728C12.1257 9.27901 11.5738 9.51555 11.0131 9.51555C10.4437 9.51555 9.90057 9.27901 9.52387 8.86728L2.87473 1.6049C2.97985 1.56986 3.09374 1.55234 3.19886 1.55234H18.8187C18.9325 1.55234 19.0377 1.56986 19.1428 1.6049L12.5024 8.86728ZM8.48138 9.3491L8.70915 9.60315C9.31362 10.2602 10.1283 10.6281 11.0044 10.6281C11.8717 10.6281 12.6864 10.2689 13.2996 9.60315L13.5274 9.3491L19.0727 14.4126C18.9851 14.4389 18.8975 14.4477 18.8099 14.4477H3.1901C3.1025 14.4477 3.01489 14.4389 2.93605 14.4126L8.48138 9.3491ZM2.08629 2.65615C2.08629 2.56855 2.09505 2.48094 2.12133 2.39334L7.74551 8.5519L2.13885 13.668C2.10381 13.5541 2.08629 13.449 2.08629 13.3438V2.65615ZM19.9225 2.65615V13.3438C19.9225 13.4577 19.9049 13.5629 19.8787 13.668L14.2632 8.54314L19.8874 2.39334C19.9137 2.48094 19.9225 2.56855 19.9225 2.65615Z" fill="#0D0D0D" stroke="#0D0D0D" stroke-width="0.2"/>
</svg>
