<svg width="14" height="15" viewBox="0 0 14 15" fill="none" xmlns="http://www.w3.org/2000/svg">
<path d="M1.59832 8.01108H3.82484V6.81829H1.59832V8.01108ZM1.59832 8.69265H3.82484V9.88544H1.59832V8.69265ZM1.59832 3.06958H3.82484V4.26234H1.59832V3.06961V3.06958ZM1.59832 4.94393H3.82484V6.1367H1.59832V4.94393ZM1.59832 10.567H3.82484V11.7598H1.59832V10.567V10.567ZM0.0604572 12.9185C0.124059 13.2729 0.521664 13.2814 0.787253 13.2934H5.73327V14.8269H6.7209L14 13.4637V1.53773L6.67795 0.172852H5.73327V1.53091H0.957415C0.688625 1.54283 0.39282 1.52238 0.159059 1.69447C-0.00475788 1.94666 0.0111294 2.26702 0 2.55668L0.0063715 11.4275C0.0143013 11.9234 -0.0365591 12.4295 0.0604572 12.9185ZM8.16815 10.245C8.60707 9.29077 9.05395 8.34334 9.49132 7.38911C9.05874 6.46046 8.6325 5.52841 8.20788 4.59633C8.5689 4.61508 8.92992 4.63893 9.28933 4.6662C9.55812 5.36651 9.87142 6.0481 10.0813 6.77229C10.277 6.089 10.5362 5.43126 10.7731 4.76502C11.123 4.78547 11.4729 4.80762 11.8228 4.82977C11.4538 5.70223 11.061 6.56268 10.7032 7.44023C11.1246 8.29222 11.519 9.15615 11.9278 10.0132C11.5795 10.0286 11.2312 10.0439 10.8829 10.049C10.6348 9.37084 10.3263 8.71822 10.11 8.02641C9.91594 8.76935 9.58675 9.45603 9.31637 10.1666C8.93309 10.1956 8.5514 10.2211 8.16813 10.245H8.16815ZM0.758515 2.34018H5.73327V3.06958H4.46097V4.26234H5.73327V4.94393H4.46097V6.1367H5.73327V6.81829H4.46097V8.01108H5.73327V8.69265H4.46097V9.88544H5.73327V10.567H4.46097V11.7598H5.73327V12.5478H0.758515V2.34018Z" fill="#1F2775"/>
</svg>
