<svg width="24" height="24" viewBox="0 0 24 24" fill="none" xmlns="http://www.w3.org/2000/svg">
<path d="M11.9906 18.6646C17.3423 18.6646 21.6937 12.6377 21.8687 12.3876C22.0438 12.1626 22.0438 11.8375 21.8687 11.6124C21.6937 11.3623 17.3673 5.33544 11.9906 5.33544C6.58893 5.33544 2.28759 11.3623 2.11254 11.6124C1.96249 11.8375 1.96249 12.1626 2.11254 12.3876C2.28759 12.6377 6.61394 18.6646 11.9906 18.6646ZM11.9906 6.66086C15.3874 6.66086 18.4701 9.65497 19.9197 11.3055C20.2639 11.6975 20.2639 12.2775 19.9197 12.6695C18.4701 14.3201 15.3874 17.3142 11.9906 17.3142C8.59381 17.3142 5.51119 14.3201 4.06155 12.6695C3.71731 12.2775 3.71721 11.6974 4.06082 11.3049C5.50593 9.65422 8.57274 6.66086 11.9906 6.66086Z" fill="#666666"/>
<path d="M11.9906 15.9888C14.1913 15.9888 15.9918 14.1882 15.9918 11.9875C15.9918 9.78683 14.1913 7.98627 11.9906 7.98627C9.78988 7.98627 7.98931 9.78683 7.98931 11.9875C7.98931 14.1882 9.78988 15.9888 11.9906 15.9888ZM11.9906 9.31168C13.466 9.31168 14.6664 10.5121 14.6664 11.9875C14.6664 13.463 13.466 14.6634 11.9906 14.6634C10.5151 14.6634 9.31473 13.463 9.31473 11.9875C9.31473 10.5121 10.5151 9.31168 11.9906 9.31168Z" fill="#666666"/>
</svg>
