<svg width="24" height="24" viewBox="0 0 24 24" fill="none" xmlns="http://www.w3.org/2000/svg">
<path d="M20.4683 3.43926C20.2182 3.18691 19.7931 3.18691 19.518 3.43926L16.417 6.56831C15.0916 5.81128 13.5911 5.25613 11.9906 5.25613C6.58893 5.25613 2.28759 11.3376 2.11254 11.5899C1.96249 11.8171 1.96249 12.1451 2.11254 12.3722C2.21257 12.5236 3.88809 14.8704 6.41388 16.662L3.51297 19.5892C3.26289 19.8416 3.26289 20.2705 3.51297 20.5481C3.63801 20.6743 3.81307 20.75 3.98812 20.75C4.16318 20.75 4.33823 20.6743 4.46327 20.5481L7.56424 17.4191C8.88965 18.1761 10.3901 18.7313 11.9906 18.7313C17.3423 18.7313 21.6937 12.6498 21.8687 12.3974C22.0438 12.1703 22.0438 11.8423 21.8687 11.6152C21.7687 11.4638 20.0932 9.11698 17.5674 7.32534L20.4683 4.39816C20.7183 4.12058 20.7183 3.71683 20.4683 3.43926ZM3.48796 11.9937C4.48828 10.7067 8.01438 6.61878 11.9906 6.61878C13.191 6.61878 14.3664 6.9973 15.4417 7.57769L14.3163 8.71323C13.6661 8.23378 12.8659 7.9562 11.9906 7.9562C9.78993 7.9562 7.98937 9.77307 7.98937 11.9937C7.98937 12.8769 8.26446 13.6592 8.73961 14.3405L7.36418 15.7284C5.5136 14.4162 4.08815 12.7507 3.48796 11.9937ZM14.6665 11.9937C14.6665 13.4825 13.4661 14.6938 11.9906 14.6938C11.4905 14.6938 11.0403 14.5424 10.6402 14.3152L14.2663 10.6563C14.5164 11.0348 14.6665 11.489 14.6665 11.9937ZM9.31479 11.9937C9.31479 10.5049 10.5152 9.29362 11.9906 9.29362C12.4908 9.29362 12.9409 9.44502 13.341 9.67213L9.6899 13.3563C9.46483 12.9526 9.31479 12.4984 9.31479 11.9937ZM20.4933 11.9937C19.468 13.2806 15.9419 17.3686 11.9906 17.3686C10.7902 17.3686 9.61488 16.9901 8.53954 16.4097L9.6649 15.2742C10.3151 15.7536 11.1153 16.0312 11.9906 16.0312C14.1913 16.0312 15.9919 14.2143 15.9919 11.9937C15.9919 11.1105 15.7168 10.3282 15.2416 9.6469L16.6171 8.25901C18.4676 9.5712 19.8931 11.2367 20.4933 11.9937Z" fill="#666666"/>
</svg>
