<svg width="24" height="24" viewBox="0 0 24 24" fill="none" xmlns="http://www.w3.org/2000/svg">
<path d="M12 24C15.1826 24 18.2348 22.7357 20.4853 20.4853C22.7357 18.2348 24 15.1826 24 12C24 8.8174 22.7357 5.76516 20.4853 3.51472C18.2348 1.26428 15.1826 0 12 0C8.8174 0 5.76516 1.26428 3.51472 3.51472C1.26428 5.76516 0 8.8174 0 12C0 15.1826 1.26428 18.2348 3.51472 20.4853C5.76516 22.7357 8.8174 24 12 24ZM10.77 17.97V12.6H9V10.45H10.77V8.85C10.77 7 11.85 6 13.42 6C14.17 6 14.82 6.06 15 6.08V8.01H13.91C13.06 8.01 12.89 8.44 12.89 9.06V10.44H14.93L14.66 12.59H12.9V18L10.77 17.97Z" fill="#E6E6E6"/>
</svg>
