<svg width="28" height="16" viewBox="0 0 28 16" fill="none" xmlns="http://www.w3.org/2000/svg">
<path d="M26.4393 2.16362C15.5836 2.16362 13.1894 2.16882 1.64688 2.16362C0.450754 2.16362 0.451263 0.5 1.64707 0.5H26.1477C27.344 0.5 27.344 2.16362 26.4393 2.16362Z" fill="#0D0D0D"/>
<path d="M22.0395 8.82927C11.1838 8.82927 17.5893 8.83447 6.04678 8.82927C4.85066 8.82927 4.85117 7.16565 6.04697 7.16565H21.7479C22.9442 7.16565 22.9442 8.82927 22.0395 8.82927Z" fill="#0D0D0D"/>
<path d="M18.421 15.4949C11.1839 15.4949 21.208 15.5001 9.66544 15.4949C8.46931 15.4949 8.46982 13.8313 9.66562 13.8313H18.1294C19.3257 13.8313 19.3257 15.4949 18.421 15.4949Z" fill="#0D0D0D"/>
</svg>
