<svg width="21" height="21" viewBox="0 0 21 21" fill="none" xmlns="http://www.w3.org/2000/svg">
<path fill-rule="evenodd" clip-rule="evenodd" d="M14.3256 10.667C13.0606 10.667 12.0354 11.6922 12.0354 12.9567C12.0354 14.2217 13.0606 15.2467 14.3256 15.2467C15.5901 15.2467 16.6153 14.2216 16.6153 12.9567C16.6153 11.6922 15.5901 10.667 14.3256 10.667ZM10.7021 12.9567C10.7021 10.9558 12.3245 9.3335 14.3256 9.3335C16.3265 9.3335 17.9488 10.9558 17.9488 12.9567C17.9488 14.9579 16.3265 16.5802 14.3256 16.5802C12.3244 16.5802 10.7021 14.9578 10.7021 12.9567Z" fill="black"/>
<path fill-rule="evenodd" clip-rule="evenodd" d="M14.3248 18.3538C12.3904 18.3538 10.6565 18.9413 9.39888 19.8696L8.60693 18.7969C10.1119 17.6861 12.1284 17.0205 14.3247 17.0205C16.521 17.0205 18.5377 17.6861 20.0424 18.7969L19.2505 19.8696C17.9929 18.9413 16.2589 18.3538 14.3246 18.3538H14.3248Z" fill="black"/>
<path fill-rule="evenodd" clip-rule="evenodd" d="M3.03495 1.6554C2.25115 1.6554 1.61561 2.29095 1.61561 3.07475V18.2147C1.61561 18.9985 2.25115 19.634 3.03495 19.634H7.23949V20.5802H3.03495C1.72855 20.5802 0.669434 19.5211 0.669434 18.2147V3.07475C0.669434 1.76834 1.72855 0.709229 3.03495 0.709229H8.44955C9.04137 0.709229 9.61179 0.931161 10.0479 1.33098L14.5691 5.47547C15.058 5.92362 15.3363 6.55612 15.3363 7.21923V7.33297H14.39V7.21923C14.39 6.82147 14.223 6.44192 13.9298 6.17293L9.40854 2.02845C9.14685 1.78862 8.80467 1.6554 8.44955 1.6554L3.03495 1.6554Z" fill="black" stroke="black" stroke-width="0.2"/>
<path fill-rule="evenodd" clip-rule="evenodd" d="M8.71191 4.49396V1.65527H9.65825V4.49396C9.65825 5.27793 10.2936 5.91331 11.0776 5.91331H14.3893V6.85964H11.0776C9.77103 6.85964 8.71191 5.80053 8.71191 4.49396Z" fill="black" stroke="black" stroke-width="0.2"/>
</svg>
