<svg width="19" height="18" viewBox="0 0 19 18" fill="none" xmlns="http://www.w3.org/2000/svg">
<g clip-path="url(#clip0_1150_15264)">
<path d="M13.4004 12.7252C13.2834 12.6533 13.1411 12.6282 13.0046 12.6553C12.8682 12.6825 12.7486 12.7597 12.6721 12.8702C11.9279 13.9502 10.5609 15.2752 9.34178 15.7202C8.12261 16.1652 7.16733 16.0052 6.78733 15.7202C6.62372 15.5852 6.19622 15.2202 6.56039 13.9752C6.80316 13.1452 8.31261 9.23516 8.6715 8.28516L7.52094 8.42516C7.15678 9.35516 5.78455 12.8452 5.5365 13.7152C5.17761 14.9602 5.35705 15.8652 6.11178 16.4952C6.63911 16.8457 7.27305 17.023 7.91678 17.0002C8.5414 16.9916 9.15887 16.8729 9.73761 16.6502C11.2101 16.1052 12.7565 14.5902 13.5693 13.4152C13.6061 13.3594 13.631 13.2973 13.6425 13.2324C13.6539 13.1674 13.6517 13.101 13.636 13.0369C13.6203 12.9728 13.5915 12.9123 13.551 12.8588C13.5106 12.8053 13.4594 12.7599 13.4004 12.7252Z" fill="red"/>
<path d="M10.186 5.5C10.6558 5.5 11.1149 5.36804 11.5055 5.12081C11.8961 4.87357 12.2005 4.52217 12.3802 4.11104C12.56 3.6999 12.607 3.2475 12.5154 2.81105C12.4238 2.37459 12.1976 1.97368 11.8654 1.65901C11.5333 1.34434 11.1101 1.13005 10.6494 1.04323C10.1887 0.956417 9.71114 1.00097 9.27716 1.17127C8.84319 1.34157 8.47226 1.62996 8.21129 1.99997C7.95033 2.36998 7.81104 2.80499 7.81104 3.25C7.81104 3.84674 8.06126 4.41903 8.50666 4.84099C8.95206 5.26295 9.55615 5.5 10.186 5.5ZM10.186 2C10.447 2 10.7021 2.07331 10.9191 2.21066C11.1361 2.34802 11.3052 2.54324 11.405 2.77165C11.5049 3.00005 11.531 3.25139 11.4801 3.49386C11.4292 3.73634 11.3036 3.95907 11.119 4.13388C10.9345 4.3087 10.6994 4.42775 10.4434 4.47598C10.1875 4.52421 9.9222 4.49946 9.68111 4.40485C9.44001 4.31024 9.23394 4.15003 9.08896 3.94446C8.94398 3.7389 8.86659 3.49723 8.86659 3.25C8.86659 2.91848 9.0056 2.60054 9.25305 2.36612C9.50049 2.1317 9.8361 2 10.186 2Z" fill="red"/>
<path d="M6.23325 7.49976C6.26492 7.49976 9.54242 7.08976 10.313 6.99976C10.656 6.94976 10.9146 6.99976 10.9991 7.07476C11.0835 7.14976 11.1099 7.47476 10.9621 7.91476C10.6402 8.84476 9.01464 13.4148 8.53964 14.7698C8.77181 14.7246 8.99956 14.6611 9.22047 14.5798C9.43176 14.497 9.63487 14.3966 9.82742 14.2798C10.4766 12.4998 11.6905 9.04976 11.9649 8.25976C12.2394 7.46976 12.1708 6.86976 11.8066 6.45976C11.5988 6.26021 11.3388 6.11661 11.0531 6.04368C10.7675 5.97075 10.4665 5.97113 10.181 6.04476C9.42631 6.11976 6.23853 6.51476 6.10131 6.54476C5.96133 6.562 5.83432 6.63121 5.74821 6.73717C5.6621 6.84313 5.62394 6.97715 5.64214 7.10976C5.66034 7.24237 5.73339 7.3627 5.84524 7.44427C5.95708 7.52585 6.09855 7.562 6.23853 7.54476L6.23325 7.49976Z" fill="red"/>
</g>
<defs>
<clipPath id="clip0_1150_15264">
<rect width="19" height="18" fill="red"/>
</clipPath>
</defs>
</svg>
