<svg width="31" height="30" viewBox="0 0 31 30" fill="none" xmlns="http://www.w3.org/2000/svg">
<path fill-rule="evenodd" clip-rule="evenodd" d="M3 11.9712C3 7.43078 6.68078 3.75 11.2212 3.75H18.5288C23.0692 3.75 26.75 7.43078 26.75 11.9712V19.2788C26.75 23.8192 23.0692 27.5 18.5288 27.5H11.2212C6.68078 27.5 3 23.8192 3 19.2788V11.9712ZM11.2212 5.57692C7.68966 5.57692 4.82692 8.43966 4.82692 11.9712V19.2788C4.82692 22.8103 7.68966 25.6731 11.2212 25.6731H18.5288C22.0603 25.6731 24.9231 22.8103 24.9231 19.2788V11.9712C24.9231 8.43966 22.0603 5.57692 18.5288 5.57692H11.2212Z" fill="#0D0D0D"/>
<path d="M13.6731 12.5234C13.6731 11.7948 14.2908 11.1539 15.1154 11.1539C15.94 11.1539 16.5577 11.7948 16.5577 12.5235C16.5577 12.883 16.4126 13.2131 16.1649 13.4625C16.0975 13.5303 16.0221 13.6044 15.9417 13.6834L15.9295 13.6953C15.6236 13.995 15.2459 14.3652 14.9446 14.7492C14.5453 15.2576 14.1538 15.9367 14.1538 16.7774V17.8847C14.1538 18.4157 14.5844 18.8462 15.1154 18.8462C15.6464 18.8462 16.0769 18.4157 16.0769 17.8847V16.7774C16.0769 16.5561 16.1774 16.2932 16.457 15.9367C16.6733 15.6613 16.9234 15.4155 17.2093 15.1346L17.2119 15.132C17.3134 15.0325 17.4192 14.9286 17.5297 14.8172C18.1144 14.2284 18.4808 13.4191 18.4808 12.5234C18.4808 10.6772 16.9459 9.2308 15.1154 9.2308C13.2848 9.2308 11.75 10.6772 11.75 12.5234C11.75 13.0544 12.1805 13.485 12.7115 13.485C13.2425 13.485 13.6731 13.0544 13.6731 12.5234Z" fill="#0D0D0D"/>
<path d="M16.0769 20.7693C16.0769 21.3003 15.6464 21.7308 15.1154 21.7308C14.5844 21.7308 14.1538 21.3003 14.1538 20.7693C14.1538 20.2383 14.5844 19.8077 15.1154 19.8077C15.6464 19.8077 16.0769 20.2383 16.0769 20.7693Z" fill="#0D0D0D"/>
</svg>
