<svg width="24" height="24" viewBox="0 0 24 24" fill="none" xmlns="http://www.w3.org/2000/svg">
<path d="M11.9998 9.66856C10.7123 9.66856 9.66856 10.7123 9.66856 11.9998C9.66856 13.2873 10.7123 14.3311 11.9998 14.3311C13.2873 14.3311 14.3311 13.2873 14.3311 11.9998C14.3311 10.7123 13.2873 9.66856 11.9998 9.66856Z" fill="#E6E6E6"/>
<path d="M9.17336 6.09573C8.54965 6.14669 8.15808 6.24391 7.84539 6.40323C7.22445 6.71962 6.71962 7.22445 6.40323 7.84539C6.24391 8.15808 6.14669 8.54965 6.09573 9.17336C6.0441 9.80526 6.04355 10.6119 6.04355 11.7436V12.2561C6.04355 13.3877 6.0441 14.1944 6.09573 14.8262C6.14669 15.45 6.24391 15.8415 6.40323 16.1542C6.71962 16.7752 7.22445 17.28 7.84539 17.5964C8.15808 17.7557 8.54965 17.8529 9.17336 17.9039C9.80526 17.9555 10.6119 17.9561 11.7436 17.9561H12.2561C13.3877 17.9561 14.1944 17.9555 14.8262 17.9039C15.45 17.8529 15.8415 17.7557 16.1542 17.5964C16.7752 17.28 17.28 16.7752 17.5964 16.1542C17.7557 15.8415 17.8529 15.45 17.9039 14.8262C17.9555 14.1944 17.9561 13.3877 17.9561 12.2561V11.7436C17.9561 10.6119 17.9555 9.80526 17.9039 9.17336C17.8529 8.54965 17.7557 8.15808 17.5964 7.84539C17.28 7.22445 16.7752 6.71962 16.1542 6.40323C15.8415 6.24391 15.45 6.14669 14.8262 6.09573C14.1944 6.0441 13.3877 6.04355 12.2561 6.04355H11.7436C10.6119 6.04355 9.80526 6.0441 9.17336 6.09573ZM8.26855 11.9998C8.26855 9.93909 9.93909 8.26855 11.9998 8.26855C14.0605 8.26855 15.7311 9.93909 15.7311 11.9998C15.7311 14.0605 14.0605 15.7311 11.9998 15.7311C9.93909 15.7311 8.26855 14.0605 8.26855 11.9998ZM15.9061 8.93731C15.4228 8.93731 15.0311 8.54555 15.0311 8.06231C15.0311 7.57906 15.4228 7.1873 15.9061 7.1873C16.3893 7.1873 16.7811 7.57906 16.7811 8.06231C16.7811 8.54555 16.3893 8.93731 15.9061 8.93731Z" fill="#E6E6E6"/>
<path d="M12 24C18.6274 24 24 18.6274 24 12C24 5.37258 18.6274 0 12 0C5.37258 0 0 5.37258 0 12C0 18.6274 5.37258 24 12 24ZM11.7126 4.64355H12.287C13.3809 4.64355 14.2447 4.64355 14.9402 4.70038C15.6505 4.75841 16.2469 4.87918 16.7898 5.15582C17.6742 5.60643 18.3932 6.32544 18.8438 7.2098C19.1204 7.75275 19.2412 8.34906 19.2992 9.05936C19.3561 9.75493 19.3561 10.6187 19.3561 11.7126V12.287C19.3561 13.3809 19.3561 14.2447 19.2992 14.9402C19.2412 15.6505 19.1204 16.2469 18.8438 16.7898C18.3932 17.6742 17.6742 18.3932 16.7898 18.8438C16.2469 19.1204 15.6505 19.2412 14.9402 19.2992C14.2447 19.3561 13.3809 19.3561 12.287 19.3561H11.7126C10.6187 19.3561 9.75493 19.3561 9.05936 19.2992C8.34906 19.2412 7.75275 19.1204 7.2098 18.8438C6.32544 18.3932 5.60643 17.6742 5.15582 16.7898C4.87918 16.2469 4.75841 15.6505 4.70038 14.9402C4.64355 14.2447 4.64355 13.3809 4.64355 12.2871V11.7126C4.64355 10.6187 4.64355 9.75493 4.70038 9.05936C4.75841 8.34906 4.87918 7.75275 5.15582 7.2098C5.60643 6.32544 6.32544 5.60643 7.2098 5.15582C7.75275 4.87918 8.34906 4.75841 9.05936 4.70038C9.75493 4.64355 10.6187 4.64355 11.7126 4.64355Z" fill="#E6E6E6"/>
</svg>
