<svg width="22" height="21" viewBox="0 0 22 21" fill="none" xmlns="http://www.w3.org/2000/svg">
<path d="M0.147156 0.938027C0.270986 0.65736 0.46647 0.42021 0.710874 0.254155C0.955277 0.0881008 1.23856 -3.40368e-05 1.52777 9.86049e-09H18.0278C18.6198 9.86049e-09 19.1545 0.365203 19.4066 0.938027C19.6625 1.51102 19.5823 2.189 19.1774 2.67955L15.1403 8.02266C12.0771 8.69941 9.7434 11.6074 9.7434 15.0938C9.7434 16.2176 10.0184 17.284 10.4462 18.2314C10.3812 18.1986 10.324 18.1576 10.2667 18.1125L7.82221 16.1438C7.51284 15.8977 7.33333 15.508 7.33333 15.0938V11.8494L0.345347 2.67955C0.162202 2.43917 0.0463566 2.14791 0.0112791 1.83962C-0.0237984 1.53133 0.0233331 1.21869 0.147194 0.938027H0.147156ZM10.9656 15.0938C10.9656 11.833 13.4635 9.1875 16.5 9.1875C19.5365 9.1875 22 11.833 22 15.0938C22 18.3545 19.5365 21 16.5 21C13.4635 21 10.9656 18.3545 10.9656 15.0938ZM18.7649 13.5885C19.0055 13.3342 19.0055 12.9158 18.7649 12.6615C18.5281 12.4031 18.1385 12.4031 17.9017 12.6615L16.5 14.1668L15.0983 12.6615C14.8615 12.4031 14.4719 12.4031 14.2351 12.6615C13.9944 12.9158 13.9944 13.3342 14.2351 13.5885L15.6368 15.0938L14.2351 16.599C13.9944 16.8533 13.9944 17.2717 14.2351 17.526C14.4719 17.7844 14.8615 17.7844 15.0983 17.526L16.5 16.0207L17.9017 17.526C18.1385 17.7844 18.5281 17.7844 18.7649 17.526C19.0055 17.2717 19.0055 16.8533 18.7649 16.599L17.3632 15.0938L18.7649 13.5885Z" fill="#1F2775"/>
</svg>
