<svg width="24" height="24" viewBox="0 0 24 24" fill="none" xmlns="http://www.w3.org/2000/svg">
<path d="M24 12C24 15.1826 22.7357 18.2348 20.4853 20.4853C18.2348 22.7357 15.1826 24 12 24C8.8174 24 5.76516 22.7357 3.51472 20.4853C1.26428 18.2348 0 15.1826 0 12C0 8.8174 1.26428 5.76516 3.51472 3.51472C5.76516 1.26428 8.8174 0 12 0C15.1826 0 18.2348 1.26428 20.4853 3.51472C22.7357 5.76516 24 8.8174 24 12ZM9.39 17V9.58H7.13V17H9.39ZM8.26 8.56C9.05 8.56 9.54 7.99 9.54 7.28C9.52 6.55 9.04 6 8.28 6C7.5 6 7 6.55 7 7.28C7 7.99 7.49 8.56 8.25 8.56H8.26ZM12.88 17V13C12.88 12.78 12.9 12.57 12.96 12.42C13.14 11.99 13.55 11.55 14.24 11.55C15.14 11.55 15.5 12.2 15.5 13.17V17H18V12.89C18 10.69 16.77 9.67 15.13 9.67C14.6837 9.6477 14.2396 9.7453 13.8439 9.9529C13.4482 10.1604 13.1154 10.4702 12.88 10.85V10.87H12.86L12.88 10.85V9.83H10.38C10.42 10.5 10.38 17 10.38 17H12.88Z" fill="#E6E6E6"/>
</svg>
