<svg width="45" height="44" viewBox="0 0 45 44" fill="none" xmlns="http://www.w3.org/2000/svg">
<path d="M41.4498 0.5H35.3498C35.0198 0.5 34.7298 0.69 34.5998 0.99L15.9698 42.88C15.7398 43.41 16.1298 44 16.7198 44H25.3198C25.6498 44 25.9398 43.81 26.0698 43.51L44.5698 1.62C44.7998 1.09 44.3998 0.5 43.8198 0.5H41.4498Z" fill="#F5BC08"/>
<path d="M11.12 0.99C10.99 0.69 10.7 0.5 10.37 0.5H0.81C0.36 0.5 0 0.86 0 1.3V7.74C0 8.18 0.36 8.54 0.81 8.54H3.52C3.67 8.54 3.81 8.63 3.87 8.77L13.53 30.82C13.81 31.46 14.74 31.46 15.02 30.82L19.36 20.95C19.45 20.75 19.45 20.53 19.36 20.33L11.12 0.99Z" fill="#F5BC08"/>
</svg>
