<svg width="20" height="14" viewBox="0 0 20 14" fill="none" xmlns="http://www.w3.org/2000/svg">
<path d="M18.1861 11.6895C18.7162 11.6895 19.146 12.1193 19.146 12.6493C19.146 13.1415 18.7755 13.5472 18.2981 13.6026L18.1861 13.609H1.61171C1.08164 13.609 0.651855 13.1794 0.651855 12.6494C0.651855 12.157 1.02236 11.7515 1.49971 11.6961L1.6117 11.6895L18.1861 11.6895ZM18.1861 5.84495C18.7162 5.84495 19.146 6.27457 19.146 6.80464C19.146 7.29678 18.7755 7.70247 18.2981 7.75791L18.1861 7.76434H1.61171C1.08164 7.76434 0.651855 7.33472 0.651855 6.80465C0.651855 6.31251 1.02236 5.90683 1.49971 5.85138L1.6117 5.84495H18.1861ZM18.1861 3.76574e-06C18.7162 3.76574e-06 19.146 0.429626 19.146 0.959693C19.146 1.452 18.7755 1.85752 18.2981 1.91297L18.1861 1.91955H5.21075C4.68068 1.91955 4.2509 1.48977 4.2509 0.959699C4.2509 0.467556 4.6214 0.0618726 5.09875 0.00642686L5.21074 0L18.1861 3.76574e-06Z" fill="black"/>
</svg>
