<svg width="15" height="15" viewBox="0 0 15 15" fill="none" xmlns="http://www.w3.org/2000/svg">
<path fill-rule="evenodd" clip-rule="evenodd" d="M12.2413 1.79411C11.8983 1.45114 11.3423 1.45114 10.9993 1.79411L3.37596 9.41746L5.58254 11.624L13.2059 4.00069C13.5489 3.65773 13.5489 3.10167 13.2059 2.7587L12.2413 1.79411ZM4.15998 12.375L2.62504 10.84L1.85757 13.1424L4.15998 12.375ZM9.91257 0.707368C10.8557 -0.235789 12.3849 -0.23579 13.328 0.707367L14.2926 1.67196C15.2358 2.61512 15.2358 4.14428 14.2926 5.08743L5.99764 13.3824L1.30214 14.9476C0.529767 15.205 -0.20505 14.4702 0.0524093 13.6979L1.61758 9.00236L9.91257 0.707368Z" fill="black"/>
</svg>
