<svg width="25" height="25" viewBox="0 0 25 25" fill="none" xmlns="http://www.w3.org/2000/svg">
<path fill-rule="evenodd" clip-rule="evenodd" d="M17.9681 1.80003H19.1682C20.1228 1.80003 21.0387 2.17931 21.7139 2.85452C22.3891 3.52973 22.7684 4.44541 22.7684 5.40003V17.4004C22.7684 18.355 22.3891 19.2707 21.7139 19.9459C21.0387 20.6211 20.123 21.0004 19.1684 21.0004C19.1684 21.0004 12.0434 21.0004 11.8728 21.0004C11.7021 21.0004 11.422 20.6933 11.422 20.4001C11.422 20.107 11.6345 19.7999 11.8728 19.7999C12.111 19.7999 19.1682 19.7999 19.1682 19.7999C19.8044 19.7993 20.4145 19.5462 20.8643 19.0962C21.3143 18.6464 21.5677 18.0361 21.5683 17.3999L21.5677 7.79989H4.76801C4.76801 7.79989 4.79675 13.4506 4.76801 13.6565C4.73926 13.8624 4.46859 14.1385 4.16804 14.1385C3.86748 14.1385 3.5806 13.8624 3.56807 13.6565C3.55554 13.4506 3.56807 5.40003 3.56807 5.40003C3.56807 4.44541 3.94736 3.52973 4.62256 2.85452C5.29777 2.17931 6.21345 1.80003 7.16807 1.80003H8.36821V1.20017C8.36821 0.868694 8.6368 0.600098 8.96807 0.600098C9.29954 0.600098 9.56814 0.868694 9.56814 1.20017V1.80003H16.7681V1.20017C16.7681 0.868694 17.0367 0.600098 17.3682 0.600098C17.6995 0.600098 17.9681 0.868694 17.9681 1.20017V1.80003ZM4.7681 6.60006L21.5683 6.59986L21.568 5.39993C21.5673 4.76371 21.3142 4.15362 20.8642 3.70382C20.4144 3.2538 19.8043 3.00067 19.1681 3.00007H17.968V3.59993C17.968 3.9314 17.6994 4.2 17.3681 4.2C17.0366 4.2 16.768 3.9316 16.768 3.60013V3.00006H9.56804V3.59993C9.56804 3.9314 9.29944 4.2 8.96797 4.2C8.6367 4.2 8.3681 3.9316 8.3681 3.60013V3.00006H7.16797C6.53174 3.00068 5.92165 3.25381 5.47185 3.70381C5.02183 4.1536 4.76871 4.7637 4.7681 5.39992V6.60006Z" fill="black"/>
<path d="M7.68319 14.8133C7.68319 14.4384 7.38213 14.1342 7.00766 14.1282L7.00888 14.1288H6.99803C6.61942 14.1288 6.31286 14.4354 6.31286 14.814V14.823V16.8792H4.25784H4.24767C3.86906 16.8792 3.5625 17.1857 3.5625 17.5644C3.5625 17.943 3.86905 18.2495 4.24767 18.2495H4.25731H6.31353V20.3052V20.3154C6.31353 20.694 6.62009 21.0006 6.99869 21.0006C7.3773 21.0006 7.68386 20.694 7.68386 20.3154V20.3057V18.2495H9.73887H9.74905C10.1277 18.2495 10.4342 17.943 10.4342 17.5644C10.4342 17.1858 10.1277 16.8792 9.74905 16.8792H9.73941H7.68319V14.8235V14.8133Z" fill="black"/>
</svg>
