<svg width="14" height="14" viewBox="0 0 14 14" fill="none" xmlns="http://www.w3.org/2000/svg">
<path d="M7.5625 0.8125C7.5625 0.50184 7.31066 0.25 7 0.25C6.68934 0.25 6.4375 0.50184 6.4375 0.8125V6.40015H0.8125C0.50184 6.40015 0.25 6.65199 0.25 6.96265C0.25 7.27331 0.50184 7.52515 0.8125 7.52515H6.4375V13.1875C6.4375 13.4982 6.68934 13.75 7 13.75C7.31066 13.75 7.5625 13.4982 7.5625 13.1875V7.52515H13.1875C13.4982 7.52515 13.75 7.27331 13.75 6.96265C13.75 6.65199 13.4982 6.40015 13.1875 6.40015H7.5625V0.8125Z" fill="#1A1A1A"/>
</svg>
