<svg width="14" height="14" viewBox="0 0 14 14" fill="none" xmlns="http://www.w3.org/2000/svg">
<path fill-rule="evenodd" clip-rule="evenodd" d="M14 5.05398V0.938807C14 0.588745 13.5799 0.417604 13.3388 0.666537L11.9541 2.05123C10.5461 0.643199 8.53904 -0.165832 6.34532 0.0286465C3.08586 0.324254 0.402052 2.94583 0.0442115 6.20529C-0.422538 10.4216 2.86804 14 6.99877 14C10.5694 14 13.5177 11.324 13.9456 7.87003C14 7.40328 13.6344 6.99876 13.1676 6.99876C12.7787 6.99876 12.452 7.28659 12.4053 7.66777C12.0708 10.3827 9.72925 12.4831 6.92098 12.4442C4.03492 12.4053 1.60004 9.9704 1.55337 7.07656C1.50669 4.04269 3.97268 1.55336 6.99877 1.55336C8.50015 1.55336 9.8615 2.16791 10.8495 3.14809L9.22361 4.77393C8.97468 5.02286 9.14582 5.44293 9.49588 5.44293H13.6111C13.8289 5.44293 14 5.27179 14 5.05398Z" fill="black"/>
</svg>
