<svg width="4" height="14" viewBox="0 0 4 14" fill="none" xmlns="http://www.w3.org/2000/svg">
<path d="M2.15566 5.57838C2.0566 5.56437 1.9434 5.56437 1.84434 5.57838C1.08019 5.66244 0.5 6.29293 0.5 7.06353C0.5 7.76407 1.00943 8.38055 1.70283 8.52066C1.80189 8.53467 1.90094 8.54868 2 8.54868C2.09906 8.54868 2.19811 8.53467 2.29717 8.52066C2.99057 8.38055 3.5 7.76407 3.5 7.06353C3.5 6.29293 2.91981 5.66244 2.15566 5.57838Z" fill="#1A1A1A"/>
<path d="M2 3.5953C2.82076 3.5953 3.5 2.92278 3.5 2.11015C3.5 1.29752 2.82076 0.625 2 0.625C1.17925 0.625 0.5 1.29752 0.5 2.11015C0.5 2.92278 1.16509 3.5953 2 3.5953Z" fill="#1A1A1A"/>
<path d="M2 13.4459C2.82843 13.4459 3.5 12.781 3.5 11.9607C3.5 11.1405 2.82843 10.4756 2 10.4756C1.17157 10.4756 0.5 11.1405 0.5 11.9607C0.5 12.781 1.17157 13.4459 2 13.4459Z" fill="#1A1A1A"/>
</svg>
