<svg width="24" height="24" viewBox="0 0 24 24" fill="none" xmlns="http://www.w3.org/2000/svg">
<path d="M7.95355 6.16285V5.17448C7.95355 3.97358 8.92707 3.00006 10.128 3.00006H13.2908C14.4917 3.00006 15.4652 3.97358 15.4652 5.17448V6.16285H18.8256C19.1532 6.16285 19.4187 6.42836 19.4187 6.75588C19.4187 7.08339 19.1532 7.3489 18.8256 7.3489H17.8373V17.8256C17.8373 19.0265 16.8637 20.0001 15.6629 20.0001H7.75587C6.55498 20.0001 5.58146 19.0265 5.58146 17.8256V7.3489H4.59308C4.26557 7.3489 4.00006 7.08339 4.00006 6.75588C4.00006 6.42836 4.26557 6.16285 4.59308 6.16285H7.95355ZM9.1396 6.16285H14.2791V5.17448C14.2791 4.62862 13.8366 4.18611 13.2908 4.18611H10.128C9.5821 4.18611 9.1396 4.62862 9.1396 5.17448V6.16285ZM6.7675 7.3489V17.8256C6.7675 18.3715 7.21001 18.814 7.75587 18.814H15.6629C16.2087 18.814 16.6512 18.3715 16.6512 17.8256V7.3489H6.7675Z" fill="black"/>
</svg>
