<svg width="24" height="24" viewBox="0 0 24 24" fill="none" xmlns="http://www.w3.org/2000/svg">
<path d="M12 24C15.1826 24 18.2348 22.7357 20.4853 20.4853C22.7357 18.2348 24 15.1826 24 12C24 8.8174 22.7357 5.76516 20.4853 3.51472C18.2348 1.26428 15.1826 0 12 0C8.8174 0 5.76516 1.26428 3.51472 3.51472C1.26428 5.76516 0 8.8174 0 12C0 15.1826 1.26428 18.2348 3.51472 20.4853C5.76516 22.7357 8.8174 24 12 24ZM16.95 7.83C17.55 7.7 18.12 7.48 18.62 7.17C18.43 7.79 18.03 8.32 17.47 8.65C18 8.59 18.52 8.45 19 8.22C18.64 8.77 18.19 9.24 17.67 9.6V9.99C17.68 13.5 15 17.57 10.1 17.57C8.6479 17.5721 7.2254 17.1592 6 16.38C7.4114 16.5245 8.8253 16.1317 9.96 15.28C9.4049 15.2651 8.868 15.0782 8.4238 14.745C7.9795 14.4118 7.6497 13.9488 7.48 13.42L7.75 13.45L7.96 13.47C8.21 13.45 8.44 13.42 8.67 13.37C7.45 13.11 6.53 12.03 6.53 10.75V10.71C6.89628 10.9182 7.3088 11.0316 7.73 11.04C7.02 10.57 6.55 9.75 6.53 8.81C6.54979 8.3397 6.67996 7.8807 6.91 7.47C7.577 8.2979 8.4102 8.9766 9.3559 9.4624C10.3015 9.9481 11.3386 10.2301 12.4 10.29C12.38 10.08 12.35 9.87 12.35 9.67C12.351 9.1372 12.5114 8.6169 12.8105 8.176C13.1096 7.7352 13.5337 7.3938 14.0284 7.196C14.523 6.99809 15.0656 6.95273 15.5863 7.0657C16.1069 7.1787 16.5819 7.4449 16.95 7.83Z" fill="#E6E6E6"/>
</svg>
