<svg width="44" height="31" viewBox="0 0 44 31" fill="none" xmlns="http://www.w3.org/2000/svg">
<path d="M9.14377 30.3808C4.10377 30.3808 0 26.2783 0 21.2334C0 17.7838 1.90254 14.6927 4.91858 13.1277C4.66251 12.2188 4.53466 11.2909 4.53466 10.3534C4.53466 4.64448 9.17786 0 14.888 0C19.0448 0 22.7009 2.41609 24.3445 6.13111C25.5123 5.47825 26.823 5.13755 28.1877 5.13755C32.562 5.13755 36.1251 8.6976 36.1251 13.0718C36.1251 13.5693 36.0787 14.064 35.9812 14.5519C39.9619 14.9744 43.0755 18.3533 43.0755 22.4447C43.0752 26.8208 39.5152 30.3808 35.1409 30.3808H9.14377ZM14.8873 1.96663C10.2648 1.96663 6.50341 5.72983 6.50341 10.3524C6.50341 11.3524 6.68412 12.346 7.05055 13.3092C7.2377 13.8099 6.99127 14.3717 6.49377 14.5699C3.74342 15.6659 1.96915 18.2802 1.96915 21.2338C1.96915 25.1924 5.18844 28.4113 9.14346 28.4113H35.1403C38.4313 28.4113 41.1081 25.7328 41.1081 22.4435C41.1081 19.1539 38.4295 16.4757 35.1403 16.4757C35.0492 16.4757 34.9628 16.4821 34.8713 16.4886L34.7499 16.4982C34.4188 16.5175 34.097 16.3671 33.9003 16.0982C33.7035 15.8311 33.6538 15.4821 33.7724 15.1704C34.0253 14.4857 34.1563 13.7832 34.1563 13.0729C34.1563 9.78332 31.4777 7.10648 28.1885 7.10648C26.8253 7.10648 25.5389 7.55612 24.4731 8.40897C24.2171 8.61361 23.8764 8.6779 23.5674 8.58004C23.2553 8.48254 23.0106 8.23611 22.9178 7.92576C21.8557 4.41966 18.5531 1.96663 14.8873 1.96663Z" fill="black"/>
<path fill-rule="evenodd" clip-rule="evenodd" d="M22.3174 14.5822L28.5535 20.8182C28.9802 21.2449 28.9802 21.9368 28.5535 22.3635C28.1267 22.7902 27.4349 22.7902 27.0082 22.3635L23.4101 18.7654V29.2396C23.4101 29.8431 22.9209 30.3323 22.3174 30.3323C21.7139 30.3323 21.2247 29.8431 21.2247 29.2396V18.7654L17.6266 22.3635C17.1999 22.7902 16.5081 22.7902 16.0813 22.3635C15.6546 21.9368 15.6546 21.2449 16.0813 20.8182L22.3174 14.5822Z" fill="black"/>
</svg>
