<svg width="20" height="21" viewBox="0 0 20 21" fill="none" xmlns="http://www.w3.org/2000/svg">
<path d="M19.5343 19.3184L15.4749 15.0996C16.9076 13.3228 17.6265 11.0385 17.4816 8.72305C17.3367 6.40759 16.3393 4.23977 14.6974 2.67173C13.0554 1.10368 10.8957 0.256477 8.66866 0.306808C6.44163 0.35714 4.31922 1.30112 2.7441 2.94187C1.16898 4.58263 0.262757 6.79346 0.214438 9.11329C0.16612 11.4331 0.979436 13.6828 2.48476 15.3932C3.99008 17.1036 6.07118 18.1425 8.29403 18.2934C10.5169 18.4443 12.7098 17.6955 14.4155 16.2031L18.4655 20.4316C18.6089 20.576 18.8005 20.6567 18.9999 20.6567C19.1993 20.6567 19.3909 20.576 19.5343 20.4316C19.6751 20.2835 19.7541 20.0835 19.7541 19.875C19.7541 19.6665 19.6751 19.4665 19.5343 19.3184ZM1.7499 9.32812C1.7499 7.86022 2.16778 6.42527 2.95068 5.20475C3.73359 3.98423 4.84636 3.03295 6.14828 2.47121C7.45021 1.90946 8.8828 1.76248 10.2649 2.04886C11.647 2.33523 12.9166 3.0421 13.913 4.08007C14.9095 5.11803 15.5881 6.44049 15.863 7.88019C16.1379 9.31989 15.9968 10.8122 15.4575 12.1684C14.9183 13.5245 14.005 14.6837 12.8333 15.4992C11.6616 16.3147 10.2841 16.75 8.8749 16.75C6.986 16.7474 5.17516 15.9646 3.83951 14.5733C2.50385 13.182 1.75238 11.2957 1.7499 9.32812Z" fill="white"/>
</svg>
