<svg width="16" height="16" viewBox="0 0 16 16" fill="none" xmlns="http://www.w3.org/2000/svg">
<path d="M14.9705 11.2757C15.681 11.9589 15.681 12.9153 14.9432 13.6258C14.8339 13.7351 14.6972 13.8718 14.5879 13.9811C14.3693 14.227 14.1507 14.4183 13.9321 14.6642C13.4402 15.2381 12.8117 15.5113 11.9919 15.5113C11.9099 15.5113 11.8553 15.5113 11.7733 15.5113C10.8442 15.4567 9.88779 15.1834 8.76741 14.6369C6.74526 13.6531 4.99637 12.2868 3.52074 10.5379C2.34571 9.11696 1.49859 7.72332 0.952059 6.24769C0.706122 5.59186 0.43286 4.71741 0.514839 3.73366C0.569492 3.10515 0.815429 2.55863 1.25265 2.14873C1.49859 1.93012 1.7172 1.68418 1.93581 1.46557C2.09977 1.30161 2.2364 1.16498 2.40036 1.00102C3.11085 0.317857 4.03994 0.317857 4.7231 1.00102C4.91439 1.1923 5.133 1.41091 5.35161 1.62953C5.46092 1.73883 5.54289 1.82081 5.6522 1.93012L5.92546 2.20338C6.14407 2.42199 6.33536 2.61328 6.55397 2.83189C7.26446 3.54238 7.26446 4.47147 6.55397 5.18196L6.33536 5.40057C6.0621 5.67383 5.78883 5.9471 5.51557 6.22036C5.70685 6.68491 6.00744 7.14946 6.41734 7.64133C7.29178 8.70706 8.19356 9.52685 9.17731 10.1554C9.28661 10.2373 9.45057 10.292 9.5872 10.374C9.64186 10.4013 9.69651 10.4286 9.75116 10.456C10.0517 10.128 10.3797 9.80012 10.7076 9.49953L10.7896 9.41755C11.5 8.73439 12.4291 8.73439 13.1123 9.41755C13.7135 10.0187 14.342 10.6472 14.9705 11.2757ZM14.2873 12.9427C14.6153 12.6147 14.6153 12.2595 14.2873 11.9862C13.6588 11.3851 13.0303 10.7565 12.4291 10.1554C12.1286 9.85477 11.8006 9.85477 11.4727 10.1554L11.3907 10.2373C11.0355 10.5926 10.6803 10.9478 10.325 11.3031C10.0518 11.549 9.72383 11.6037 9.42324 11.4397C9.34126 11.3851 9.25928 11.3577 9.14998 11.3031C8.98602 11.2211 8.82206 11.1391 8.6581 11.0298C7.56505 10.3467 6.5813 9.44488 5.6522 8.29717C5.16032 7.66866 4.80508 7.09481 4.55914 6.52095C4.39518 6.13838 4.55914 5.86512 4.7231 5.70116C5.05102 5.40057 5.35161 5.09998 5.6522 4.79939L5.87081 4.58078C6.22605 4.22553 6.22605 3.92494 5.87081 3.5697C5.6522 3.35109 5.46091 3.1598 5.2423 2.94119L4.96904 2.66793C4.85973 2.55862 4.77776 2.47664 4.66845 2.36734C4.47717 2.17605 4.25855 1.95744 4.03994 1.73883C3.87598 1.57488 3.71203 1.49289 3.54807 1.49289C3.38411 1.49289 3.22015 1.57488 3.05619 1.73883C2.89223 1.90279 2.7556 2.03942 2.59164 2.20338C2.34571 2.42199 2.1271 2.66793 1.88116 2.88654C1.6079 3.15981 1.47126 3.4604 1.44394 3.84297C1.38928 4.47147 1.52591 5.09998 1.8265 5.9471C2.3457 7.31342 3.13817 8.62509 4.23123 9.93675C5.62487 11.5763 7.29179 12.8607 9.17731 13.7898C10.1884 14.2543 11.0355 14.5003 11.828 14.5549C12.4565 14.5822 12.8664 14.4183 13.2216 14.0357C13.4402 13.7625 13.6862 13.5165 13.9321 13.2979C14.0414 13.1886 14.178 13.052 14.2873 12.9427Z" fill="white"/>
</svg>
