<svg width="24" height="24" viewBox="0 0 24 24" fill="none" xmlns="http://www.w3.org/2000/svg">
<path d="M8.50737 13.3316V17.7983H7.67418V13.3199L6.84246 13.317V12.6657L9.50631 12.6701V13.3316H8.50737Z" fill="#E6E6E6"/>
<path d="M10.6695 13.9976H11.5027V17.7968L10.8338 17.7953L10.8353 17.3025C10.6549 17.6897 9.9361 17.9992 9.56205 17.7293C9.38595 17.6034 9.36979 17.394 9.35467 17.1981C9.35254 17.1704 9.35043 17.143 9.34789 17.1162C9.34006 17.034 9.34137 16.8867 9.3431 16.6902C9.34397 16.592 9.34495 16.4815 9.34495 16.3607L9.34202 13.9976H10.1708L10.1737 16.3989C10.1737 16.5213 10.1713 16.6246 10.1693 16.7093C10.1659 16.8519 10.1638 16.9417 10.1767 16.9812C10.2955 17.3421 10.6006 17.1455 10.6681 16.9607C10.6814 16.9243 10.6791 16.8464 10.6753 16.7141C10.6727 16.628 10.6695 16.5187 10.6695 16.3827V13.9976Z" fill="#E6E6E6"/>
<path d="M14.1666 14.7442C14.1666 13.9873 13.6004 13.5341 12.8317 14.1472L12.8346 12.6715L12.0029 12.673L11.9985 17.766L12.6821 17.7557L12.7437 17.4389C13.6194 18.2413 14.168 17.6912 14.168 16.7289L14.1666 14.7442ZM12.82 14.6445C12.82 14.4802 12.9843 14.3452 13.1838 14.3452C13.3847 14.3452 13.549 14.4787 13.549 14.6445V16.8727C13.549 17.0384 13.3847 17.1719 13.1838 17.1719C12.9843 17.1719 12.82 17.037 12.82 16.8727V14.6445Z" fill="#E6E6E6"/>
<path d="M16.1498 16.4693L16.7747 16.4663C17.0593 18.1577 14.6697 18.4364 14.6712 16.4678V15.284C14.6712 14.9291 14.7064 14.6489 14.7768 14.445C14.8472 14.2396 14.9675 14.0885 15.1259 13.9741C15.629 13.6103 16.628 13.7233 16.7307 14.4347C16.7629 14.6606 16.7732 15.0537 16.7732 15.4469V15.9881H15.343V16.9035C15.343 17.0898 15.497 17.2423 15.6848 17.2423H15.8065C15.9943 17.2423 16.1483 17.0898 16.1483 16.9035V16.5544C16.1483 16.5372 16.1487 16.5213 16.1491 16.5064C16.1495 16.4933 16.1498 16.4809 16.1498 16.4693ZM15.3533 15.3266H16.1425L16.1513 14.8689C16.1513 14.6665 15.984 14.4993 15.7787 14.4993H15.7288C15.5249 14.4993 15.3577 14.665 15.3577 14.8689L15.3533 15.3266Z" fill="#E6E6E6"/>
<path d="M11.8533 9.78473C11.6494 9.78473 11.4837 9.60137 11.4837 9.3784V7.27637C11.4837 7.05193 11.6509 6.87004 11.8533 6.87004C12.0557 6.87004 12.2215 7.0534 12.2215 7.27637V9.3784C12.2215 9.60283 12.0557 9.78473 11.8533 9.78473Z" fill="#E6E6E6"/>
<path d="M24 12C24 18.6274 18.6274 24 12 24C5.37258 24 0 18.6274 0 12C0 5.37258 5.37258 0 12 0C18.6274 0 24 5.37258 24 12ZM17.9893 17.3377V13.0984C17.9893 12.0819 17.1077 11.2487 16.0295 11.2487H7.97049C6.89233 11.2487 6.01074 12.0819 6.01074 13.0984V17.3377C6.01074 18.3557 6.89233 19.1874 7.97049 19.1874H16.0295C17.1077 19.1874 17.9893 18.3542 17.9893 17.3377ZM13.772 10.2923C13.8615 10.3553 13.9759 10.3861 14.1123 10.3861C14.2326 10.3861 14.3382 10.3539 14.4321 10.2864C14.5245 10.2204 14.6022 10.1206 14.6653 9.98715L14.6492 10.3143H15.5777V6.36837H14.8457V9.44148C14.8457 9.60723 14.7093 9.74365 14.5406 9.74365C14.3734 9.74365 14.237 9.60723 14.237 9.44148V6.36837H13.4742V9.03222C13.4742 9.37107 13.4801 9.59696 13.4903 9.71285C13.5021 9.82433 13.527 9.93435 13.571 10.04C13.6136 10.1441 13.681 10.2292 13.772 10.2923ZM10.8514 6.92138C10.7898 7.13554 10.7576 7.43185 10.7576 7.81031V8.85326C10.7576 9.19944 10.7737 9.45908 10.8089 9.63217C10.8441 9.80526 10.9013 9.95342 10.9835 10.0752C11.0641 10.1969 11.1771 10.2893 11.3252 10.3495C11.4719 10.4111 11.6509 10.4404 11.8621 10.4404C12.0513 10.4404 12.2186 10.4052 12.3652 10.3348C12.5105 10.2644 12.6308 10.1544 12.7232 10.0062C12.817 9.8566 12.8787 9.69818 12.9065 9.52655C12.9359 9.35493 12.9505 9.08649 12.9505 8.71977V7.72083C12.9505 7.43039 12.9344 7.21622 12.9036 7.07394C12.8728 6.93458 12.8156 6.7967 12.732 6.66321C12.6498 6.52972 12.5295 6.42264 12.3755 6.33903C12.2215 6.25689 12.0367 6.21435 11.8225 6.21435C11.5673 6.21435 11.3575 6.28036 11.1932 6.40944C11.0289 6.53853 10.9145 6.70868 10.8514 6.92138ZM9.78941 10.4404L9.79088 7.41132L10.8265 4.81788H9.86863L9.31855 6.74536L8.75967 4.81201H7.81207L8.91369 7.41278V10.4404H9.78941Z" fill="#E6E6E6"/>
</svg>
