<svg width="22" height="18" viewBox="0 0 22 18" fill="none" xmlns="http://www.w3.org/2000/svg">
<path d="M6.45834 17.8025C4.715 17.8025 3.12337 17.0699 1.96116 15.8824C0.811548 14.7076 0.104108 13.0779 0.104108 11.284C0.104108 9.71762 0.659981 8.27737 1.56942 7.14056C2.40317 6.10466 3.55278 5.33414 4.85392 4.98042C5.19501 3.64142 5.94029 2.47921 6.93833 1.60744C8.04992 0.672628 9.4648 0.104108 11.0063 0.104108C12.7496 0.104108 14.3413 0.836763 15.491 2.02423C16.6406 3.19906 17.3607 4.8287 17.3607 6.62259V7.15325C18.5229 7.3048 19.5714 7.86069 20.3673 8.68179C21.3148 9.65447 21.8959 10.9936 21.8959 12.4589C21.8959 13.9242 21.3148 15.2634 20.3673 16.2235C19.4199 17.1961 18.1188 17.8025 16.6787 17.8025L6.45834 17.8025ZM12.4462 10.0588C12.7114 9.79356 13.141 9.79356 13.4062 10.0588C13.6715 10.3241 13.6715 10.7536 13.4062 11.0189L11.4861 12.939C11.4735 12.9516 11.4735 12.9516 11.4609 12.9642L11.4483 12.9768L11.4104 13.0021V13.0147H11.3978L11.3852 13.0273C11.2841 13.1032 11.1452 13.141 11.0062 13.141C10.8547 13.141 10.7158 13.1032 10.6147 13.0273L10.6021 13.0147H10.5895V13.0021L10.5516 12.9768L8.59366 11.0189C8.32841 10.7537 8.32841 10.3241 8.59366 10.0588C8.8589 9.79359 9.28845 9.79359 9.55372 10.0588L10.3244 10.8167V7.05222C10.3244 6.68589 10.6276 6.37003 11.0066 6.37003C11.3729 6.37003 11.6762 6.6859 11.6762 7.05222V10.8167L12.4462 10.0588ZM6.45823 16.4382H16.678C17.7391 16.4382 18.6992 15.996 19.394 15.276C20.1014 14.556 20.531 13.5579 20.531 12.4589C20.531 11.3599 20.1014 10.3492 19.394 9.62917C18.6992 8.90912 17.7391 8.46695 16.678 8.46695C16.299 8.46695 15.9958 8.1637 15.9958 7.78477V6.62255C15.9958 5.19507 15.4273 3.90654 14.5177 2.97173C13.6207 2.03692 12.3702 1.4684 11.0058 1.4684C9.79312 1.4684 8.68137 1.91057 7.82237 2.64323C6.95079 3.38849 6.31904 4.43704 6.09163 5.62447C6.0664 5.91495 5.85161 6.15513 5.54837 6.21821C4.38615 6.44561 3.35024 7.08978 2.6302 7.99937C1.89754 8.88375 1.46798 10.0332 1.46798 11.2839C1.46798 12.7114 2.02385 13.9999 2.93329 14.9347C3.84288 15.8695 5.09386 16.4382 6.45823 16.4382Z" fill="black"/>
<path fill-rule="evenodd" clip-rule="evenodd" d="M7.00609 1.68648C6.02356 2.54495 5.29037 3.68883 4.9548 5.00612L4.93981 5.06496L4.88123 5.08088C3.60198 5.42865 2.471 6.18646 1.65059 7.20576C0.755067 8.32524 0.208217 9.74277 0.208217 11.284C0.208217 13.0502 0.904644 14.6538 2.03557 15.8096C3.17957 16.9784 4.7449 17.6984 6.45834 17.6984L16.6787 17.6984C18.0887 17.6984 19.3635 17.1049 20.2928 16.1508C21.2212 15.21 21.7918 13.8965 21.7918 12.4589C21.7918 11.0215 21.2218 9.7082 20.2928 8.75444C19.5122 7.9492 18.4848 7.40481 17.3472 7.25648L17.2566 7.24466V6.62259C17.2566 4.85693 16.5479 3.25315 15.4166 2.09705C14.2853 0.928639 12.7198 0.208217 11.0063 0.208217C9.49136 0.208217 8.10015 0.7667 7.00609 1.68648ZM6.87133 1.52776C8.00034 0.5783 9.43859 0 11.0063 0C12.7793 0 14.3974 0.745183 15.5656 1.95158C16.7334 3.14511 17.4648 4.80055 17.4648 6.62259V7.06267C18.6155 7.23393 19.6515 7.79372 20.4421 8.60933C21.4079 9.60089 22 10.9658 22 12.4589C22 13.9519 21.4079 15.3172 20.4416 16.2965C19.476 17.2876 18.1487 17.9066 16.6787 17.9066L6.45834 17.9066C4.6851 17.9066 3.06719 17.1613 1.88675 15.9552C0.718459 14.7613 0 13.1056 0 11.284C0 9.69254 0.564845 8.22964 1.48812 7.07553C2.32273 6.03856 3.46926 5.26275 4.76824 4.89613C5.1214 3.56045 5.87123 2.4013 6.86984 1.52903L6.87133 1.52776ZM7.75481 2.56401C8.63186 1.81596 9.76733 1.36429 11.0058 1.36429C12.3995 1.36429 13.6768 1.9451 14.5926 2.89944C15.5202 3.85291 16.0999 5.16708 16.0999 6.62255V7.78477C16.0999 8.10621 16.3565 8.36285 16.678 8.36285C17.7687 8.36285 18.7552 8.81745 19.4686 9.55654C20.195 10.2961 20.6351 11.3329 20.6351 12.4589C20.6351 13.5852 20.1948 14.6092 19.4686 15.3486C18.7552 16.0877 17.7687 16.5423 16.678 16.5423H6.43563C5.05054 16.5361 3.78178 15.956 2.85868 15.0073C1.9306 14.0533 1.36387 12.7389 1.36387 11.2839C1.36387 10.0096 1.80149 8.83693 2.54929 7.93385C3.28431 7.00578 4.34136 6.34845 5.52773 6.11616C5.78765 6.06185 5.96685 5.85799 5.98791 5.61546L5.98884 5.60479C6.2208 4.39359 6.86573 3.32425 7.75481 2.56401ZM7.88993 2.72244C7.03714 3.45167 6.41852 4.47747 6.19485 5.63902C6.16323 5.97475 5.91395 6.2485 5.56957 6.32013L5.56836 6.32038C4.43094 6.54293 3.41674 7.17352 2.71182 8.06399L2.71039 8.06581C1.99332 8.93137 1.57209 10.0573 1.57209 11.2839C1.57209 12.6839 2.11711 13.9464 3.00791 14.8621C3.89895 15.7778 5.12301 16.3339 6.4578 16.3339L16.678 16.3341C17.7094 16.3341 18.6428 15.9045 19.3191 15.2037C20.0075 14.503 20.4269 13.5304 20.4269 12.4589C20.4269 11.3871 20.0079 10.4026 19.3197 9.70213C18.6435 9.00133 17.7094 8.57106 16.678 8.57106C16.2415 8.57106 15.8917 8.2212 15.8917 7.78477V6.62255C15.8917 5.22322 15.3345 3.96046 14.4431 3.04433C13.565 2.12918 12.3407 1.57251 11.0058 1.57251C9.8189 1.57251 8.73088 2.00518 7.88993 2.72244ZM11.0066 6.47414C10.6864 6.47414 10.4285 6.74213 10.4285 7.05222V11.0651L9.48072 10.1331C9.25611 9.90847 8.89186 9.90786 8.66727 10.1325C8.44268 10.3571 8.44268 10.7207 8.66727 10.9453L10.6179 12.8959L10.6399 12.9106H10.6452L10.6558 12.9212L10.6936 12.9464V12.9556C10.7711 13.0072 10.8796 13.0369 11.0062 13.0369C11.1202 13.0369 11.2282 13.0076 11.3063 12.9556V12.9464L11.3441 12.9212L11.3547 12.9106H11.36L11.3819 12.8959L11.3919 12.886L11.3942 12.8837L11.4032 12.8747L13.3326 10.9453C13.5572 10.7206 13.5572 10.357 13.3326 10.1324C13.1149 9.91474 12.7666 9.90805 12.5409 10.1123L11.572 11.0651V7.05222C11.572 6.74087 11.3129 6.47414 11.0066 6.47414ZM12.3324 10.0254L12.3726 9.9852C12.6785 9.67929 13.1739 9.67929 13.4798 9.98519C13.7858 10.2911 13.7858 10.7866 13.4799 11.0925L11.5146 13.0578L11.5145 13.1188H11.4364C11.3147 13.2055 11.1573 13.2451 11.0062 13.2451C10.844 13.2451 10.6858 13.206 10.5634 13.1188H10.4853V13.0578L8.52004 11.0925C8.21414 10.7866 8.21414 10.2911 8.52004 9.98522C8.82583 9.67943 9.32105 9.67932 9.627 9.98489C9.62711 9.985 9.6269 9.98478 9.627 9.98489L10.2203 10.5683V7.05222C10.2203 6.62964 10.5689 6.26592 11.0066 6.26592C11.4329 6.26592 11.7803 6.63093 11.7803 7.05222V10.5683L12.3324 10.0254Z" fill="black"/>
</svg>
