<svg width="23" height="18" viewBox="0 0 23 18" fill="none" xmlns="http://www.w3.org/2000/svg">
<path d="M21.2338 7.33769V11.8052C21.2338 12.7403 22.6883 12.7403 22.6883 11.8052V6.19483C22.6883 5.88314 22.3766 5.77925 22.1688 5.67535L12.0909 1.10392C11.987 1.10392 11.8831 1.00003 11.7792 1.00003C11.6753 1.00003 11.5714 1.00003 11.4675 1.10392L1.3896 5.67535C0.870118 5.88314 0.870118 6.71431 1.3896 6.9221L5.64934 8.79223V13.052C5.64934 14.0909 6.27272 15.1299 7.41557 15.8572C8.55843 16.5844 10.1169 17 11.7792 17C13.4415 17 15 16.5844 16.1428 15.8572C17.2857 15.1299 17.9091 14.0909 17.9091 13.052V8.79223M15.2078 14.7143C14.2727 15.2338 13.026 15.5455 11.7792 15.5455C10.5325 15.5455 9.2857 15.2338 8.35064 14.7143C7.51947 14.1948 6.99999 13.5715 6.99999 12.9481V9.31171L11.4675 11.2857C11.6753 11.3896 11.8831 11.3896 11.987 11.2857L16.4545 9.31171V12.9481C16.5584 13.5715 16.0389 14.2987 15.2078 14.7143ZM11.7792 2.45457L20.1948 6.19483L20.0909 6.29873L11.7792 10.039L3.36362 6.19483" fill="black"/>
<path fill-rule="evenodd" clip-rule="evenodd" d="M11.7751 0.900025L11.7792 0.900026C11.8554 0.900026 11.9262 0.935619 11.9727 0.958959C11.9751 0.960186 11.9775 0.961379 11.9798 0.962531C12.0375 0.991407 12.0671 1.00392 12.0909 1.00392H12.1125L22.2136 5.58584C22.2347 5.59641 22.2585 5.6077 22.2841 5.61975C22.3714 5.66081 22.4787 5.71134 22.5665 5.77717C22.6869 5.86748 22.7883 5.99806 22.7883 6.19483V11.8052C22.7883 12.0674 22.6852 12.2707 22.5261 12.4071C22.3691 12.5417 22.1632 12.6065 21.961 12.6065C21.7589 12.6065 21.5529 12.5417 21.3959 12.4071C21.2368 12.2707 21.1338 12.0674 21.1338 11.8052V7.33769H21.3338V11.8052C21.3338 12.0106 21.4125 12.1579 21.5261 12.2553C21.6418 12.3545 21.7996 12.4065 21.961 12.4065C22.1225 12.4065 22.2802 12.3545 22.3959 12.2553C22.5096 12.1579 22.5883 12.0106 22.5883 11.8052V6.19483C22.5883 6.07991 22.5339 6.0027 22.4465 5.93717C22.3767 5.88482 22.2964 5.84692 22.2128 5.8075C22.1841 5.79395 22.155 5.78021 22.1258 5.76565L12.0667 1.20276C11.9999 1.19646 11.939 1.16584 11.8975 1.14499C11.895 1.14376 11.8926 1.14257 11.8903 1.14142C11.8326 1.11254 11.803 1.10003 11.7792 1.10003C11.6768 1.10003 11.611 1.10183 11.5382 1.17463L11.5254 1.18748L1.42678 5.76829C1.21403 5.85339 1.09999 6.06919 1.09999 6.29873C1.09999 6.52826 1.21399 6.74416 1.42674 6.82926L1.42982 6.83049L5.74934 8.72692V13.052C5.74934 14.0489 6.34796 15.0592 7.46926 15.7728C8.59316 16.488 10.1321 16.9 11.7792 16.9C13.4263 16.9 14.9653 16.488 16.0892 15.7728C17.2105 15.0592 17.8091 14.0489 17.8091 13.052V8.79223H18.0091V13.052C18.0091 14.1329 17.3609 15.2005 16.1965 15.9415C15.0347 16.6809 13.4568 17.1 11.7792 17.1C10.1016 17.1 8.5237 16.6809 7.36188 15.9415C6.19747 15.2005 5.54934 14.1329 5.54934 13.052V8.85754L1.35086 7.01431C1.04522 6.8912 0.899988 6.58817 0.899988 6.29873C0.899988 6.00947 1.04503 5.70664 1.35028 5.58338L11.4106 1.01996C11.5396 0.899973 11.6738 0.900003 11.7751 0.900025ZM20.0137 6.22379L11.7386 2.54595L11.8198 2.36319L20.3685 6.16258L20.1486 6.3824L11.7789 10.1488L3.32207 6.28579L3.40517 6.10387L11.7795 9.92919L20.0137 6.22379ZM6.89999 9.1582L11.5123 11.1962C11.605 11.2425 11.6936 11.2637 11.7662 11.2637C11.8396 11.2637 11.8886 11.2427 11.9163 11.215L11.9295 11.2018L16.5545 9.1582V12.94C16.6088 13.2827 16.4925 13.6435 16.2634 13.9669C16.0323 14.2932 15.6819 14.5887 15.2545 14.8028C14.3031 15.3308 13.0402 15.6455 11.7792 15.6455C10.5174 15.6455 9.25361 15.3304 8.30207 14.8017L8.29757 14.7992C7.4604 14.276 6.89999 13.6265 6.89999 12.9481V9.1582ZM7.09999 9.46523V12.9481C7.09999 13.5159 7.57762 14.1127 8.40145 14.6281C9.3198 15.1377 10.5485 15.4455 11.7792 15.4455C13.0109 15.4455 14.2406 15.1372 15.1592 14.6269L15.163 14.6248C15.5658 14.4234 15.8901 14.1479 16.1002 13.8513C16.3108 13.554 16.4023 13.2427 16.3559 12.9645L16.3545 12.9564V9.46523L12.0429 11.3704C11.968 11.4364 11.8678 11.4637 11.7662 11.4637C11.6578 11.4637 11.5394 11.4331 11.425 11.3763L7.09999 9.46523Z" fill="black"/>
</svg>
