<svg width="21" height="21" viewBox="0 0 21 21" fill="none" xmlns="http://www.w3.org/2000/svg">
<path d="M20.8255 15.5C20.6255 15 20.2255 14.6 19.7255 14.4C19.2255 14.2 18.7255 14.2 18.2255 14.4L13.2255 16.2C13.1255 16.2 13.0255 16.2 12.9255 16.2L12.7255 16.1C12.7255 15.8 12.7255 15.5 12.6255 15.2C12.4255 14.8 12.1255 14.4 11.7255 14.3L8.22546 12.7C7.82546 12.6 7.52546 12.5 7.12546 12.5H7.02546C6.62546 12.5 6.22546 12.6 5.82546 12.7L4.12546 13.4L0.925464 13.9C0.725464 13.9 0.525464 14 0.425464 14.2C0.325464 14.4 0.225464 14.5 0.325464 14.7C0.425464 14.9 0.425464 15.1 0.625464 15.2C0.725464 15.3 0.925464 15.4 1.12546 15.3L4.12546 14.7C4.22546 14.7 4.22546 14.7 4.32546 14.7L6.12546 13.9C6.62546 13.7 7.02546 13.7 7.52546 13.9L11.0255 15.5C11.1255 15.5 11.1255 15.6 11.2255 15.7C11.2255 15.8 11.2255 15.9 11.2255 16C11.2255 16.1 11.1255 16.1 11.1255 16.2C11.0255 16.2 11.0255 16.3 11.0255 16.3C10.9255 16.3 10.9255 16.3 10.8255 16.3L7.62546 15.4C7.42546 15.4 7.22546 15.4 7.12546 15.5C6.92546 15.6 6.82546 15.8 6.82546 15.9C6.72546 16.1 6.82546 16.3 6.92546 16.4C7.02546 16.6 7.12546 16.7 7.32546 16.7L10.5255 17.6C10.7255 17.7 10.9255 17.7 11.0255 17.7H11.1255C11.4255 17.7 11.7255 17.6 12.0255 17.4L12.4255 17.6C12.6255 17.7 12.9255 17.8 13.1255 17.8C13.4255 17.8 13.6255 17.8 13.8255 17.7L18.8255 15.9C19.0255 15.8 19.1255 15.8 19.3255 15.9C19.5255 16 19.6255 16.1 19.7255 16.2C19.8255 16.5 19.7255 16.9 19.1255 17.2L13.0255 19.4H12.9255C12.2255 19.8 11.4255 19.8 10.7255 19.4L7.22546 17.7C7.12546 17.6 6.92546 17.6 6.72546 17.7L0.525465 19.1C0.125465 19.2 -0.0745357 19.6 0.0254643 19.9C0.0254643 20.1 0.225464 20.2 0.325464 20.3C0.525464 20.4 0.625464 20.4 0.825464 20.4L6.82546 19L9.82547 20.4C10.3255 20.7 10.9255 20.8 11.5255 20.8C12.1255 20.8 12.7255 20.7 13.2255 20.4L19.3255 18.2H19.4255C20.8255 17.6 21.1255 16.4 20.8255 15.5Z" fill="black"/>
<path d="M18.8255 1.2C18.0255 0.4 16.9255 0 15.8255 0H15.7255C14.3255 0 13.0255 0.6 12.1255 1.7C11.2255 0.6 9.92546 0 8.52547 0C8.52547 0 8.52547 0 8.42546 0C7.32546 0 6.22546 0.4 5.42546 1.2C4.62546 2 4.32546 3.4 4.32546 4.4C4.32546 5.6 4.92546 6.7 6.02546 7.8L11.7255 13C11.8255 13.1 12.0255 13.2 12.2255 13.2C12.4255 13.2 12.5255 13.1 12.7255 13L18.4255 7.8C19.5255 6.7 20.0255 5.5 20.0255 4.4C20.0255 3.4 19.7255 2 18.8255 1.2ZM12.1255 3.7C12.4255 3.7 12.6255 3.5 12.7255 3.3C13.0255 2.7 13.4255 2.2 13.9255 1.9C14.4255 1.6 15.0255 1.4 15.7255 1.4C16.5255 1.4 17.2255 1.7 17.7255 2.2C18.2255 2.9 18.5255 3.7 18.4255 4.5C18.4255 5.3 18.0255 6.1 17.2255 6.9L12.0255 11.6L6.82546 6.9C6.12546 6 5.72546 5.2 5.72546 4.4C5.72546 3.6 5.92546 2.8 6.42546 2.1C7.02546 1.6 7.72546 1.3 8.42546 1.3H8.52547C9.12547 1.3 9.72546 1.5 10.3255 1.8C10.8255 2.2 11.2255 2.7 11.5255 3.3C11.6255 3.5 11.8255 3.7 12.1255 3.7Z" fill="black"/>
</svg>
