<svg width="19" height="20" viewBox="0 0 19 20" fill="none" xmlns="http://www.w3.org/2000/svg">
<path d="M17.0914 6.29188V5.4467C17.0914 4.88325 16.9036 4.22589 16.434 3.85025C16.0584 3.38071 15.4949 3.09898 14.9315 3.09898V2.44162C14.9315 1.78426 14.6497 1.22081 14.1802 0.751269C13.7107 0.281726 13.1472 0 12.4898 0H6.29188C5.63452 0 5.07107 0.281726 4.60152 0.751269C4.13198 1.1269 3.85025 1.78426 3.85025 2.44162V3.00508C3.2868 3.09898 2.72335 3.38071 2.34772 3.75635C1.87817 4.22589 1.69036 4.78934 1.69036 5.4467V6.29188C1.22081 6.5736 0.751269 6.94924 0.469543 7.41878C0.187817 7.88832 0 8.45178 0 9.01523V16.8096C0 17.5609 0.281726 18.3122 0.845178 18.8756C1.40863 19.4391 2.1599 19.7208 2.91117 19.7208H15.5888C16.3401 19.7208 17.0914 19.4391 17.6548 18.8756C18.2183 18.3122 18.5 17.5609 18.5 16.8096V8.92132C18.5 8.35787 18.3122 7.79442 18.0305 7.32487C18.0305 6.85533 17.5609 6.47969 17.0914 6.29188ZM6.29188 1.59645H12.4898C12.6777 1.59645 12.8655 1.69036 13.0533 1.87817C13.2411 2.06599 13.335 2.25381 13.335 2.44162V3.00508H5.4467V2.44162C5.4467 2.25381 5.54061 2.06599 5.72843 1.87817C5.82234 1.69036 6.10406 1.59645 6.29188 1.59645ZM4.13198 4.60152H14.6497C14.8376 4.60152 15.0254 4.69543 15.2132 4.88325C15.401 5.07107 15.4949 5.25888 15.4949 5.4467V6.01015H3.2868V5.4467C3.2868 5.25888 3.38071 5.07107 3.56853 4.88325C3.66244 4.69543 3.94416 4.60152 4.13198 4.60152ZM17.0914 16.7157C17.0914 17.0914 16.9036 17.3731 16.7157 17.6548C16.434 17.9365 16.1523 18.0305 15.7766 18.0305H3.00508C2.62944 18.0305 2.34772 17.8426 2.06599 17.6548C1.78426 17.3731 1.69036 17.0914 1.69036 16.7157V8.92132C1.69036 8.54568 1.87817 8.26396 2.06599 7.98223C2.34772 7.70051 2.62944 7.6066 3.00508 7.6066H15.6827C16.0584 7.6066 16.3401 7.79442 16.6218 7.98223C16.9036 8.26396 16.9975 8.54568 16.9975 8.92132V16.7157H17.0914Z" fill="black"/>
<path d="M11.9264 10.7995H6.76142C6.4797 10.7995 6.19797 10.9873 6.10406 11.1751C5.91624 11.4569 5.91624 11.7386 6.10406 12.0203C6.29188 12.302 6.4797 12.3959 6.76142 12.3959H11.9264C12.2081 12.3959 12.4898 12.2081 12.5838 12.0203C12.7716 11.7386 12.7716 11.4569 12.5838 11.1751C12.4898 10.9873 12.2081 10.7995 11.9264 10.7995Z" fill="black"/>
</svg>
