<svg width="24" height="19" viewBox="0 0 24 19" fill="none" xmlns="http://www.w3.org/2000/svg">
<path d="M18.7 12.8425H15.2V14.3425H18.7C19.8 14.3425 21.7 14.6425 21.7 16.9425C21.7 17.4425 22.1 17.7425 22.5 17.7425C22.9 17.7425 23.3 17.4425 23.3 16.9425C23.3 13.8425 20.8 12.8425 18.7 12.8425Z" fill="black"/>
<path d="M12 11.8425C12 12.1425 11.9 12.3425 11.7 12.5425C11.5 12.7425 11.3 12.8425 11 12.8425H8.39997V12.3425C9.99998 12.1425 11.7 10.1425 11.7 8.44245V6.74246C11.7 6.34245 11.5 5.94245 11.2 5.64245C11 5.34245 10.6 5.14245 10.1 5.14245H4.99997C4.59997 5.14245 4.19998 5.34245 3.89998 5.64245C3.59998 5.94245 3.39998 6.34245 3.39998 6.74246V8.44245C3.39998 9.54245 3.79998 10.5425 4.59998 11.3425C4.99998 11.7425 5.89998 12.1425 6.59998 12.3425V12.8425H4.19998C3.89998 12.8425 3.69998 12.7425 3.49998 12.5425C3.29998 12.3425 3.19998 12.1425 3.19998 11.8425V5.94245C3.19998 3.54245 5.19998 1.54245 7.59998 1.54245C9.99998 1.54245 11.9 3.44245 11.9 5.84245V11.8425H12ZM7.59998 11.1425C6.89998 11.1425 6.19998 10.8425 5.69998 10.3425C5.19998 9.84246 4.89998 9.14245 4.89998 8.44245V6.64245H10.2V8.44245C10.3 9.94245 9.09998 11.1425 7.59998 11.1425ZM12.9 13.3425C13.1 13.0425 13.3 12.6425 13.4 12.1425V5.84245C13.4 2.74245 10.8 0.0424547 7.59998 0.0424547C4.39997 0.0424547 1.69998 2.64245 1.69998 5.94245V11.8425C1.69998 12.3425 1.89998 12.8425 2.19998 13.3425C0.799975 14.0425 -2.47955e-05 15.4425 -2.47955e-05 16.9425C-2.47955e-05 16.9425 -2.47955e-05 17.4425 -2.47955e-05 17.7425C-2.47955e-05 18.6425 1.49998 18.7425 1.49998 17.7425C1.49998 17.4425 1.49998 16.9425 1.49998 16.9425C1.49998 15.4425 2.69998 14.2425 4.19998 14.2425H11C12.5 14.2425 13.7 15.4425 13.7 16.9425C13.7 16.9425 13.7 17.4425 13.7 17.7425C13.7 18.6425 15.2 18.6425 15.2 17.7425C15.2 17.5425 15.2 16.9425 15.2 16.9425C15.1 15.4425 14.3 14.0425 12.9 13.3425Z" fill="black"/>
<path d="M19 9.94245C18 10.5425 16.7 10.6425 15.6 10.1425L15.2 9.94245V11.5425L15.4 11.6425C16 11.8425 16.5 11.9425 17.1 11.9425C18.1 11.9425 19.2 11.6425 20 11.0425C21.2 10.2425 21.8 8.84245 21.8 7.24246V4.74246C21.8 3.04245 21.1 1.64245 19.7 0.742455C18.2 -0.157545 16.3 -0.257545 14.7 0.542455C14.5 0.642455 14.4 0.742454 14.3 0.842454L14 1.14245L14.2 1.34245C14.3 1.64245 14.5 1.84245 14.6 2.14245L14.8 2.54245L15.1 2.24246C15.1 2.24246 15.1 2.14245 15.2 2.14245C15.3 2.04245 15.3 2.04245 15.5 1.94245C16.6 1.34245 17.9 1.44245 18.9 2.04245C19.8 2.64245 20.3 3.54245 20.3 4.74246V5.34245L16 3.74246C15.8 3.64246 15.6 3.64246 15.4 3.74246L15.2 3.84245V4.04245C15.2 4.44245 15.2 4.84245 15.2 5.24246V5.84245L15.9 5.34245L20.3 7.04245V7.34245C20.3 8.44245 19.9 9.34245 19 9.94245Z" fill="black"/>
</svg>
