<svg width="18" height="21" viewBox="0 0 18 21" fill="none" xmlns="http://www.w3.org/2000/svg">
<path fill-rule="evenodd" clip-rule="evenodd" d="M0.711477 3.30768C0.711477 1.7889 1.94269 0.557678 3.46148 0.557678H13.8254C14.0375 0.557678 14.241 0.641954 14.3911 0.791993C14.3911 0.791996 14.3911 0.79199 14.3911 0.791993L17.5925 3.99347C17.7426 4.14352 17.8269 4.34701 17.8269 4.55916V17.6154C17.8269 19.1342 16.5956 20.3654 15.0769 20.3654H3.46148C1.94269 20.3654 0.711477 19.1342 0.711477 17.6154V3.30768ZM3.46148 2.05768C2.77112 2.05768 2.21148 2.61732 2.21148 3.30768V17.6154C2.21148 18.3057 2.77112 18.8654 3.46148 18.8654H15.0769C15.7672 18.8654 16.3269 18.3057 16.3269 17.6154V4.84911L13.5354 2.05768H3.46148ZM3.40378 5.61537C3.40378 5.20116 3.73957 4.86537 4.15378 4.86537H5.76917C6.18338 4.86537 6.51917 5.20116 6.51917 5.61537C6.51917 6.02958 6.18338 6.36537 5.76917 6.36537H4.15378C3.73957 6.36537 3.40378 6.02958 3.40378 5.61537ZM7.71148 5.61537C7.71148 5.20116 8.04726 4.86537 8.46148 4.86537H13.3076C13.7218 4.86537 14.0576 5.20116 14.0576 5.61537C14.0576 6.02958 13.7218 6.36537 13.3076 6.36537H8.46148C8.04726 6.36537 7.71148 6.02958 7.71148 5.61537ZM3.40378 8.84614C3.40378 8.43193 3.73957 8.09614 4.15378 8.09614H5.76917C6.18338 8.09614 6.51917 8.43193 6.51917 8.84614C6.51917 9.26035 6.18338 9.59614 5.76917 9.59614H4.15378C3.73957 9.59614 3.40378 9.26035 3.40378 8.84614ZM7.71148 8.84614C7.71148 8.43193 8.04726 8.09614 8.46148 8.09614H13.3076C13.7218 8.09614 14.0576 8.43193 14.0576 8.84614C14.0576 9.26035 13.7218 9.59614 13.3076 9.59614H8.46148C8.04726 9.59614 7.71148 9.26035 7.71148 8.84614ZM3.40378 12.0769C3.40378 11.6627 3.73957 11.3269 4.15378 11.3269H5.76917C6.18338 11.3269 6.51917 11.6627 6.51917 12.0769C6.51917 12.4911 6.18338 12.8269 5.76917 12.8269H4.15378C3.73957 12.8269 3.40378 12.4911 3.40378 12.0769ZM7.71148 12.0769C7.71148 11.6627 8.04726 11.3269 8.46148 11.3269H13.3076C13.7218 11.3269 14.0576 11.6627 14.0576 12.0769C14.0576 12.4911 13.7218 12.8269 13.3076 12.8269H8.46148C8.04726 12.8269 7.71148 12.4911 7.71148 12.0769ZM3.40378 15.3077C3.40378 14.8935 3.73957 14.5577 4.15378 14.5577H5.76917C6.18338 14.5577 6.51917 14.8935 6.51917 15.3077C6.51917 15.7219 6.18338 16.0577 5.76917 16.0577H4.15378C3.73957 16.0577 3.40378 15.7219 3.40378 15.3077ZM7.71148 15.3077C7.71148 14.8935 8.04726 14.5577 8.46148 14.5577H13.3076C13.7218 14.5577 14.0576 14.8935 14.0576 15.3077C14.0576 15.7219 13.7218 16.0577 13.3076 16.0577H8.46148C8.04726 16.0577 7.71148 15.7219 7.71148 15.3077Z" fill="black"/>
</svg>
