<svg width="28" height="28" viewBox="0 0 28 28" fill="none" xmlns="http://www.w3.org/2000/svg">
<path fill-rule="evenodd" clip-rule="evenodd" d="M13.0423 5.68998C13.5886 4.58301 15.2103 4.60906 15.7438 5.68998L17.8768 10.012L22.6464 10.705C23.868 10.8825 24.3444 12.4329 23.4812 13.2743L20.0299 16.6385L20.8447 21.3888C21.0533 22.6055 19.726 23.5376 18.6591 22.9767L14.3931 20.7339L10.127 22.9767C9.03437 23.5512 7.73769 22.5769 7.94145 21.3888L8.7562 16.6385L5.30489 13.2743C4.42092 12.4126 4.94683 10.8784 6.1397 10.705L10.9093 10.012L13.0423 5.68998ZM14.3931 6.69555L12.0092 11.5258L6.67865 12.3004L10.5359 16.0602L9.62529 21.3692L14.3931 18.8627L19.1608 21.3692L18.2503 16.0602L22.1075 12.3004L16.7769 11.5258L14.3931 6.69555Z" fill="black"/>
</svg>
