<svg width="22" height="22" viewBox="0 0 22 22" fill="none" xmlns="http://www.w3.org/2000/svg">
<path d="M21.9975 13.7682C21.9977 13.7501 22 13.7329 22 13.7148C21.9988 13.6863 21.9959 13.6576 21.9913 13.6294C21.9894 13.6145 21.9894 13.5996 21.9867 13.5847H21.9869C21.977 13.53 21.961 13.4768 21.9387 13.4261L21.9378 13.4227L18.3739 5.41237H18.3737C18.1883 4.99313 17.8918 4.63266 17.5164 4.3699C17.141 4.10693 16.7009 3.95158 16.2436 3.92061C14.6418 3.80955 13.0329 3.91074 11.4578 4.2219V1.39785C11.4578 1.00019 11.1356 0.678009 10.7379 0.678009C10.3405 0.678009 10.0181 1.00018 10.0181 1.39785V4.57072C8.49556 5.00694 7.03684 5.64097 5.67933 6.45651L4.63111 7.08594C4.17676 7.35718 3.8188 7.76355 3.6072 8.24866L0.0612602 16.3353L0.0610307 16.336C0.038543 16.3879 0.0224809 16.4422 0.0128434 16.4978C0.0103193 16.5115 0.0103193 16.5251 0.00871303 16.5388V16.5391C0.00412368 16.5673 0.00113963 16.5958 -7.62939e-06 16.6244C-7.62939e-06 16.6444 0.00251647 16.6634 0.00274598 16.6834V16.6846H0.00297545C-0.0101044 17.928 0.481872 19.1234 1.36648 19.9974C2.2511 20.8712 3.45235 21.3487 4.69536 21.3207C5.94161 21.3492 7.14585 20.8694 8.03135 19.9916C8.91662 19.1141 9.40701 17.9141 9.38957 16.6676L9.39003 16.6598C9.39003 16.6478 9.39163 16.6364 9.39163 16.6244C9.3914 16.5785 9.38681 16.5329 9.37786 16.4879L9.3774 16.4842L9.37763 16.484C9.36593 16.428 9.34757 16.3736 9.32302 16.322C9.32141 16.3186 9.32118 16.3147 9.31935 16.3112L5.43422 8.28272L6.42 7.69141C7.80688 6.85866 9.30784 6.23222 10.8756 5.83247C10.8864 5.8304 10.8965 5.82673 10.907 5.82421C12.6166 5.39166 14.3839 5.23354 16.143 5.35633C16.1641 5.35839 16.1852 5.36023 16.2052 5.36229L12.6684 13.426L12.6682 13.4267V13.427C12.6459 13.4786 12.6296 13.533 12.62 13.5885C12.6175 13.6023 12.6175 13.616 12.6159 13.63V13.6298C12.6113 13.6583 12.6083 13.6867 12.6072 13.7152C12.6072 13.7351 12.6097 13.7542 12.6099 13.7741V13.7748H12.6101C12.6303 15.4382 13.5294 16.9667 14.9734 17.7926C16.4177 18.6185 18.191 18.6182 19.6348 17.7919C21.0786 16.9656 21.9775 15.4369 21.9972 13.7735L21.9975 13.7682ZM4.69511 19.8811C3.94889 19.9109 3.21688 19.6709 2.63309 19.2051C2.04932 18.739 1.65301 18.0784 1.51696 17.3441H7.8742C7.7379 18.0786 7.34138 18.7392 6.75736 19.2053C6.1736 19.6711 5.44139 19.9112 4.69493 19.8811H4.69511ZM7.5242 15.9044H1.82078L4.53151 9.72226L7.5242 15.9044ZM17.2804 6.49488L20.1725 12.9955L14.4283 12.9957L17.2804 6.49488ZM17.3035 16.9718V16.972C16.5571 17.0021 15.8248 16.7621 15.2409 16.2963C14.6571 15.8302 14.2605 15.1696 14.1243 14.435H20.4827H20.4824C20.3461 15.1696 19.9499 15.8302 19.3658 16.2963C18.7819 16.7621 18.0496 17.0021 17.3034 16.972L17.3035 16.9718Z" fill="black"/>
</svg>
